<?xml version="1.0" encoding="UTF-8" standalone="no"?>
<!-- Created with Inkscape (http://www.inkscape.org/) -->

<svg
   xmlns:dc="http://purl.org/dc/elements/1.1/"
   xmlns:cc="http://creativecommons.org/ns#"
   xmlns:rdf="http://www.w3.org/1999/02/22-rdf-syntax-ns#"
   xmlns:svg="http://www.w3.org/2000/svg"
   xmlns="http://www.w3.org/2000/svg"
   xmlns:sodipodi="http://sodipodi.sourceforge.net/DTD/sodipodi-0.dtd"
   xmlns:inkscape="http://www.inkscape.org/namespaces/inkscape"
   width="2560"
   height="1440"
   viewBox="0 0 2560 1440"
   id="svg4434"
   version="1.1"
   inkscape:version="0.91 r13725"
   sodipodi:docname="choose-civility.svg">
  <defs
     id="defs4436" />
  <sodipodi:namedview
     id="base"
     pagecolor="#ffffff"
     bordercolor="#666666"
     borderopacity="1.0"
     inkscape:pageopacity="0.0"
     inkscape:pageshadow="2"
     inkscape:zoom="0.39187386"
     inkscape:cx="1051.0241"
     inkscape:cy="443.43583"
     inkscape:document-units="px"
     inkscape:current-layer="layer2"
     showgrid="false"
     units="px"
     showguides="false"
     inkscape:window-width="1920"
     inkscape:window-height="1014"
     inkscape:window-x="0"
     inkscape:window-y="27"
     inkscape:window-maximized="1" />
  <metadata
     id="metadata4439">
    <rdf:RDF>
      <cc:Work
         rdf:about="">
        <dc:format>image/svg+xml</dc:format>
        <dc:type
           rdf:resource="http://purl.org/dc/dcmitype/StillImage" />
        <dc:title></dc:title>
      </cc:Work>
    </rdf:RDF>
  </metadata>
  <g
     inkscape:groupmode="layer"
     id="layer3"
     inkscape:label="back"
     style="display:inline" />
  <g
     inkscape:groupmode="layer"
     id="layer4"
     inkscape:label="little" />
  <g
     inkscape:groupmode="layer"
     id="layer2"
     inkscape:label="background"
     style="display:inline">
    <g
       id="g5548">
      <rect
         y="306"
         x="0"
         height="854"
         width="2560"
         id="rect5064"
         style="display:inline;color:#000000;overflow:visible;visibility:visible;opacity:1;fill:#087649;fill-opacity:1;fill-rule:nonzero;stroke:none;stroke-width:1.99921978;stroke-linecap:butt;stroke-linejoin:miter;stroke-miterlimit:4;stroke-dasharray:none;stroke-dashoffset:0;stroke-opacity:1;marker:none;enable-background:accumulate" />
      <g
         id="g5460">
        <path
           style="fill:none;fill-rule:evenodd;stroke:#ffffff;stroke-width:20.33807564;stroke-linecap:butt;stroke-linejoin:miter;stroke-miterlimit:4;stroke-dasharray:none;stroke-opacity:1"
           d="m 330.00003,820.23784 1839.99997,0"
           id="path5088"
           inkscape:connector-curvature="0" />
        <rect
           style="color:#000000;display:inline;overflow:visible;visibility:visible;opacity:1;fill:#087649;fill-opacity:1;fill-rule:nonzero;stroke:none;stroke-width:20;stroke-linecap:butt;stroke-linejoin:miter;stroke-miterlimit:4;stroke-dasharray:none;stroke-dashoffset:0;stroke-opacity:1;marker:none;enable-background:accumulate"
           id="rect5108"
           width="702.77301"
           height="61.200001"
           x="876.44775"
           y="789.63782" />
        <g
           style="font-style:normal;font-variant:normal;font-weight:normal;font-stretch:normal;font-size:20px;line-height:125%;font-family:'Noto Sans';-inkscape-font-specification:'Noto Sans, Normal';text-align:start;letter-spacing:1.21000004px;word-spacing:0px;writing-mode:lr-tb;text-anchor:start;fill:#ffffff;fill-opacity:1;stroke:none;stroke-width:1px;stroke-linecap:butt;stroke-linejoin:miter;stroke-opacity:1"
           id="text5066">
          <path
             d="m 939.10726,789.63787 q 8.55,0 14.85,3.69 6.39,3.69 9.81,10.62 3.42,6.93 3.42,16.29 0,9.36 -3.42,16.29 -3.42,6.93 -9.81,10.62 -6.3,3.69 -14.85,3.69 -8.55,0 -14.85,-3.69 -6.3,-3.69 -9.72,-10.62 -3.42,-6.93 -3.42,-16.29 0,-9.36 3.42,-16.29 3.42,-6.93 9.72,-10.62 6.3,-3.69 14.85,-3.69 z m 0,8.37 q -8.37,0 -13.14,5.85 -4.77,5.85 -4.77,16.38 0,10.53 4.77,16.38 4.77,5.85 13.14,5.85 8.46,0 13.23,-5.85 4.77,-5.85 4.77,-16.38 0,-10.53 -4.77,-16.38 -4.77,-5.85 -13.23,-5.85 z"
             style="font-style:normal;font-variant:normal;font-weight:500;font-stretch:normal;font-size:90px;font-family:'Work Sans';-inkscape-font-specification:'Work Sans Medium';letter-spacing:0px;fill:#ffffff"
             id="path5440" />
          <path
             d="m 1004.2799,790.53787 q 9.63,0 15.21,4.95 5.67,4.95 5.67,13.59 0,8.64 -5.67,13.59 -5.58,4.86 -15.21,4.86 l -13.22999,0 0,22.41 -9.63,0 0,-59.4 22.85999,0 z m -1.53,28.8 q 6.3,0 9.36,-2.52 3.06,-2.61 3.06,-7.74 0,-10.35 -12.42,-10.35 l -11.69999,0 0,20.61 11.69999,0 z"
             style="font-style:normal;font-variant:normal;font-weight:500;font-stretch:normal;font-size:90px;font-family:'Work Sans';-inkscape-font-specification:'Work Sans Medium';letter-spacing:0px;fill:#ffffff"
             id="path5442" />
          <path
             d="m 1082.1257,841.65787 0,8.28 -44.28,0 0,-59.4 43.02,0 0,8.28 -33.39,0 0,17.1 26.1,0 0,8.1 -26.1,0 0,17.64 34.65,0 z"
             style="font-style:normal;font-variant:normal;font-weight:500;font-stretch:normal;font-size:90px;font-family:'Work Sans';-inkscape-font-specification:'Work Sans Medium';letter-spacing:0px;fill:#ffffff"
             id="path5444" />
          <path
             d="m 1143.8404,849.93787 -11.43,0 -22.95,-37.44 -5.76,-10.98 -0.09,0 0.36,10.08 0,38.34 -8.82,0 0,-59.4 11.34,0 22.86,37.35 5.85,11.07 0.09,0 -0.36,-10.08 0,-38.34 8.91,0 0,59.4 z"
             style="font-style:normal;font-variant:normal;font-weight:500;font-stretch:normal;font-size:90px;font-family:'Work Sans';-inkscape-font-specification:'Work Sans Medium';letter-spacing:0px;fill:#ffffff"
             id="path5446" />
          <path
             d="m 1210.8496,789.63787 q 8.19,0 13.95,2.97 5.85,2.97 9.81,9.09 l -7.29,6.57 q -2.52,-5.4 -6.3,-7.83 -3.78,-2.43 -10.08,-2.43 -6.21,0 -9.63,2.52 -3.42,2.43 -3.42,6.3 0,3.6 3.33,5.76 3.33,2.07 11.88,3.6 8.01,1.44 12.69,3.69 4.77,2.16 6.93,5.49 2.16,3.24 2.16,8.1 0,5.22 -2.97,9.18 -2.97,3.96 -8.37,6.12 -5.31,2.07 -12.33,2.07 -18.09,0 -25.56,-12.06 l 6.75,-6.75 q 2.88,5.4 7.38,7.92 4.59,2.52 11.34,2.52 6.39,0 9.99,-2.16 3.69,-2.25 3.69,-6.3 0,-3.24 -3.33,-5.22 -3.24,-1.98 -11.43,-3.51 -8.19,-1.53 -13.05,-3.78 -4.86,-2.25 -7.11,-5.58 -2.16,-3.33 -2.16,-8.1 0,-5.04 2.79,-9.18 2.79,-4.14 8.01,-6.57 5.31,-2.43 12.33,-2.43 z"
             style="font-style:normal;font-variant:normal;font-weight:500;font-stretch:normal;font-size:90px;font-family:'Work Sans';-inkscape-font-specification:'Work Sans Medium';letter-spacing:0px;fill:#ffffff"
             id="path5448" />
          <path
             d="m 1273.0916,789.63787 q 8.55,0 14.85,3.69 6.39,3.69 9.81,10.62 3.42,6.93 3.42,16.29 0,9.36 -3.42,16.29 -3.42,6.93 -9.81,10.62 -6.3,3.69 -14.85,3.69 -8.55,0 -14.85,-3.69 -6.3,-3.69 -9.72,-10.62 -3.42,-6.93 -3.42,-16.29 0,-9.36 3.42,-16.29 3.42,-6.93 9.72,-10.62 6.3,-3.69 14.85,-3.69 z m 0,8.37 q -8.37,0 -13.14,5.85 -4.77,5.85 -4.77,16.38 0,10.53 4.77,16.38 4.77,5.85 13.14,5.85 8.46,0 13.23,-5.85 4.77,-5.85 4.77,-16.38 0,-10.53 -4.77,-16.38 -4.77,-5.85 -13.23,-5.85 z"
             style="font-style:normal;font-variant:normal;font-weight:500;font-stretch:normal;font-size:90px;font-family:'Work Sans';-inkscape-font-specification:'Work Sans Medium';letter-spacing:0px;fill:#ffffff"
             id="path5450" />
          <path
             d="m 1363.1943,827.16787 q 0,11.7 -6.21,17.73 -6.21,5.94 -18.09,5.94 -11.88,0 -18.09,-5.94 -6.21,-6.03 -6.21,-17.73 l 0,-36.63 9.72,0 0,35.46 q 0,8.46 3.51,12.51 3.6,3.96 11.07,3.96 7.47,0 10.98,-3.96 3.6,-4.05 3.6,-12.51 l 0,-35.46 9.72,0 0,36.63 z"
             style="font-style:normal;font-variant:normal;font-weight:500;font-stretch:normal;font-size:90px;font-family:'Work Sans';-inkscape-font-specification:'Work Sans Medium';letter-spacing:0px;fill:#ffffff"
             id="path5452" />
          <path
             d="m 1402.4118,826.17787 -12.78,0 0,23.76 -9.54,0 0,-59.4 24.21,0 q 9.63,0 15.21,4.77 5.58,4.68 5.58,13.05 0,6.39 -3.33,10.71 -3.24,4.23 -9.27,6.03 l 16.11,24.84 -11.07,0 -15.12,-23.76 z m -12.78,-8.01 13.86,0 q 5.85,0 8.73,-2.34 2.88,-2.43 2.88,-7.38 0,-4.95 -2.88,-7.29 -2.88,-2.43 -8.73,-2.43 l -13.86,0 0,19.44 z"
             style="font-style:normal;font-variant:normal;font-weight:500;font-stretch:normal;font-size:90px;font-family:'Work Sans';-inkscape-font-specification:'Work Sans Medium';letter-spacing:0px;fill:#ffffff"
             id="path5454" />
          <path
             d="m 1489.2632,834.18787 q -2.7,8.01 -9.27,12.33 -6.48,4.32 -15.3,4.32 -8.55,0 -14.85,-3.69 -6.3,-3.69 -9.72,-10.62 -3.42,-6.93 -3.42,-16.29 0,-9.36 3.42,-16.29 3.42,-6.93 9.72,-10.62 6.3,-3.69 14.76,-3.69 8.91,0 14.94,3.69 6.12,3.69 8.82,10.89 l -9.09,4.05 q -1.8,-5.31 -5.22,-7.74 -3.42,-2.52 -8.91,-2.52 -8.37,0 -13.41,5.94 -4.95,5.85 -4.95,16.29 0,10.53 4.77,16.38 4.77,5.85 13.23,5.85 5.76,0 9.63,-2.88 3.96,-2.88 5.67,-8.46 l 9.18,3.06 z"
             style="font-style:normal;font-variant:normal;font-weight:500;font-stretch:normal;font-size:90px;font-family:'Work Sans';-inkscape-font-specification:'Work Sans Medium';letter-spacing:0px;fill:#ffffff"
             id="path5456" />
          <path
             d="m 1545.8366,841.65787 0,8.28 -44.28,0 0,-59.4 43.02,0 0,8.28 -33.39,0 0,17.1 26.1,0 0,8.1 -26.1,0 0,17.64 34.65,0 z"
             style="font-style:normal;font-variant:normal;font-weight:500;font-stretch:normal;font-size:90px;font-family:'Work Sans';-inkscape-font-specification:'Work Sans Medium';letter-spacing:0px;fill:#ffffff"
             id="path5458" />
        </g>
      </g>
      <g
         id="g5287">
        <path
           inkscape:connector-curvature="0"
           id="path5135"
           style="font-style:normal;font-variant:normal;font-weight:normal;font-stretch:normal;font-size:350px;line-height:125%;font-family:'Noto Sans';-inkscape-font-specification:'Noto Sans, Normal';text-align:start;letter-spacing:-14px;word-spacing:0px;writing-mode:lr-tb;text-anchor:start;fill:#ffffff;fill-opacity:1;stroke:none;stroke-width:1px;stroke-linecap:butt;stroke-linejoin:miter;stroke-opacity:1"
           d="m 387.84042,665.01617 q -10.5,31.15 -36.05,47.95 -25.2,16.8 -59.5,16.8 -33.25,0 -57.75,-14.35 -24.5,-14.35 -37.8,-41.3 -13.3,-26.95 -13.3,-63.35 0,-36.4 13.3,-63.35 13.3,-26.95 37.8,-41.3 24.5,-14.35 57.4,-14.35 34.65,0 58.1,14.35 23.8,14.35 34.3,42.35 l -35.35,15.75 q -7,-20.65 -20.3,-30.1 -13.3,-9.8 -34.65,-9.8 -32.55,0 -52.15,23.1 -19.25,22.75 -19.25,63.35 0,40.95 18.55,63.7 18.55,22.75 51.45,22.75 22.4,0 37.45,-11.2 15.4,-11.2 22.05,-32.9 l 35.7,11.9 z" />
        <path
           inkscape:connector-curvature="0"
           id="path5137"
           style="font-style:normal;font-variant:normal;font-weight:normal;font-stretch:normal;font-size:medium;line-height:125%;font-family:'Noto Sans';-inkscape-font-specification:'Noto Sans, Normal';text-align:start;letter-spacing:-14px;word-spacing:-52px;writing-mode:lr-tb;text-anchor:start;fill:#ffffff;fill-opacity:1;stroke:none;stroke-width:1px;stroke-linecap:butt;stroke-linejoin:miter;stroke-opacity:1"
           d="m 501.74824,560.51617 q 26.975,0 43.875,15.6 17.225,15.6 17.225,44.85 l 0,105.3 -34.775,0 0,-94.25 q 0,-42.9 -34.775,-42.9 -18.2,0 -31.2,12.675 -13,12.675 -13,38.675 l 0,85.8 -34.775,0 0,-235.625 34.775,0 0,99.125 q 8.125,-14.95 21.45,-22.1 13.65,-7.15 31.2,-7.15 z" />
        <path
           inkscape:connector-curvature="0"
           id="path5139"
           style="font-style:normal;font-variant:normal;font-weight:normal;font-stretch:normal;font-size:medium;line-height:125%;font-family:'Noto Sans';-inkscape-font-specification:'Noto Sans, Normal';text-align:start;letter-spacing:-14px;word-spacing:-52px;writing-mode:lr-tb;text-anchor:start;fill:#ffffff;fill-opacity:1;stroke:none;stroke-width:1px;stroke-linecap:butt;stroke-linejoin:miter;stroke-opacity:1"
           d="m 673.04394,560.51617 q 38.025,0 59.475,22.425 21.45,22.425 21.45,62.075 0,39.65 -21.45,62.075 -21.45,22.425 -59.475,22.425 -38.025,0 -59.475,-22.425 -21.45,-22.425 -21.45,-62.075 0,-39.65 21.45,-62.075 21.45,-22.425 59.475,-22.425 z m 0,27.3 q -22.1,0 -34.125,14.95 -11.7,14.625 -11.7,42.25 0,27.625 11.7,42.575 12.025,14.625 34.125,14.625 22.1,0 34.125,-14.95 12.025,-14.95 12.025,-42.25 0,-27.3 -12.025,-42.25 -12.025,-14.95 -34.125,-14.95 z" />
        <path
           inkscape:connector-curvature="0"
           id="path5141"
           style="font-style:normal;font-variant:normal;font-weight:normal;font-stretch:normal;font-size:medium;line-height:125%;font-family:'Noto Sans';-inkscape-font-specification:'Noto Sans, Normal';text-align:start;letter-spacing:-14px;word-spacing:-52px;writing-mode:lr-tb;text-anchor:start;fill:#ffffff;fill-opacity:1;stroke:none;stroke-width:1px;stroke-linecap:butt;stroke-linejoin:miter;stroke-opacity:1"
           d="m 855.82128,560.51617 q 38.025,0 59.475,22.425 21.45,22.425 21.45,62.075 0,39.65 -21.45,62.075 -21.45,22.425 -59.475,22.425 -38.025,0 -59.475,-22.425 -21.45,-22.425 -21.45,-62.075 0,-39.65 21.45,-62.075 21.45,-22.425 59.475,-22.425 z m 0,27.3 q -22.1,0 -34.125,14.95 -11.7,14.625 -11.7,42.25 0,27.625 11.7,42.575 12.025,14.625 34.125,14.625 22.1,0 34.125,-14.95 12.025,-14.95 12.025,-42.25 0,-27.3 -12.025,-42.25 -12.025,-14.95 -34.125,-14.95 z" />
        <path
           inkscape:connector-curvature="0"
           id="path5143"
           style="font-style:normal;font-variant:normal;font-weight:normal;font-stretch:normal;font-size:medium;line-height:125%;font-family:'Noto Sans';-inkscape-font-specification:'Noto Sans, Normal';text-align:start;letter-spacing:-14px;word-spacing:-52px;writing-mode:lr-tb;text-anchor:start;fill:#ffffff;fill-opacity:1;stroke:none;stroke-width:1px;stroke-linecap:butt;stroke-linejoin:miter;stroke-opacity:1"
           d="m 1025.9236,729.51617 q -24.7,0 -43.87497,-8.45 -18.85,-8.45 -28.6,-25.675 l 23.4,-20.15 q 6.175,13.975 19.175,20.475 12.99997,6.5 31.19997,6.5 16.575,0 25.675,-5.2 9.1,-5.525 9.1,-14.3 0,-7.8 -8.45,-12.35 -8.45,-4.875 -29.25,-9.1 -36.07497,-6.825 -50.69997,-18.2 -14.625,-11.375 -14.625,-32.175 0,-13.325 8.125,-24.7 8.125,-11.7 23.4,-18.525 15.59997,-7.15 36.72497,-7.15 26.975,0 43.225,9.1 16.25,8.775 25.025,27.625 l -24.7,18.2 q -5.85,-14.3 -16.575,-20.8 -10.4,-6.825 -26.65,-6.825 -14.625,0 -24.375,6.175 -9.42497,5.85 -9.42497,13.65 0,8.775 8.44997,13.975 8.775,5.2 31.525,9.425 34.45,6.175 48.75,17.55 14.3,11.375 14.3,31.85 0,21.775 -18.85,35.425 -18.85,13.65 -52,13.65 z" />
        <path
           inkscape:connector-curvature="0"
           id="path5145"
           style="font-style:normal;font-variant:normal;font-weight:normal;font-stretch:normal;font-size:medium;line-height:125%;font-family:'Noto Sans';-inkscape-font-specification:'Noto Sans, Normal';text-align:start;letter-spacing:-14px;word-spacing:-52px;writing-mode:lr-tb;text-anchor:start;fill:#ffffff;fill-opacity:1;stroke:none;stroke-width:1px;stroke-linecap:butt;stroke-linejoin:miter;stroke-opacity:1"
           d="m 1269.7603,640.14117 q 0,9.425 -1.3,17.875 l -118.95,0 q 2.925,21.45 15.275,32.825 12.35,11.05 31.85,11.05 15.925,0 26.325,-5.525 10.725,-5.85 14.625,-16.575 l 28.925,12.025 q -18.2,37.7 -69.875,37.7 -38.35,0 -60.125,-22.425 -21.45,-22.425 -21.45,-62.075 0,-39.975 20.8,-62.075 20.8,-22.425 58.5,-22.425 35.75,0 55.575,21.775 19.825,21.775 19.825,57.85 z m -75.4,-52 q -18.85,0 -30.55,11.05 -11.375,11.05 -14.3,32.175 l 87.75,0 q -2.6,-20.475 -13.975,-31.85 -11.05,-11.375 -28.925,-11.375 z" />
        <path
           inkscape:connector-curvature="0"
           id="path5147"
           style="font-style:normal;font-variant:normal;font-weight:normal;font-stretch:normal;font-size:350px;line-height:125%;font-family:'Noto Sans';-inkscape-font-specification:'Noto Sans, Normal';text-align:start;letter-spacing:-6px;word-spacing:0px;writing-mode:lr-tb;text-anchor:start;fill:#ffffff;fill-opacity:1;stroke:none;stroke-width:1px;stroke-linecap:butt;stroke-linejoin:miter;stroke-opacity:1"
           d="m 1553.2623,665.01617 q -10.5,31.15 -36.05,47.95 -25.2,16.8 -59.5,16.8 -33.25,0 -57.75,-14.35 -24.5,-14.35 -37.8,-41.3 -13.3,-26.95 -13.3,-63.35 0,-36.4 13.3,-63.35 13.3,-26.95 37.8,-41.3 24.5,-14.35 57.4,-14.35 34.65,0 58.1,14.35 23.8,14.35 34.3,42.35 l -35.35,15.75 q -7,-20.65 -20.3,-30.1 -13.3,-9.8 -34.65,-9.8 -32.55,0 -52.15,23.1 -19.25,22.75 -19.25,63.35 0,40.95 18.55,63.7 18.55,22.75 51.45,22.75 22.4,0 37.45,-11.2 15.4,-11.2 22.05,-32.9 l 35.7,11.9 z" />
        <path
           inkscape:connector-curvature="0"
           id="path5149"
           style="font-style:normal;font-variant:normal;font-weight:normal;font-stretch:normal;font-size:medium;line-height:125%;font-family:'Noto Sans';-inkscape-font-specification:'Noto Sans, Normal';text-align:start;letter-spacing:-6px;word-spacing:0px;writing-mode:lr-tb;text-anchor:start;fill:#ffffff;fill-opacity:1;stroke:none;stroke-width:1px;stroke-linecap:butt;stroke-linejoin:miter;stroke-opacity:1"
           d="m 1605.2951,536.46617 q -11.05,0 -17.225,-5.525 -6.175,-5.85 -6.175,-16.25 0,-10.4 6.175,-15.925 6.175,-5.525 17.225,-5.525 11.05,0 16.9,5.525 6.175,5.525 6.175,15.925 0,10.4 -6.175,16.25 -5.85,5.525 -16.9,5.525 z m 17.225,189.8 -34.775,0 0,-162.5 34.775,0 0,162.5 z" />
        <path
           inkscape:connector-curvature="0"
           id="path5151"
           style="font-style:normal;font-variant:normal;font-weight:normal;font-stretch:normal;font-size:medium;line-height:125%;font-family:'Noto Sans';-inkscape-font-specification:'Noto Sans, Normal';text-align:start;letter-spacing:-6px;word-spacing:0px;writing-mode:lr-tb;text-anchor:start;fill:#ffffff;fill-opacity:1;stroke:none;stroke-width:1px;stroke-linecap:butt;stroke-linejoin:miter;stroke-opacity:1"
           d="m 1813.9373,563.76617 -64.675,162.5 -38.025,0 -65,-162.5 38.35,0 45.825,134.225 47.125,-134.225 36.4,0 z" />
        <path
           inkscape:connector-curvature="0"
           id="path5153"
           style="font-style:normal;font-variant:normal;font-weight:normal;font-stretch:normal;font-size:medium;line-height:125%;font-family:'Noto Sans';-inkscape-font-specification:'Noto Sans, Normal';text-align:start;letter-spacing:-6px;word-spacing:0px;writing-mode:lr-tb;text-anchor:start;fill:#ffffff;fill-opacity:1;stroke:none;stroke-width:1px;stroke-linecap:butt;stroke-linejoin:miter;stroke-opacity:1"
           d="m 1854.8185,536.46617 q -11.05,0 -17.225,-5.525 -6.175,-5.85 -6.175,-16.25 0,-10.4 6.175,-15.925 6.175,-5.525 17.225,-5.525 11.05,0 16.9,5.525 6.175,5.525 6.175,15.925 0,10.4 -6.175,16.25 -5.85,5.525 -16.9,5.525 z m 17.225,189.8 -34.775,0 0,-162.5 34.775,0 0,162.5 z" />
        <path
           inkscape:connector-curvature="0"
           id="path5155"
           style="font-style:normal;font-variant:normal;font-weight:normal;font-stretch:normal;font-size:medium;line-height:125%;font-family:'Noto Sans';-inkscape-font-specification:'Noto Sans, Normal';text-align:start;letter-spacing:-6px;word-spacing:0px;writing-mode:lr-tb;text-anchor:start;fill:#ffffff;fill-opacity:1;stroke:none;stroke-width:1px;stroke-linecap:butt;stroke-linejoin:miter;stroke-opacity:1"
           d="m 1953.9357,678.81617 q 0,12.025 3.575,16.9 3.575,4.55 13.325,4.55 6.175,0 10.4,-0.65 4.55,-0.975 11.05,-3.575 l -3.9,27.95 q -11.05,5.525 -26.975,5.525 -21.775,0 -32.175,-11.05 -10.075,-11.05 -10.075,-34.775 l 0,-193.05 34.775,0 0,188.175 z" />
        <path
           inkscape:connector-curvature="0"
           id="path5157"
           style="font-style:normal;font-variant:normal;font-weight:normal;font-stretch:normal;font-size:medium;line-height:125%;font-family:'Noto Sans';-inkscape-font-specification:'Noto Sans, Normal';text-align:start;letter-spacing:-6px;word-spacing:0px;writing-mode:lr-tb;text-anchor:start;fill:#ffffff;fill-opacity:1;stroke:none;stroke-width:1px;stroke-linecap:butt;stroke-linejoin:miter;stroke-opacity:1"
           d="m 2033.2482,536.46617 q -11.05,0 -17.225,-5.525 -6.175,-5.85 -6.175,-16.25 0,-10.4 6.175,-15.925 6.175,-5.525 17.225,-5.525 11.05,0 16.9,5.525 6.175,5.525 6.175,15.925 0,10.4 -6.175,16.25 -5.85,5.525 -16.9,5.525 z m 17.225,189.8 -34.775,0 0,-162.5 34.775,0 0,162.5 z" />
        <path
           inkscape:connector-curvature="0"
           id="path5159"
           style="font-style:normal;font-variant:normal;font-weight:normal;font-stretch:normal;font-size:medium;line-height:125%;font-family:'Noto Sans';-inkscape-font-specification:'Noto Sans, Normal';text-align:start;letter-spacing:-6px;word-spacing:0px;writing-mode:lr-tb;text-anchor:start;fill:#ffffff;fill-opacity:1;stroke:none;stroke-width:1px;stroke-linecap:butt;stroke-linejoin:miter;stroke-opacity:1"
           d="m 2203.8654,715.54117 q -7.8,6.5 -19.175,10.4 -11.05,3.575 -24.05,3.575 -22.425,0 -36.075,-11.05 -13.325,-11.375 -13.65,-35.1 l 0,-92.3 -30.875,0 0,-27.3 30.875,0 0,-38.025 34.775,-9.75 0,47.775 56.875,0 0,27.3 -56.875,0 0,86.45 q 0,11.7 6.175,17.55 6.5,5.525 17.55,5.525 14.95,0 26.325,-10.4 l 8.125,25.35 z" />
        <g
           id="g5236"
           transform="translate(4,0)">
          <path
             d="m 2312.0109,745.44116 q -10.725,27.95 -24.375,39.325 -13.65,11.375 -35.75,11.375 -12.675,0 -22.1,-3.25 -9.1,-2.925 -16.25,-9.75 l 10.075,-26.65 q 9.75,11.7 26.65,11.7 9.75,0 16.25,-5.2 6.825,-4.875 12.025,-18.2 l 7.15,-17.55 -16.9,-40.3 -50.7,-123.17499 39,0 35.75,102.04999 9.425,30.55 11.05,-33.475 33.8,-99.12499 36.075,0 -71.175,181.67499 z"
             style="font-style:normal;font-variant:normal;font-weight:normal;font-stretch:normal;font-size:medium;line-height:125%;font-family:'Noto Sans';-inkscape-font-specification:'Noto Sans, Normal';text-align:start;letter-spacing:-6px;word-spacing:0px;writing-mode:lr-tb;text-anchor:start;fill:#ffffff;fill-opacity:1;stroke:none;stroke-width:1px;stroke-linecap:butt;stroke-linejoin:miter;stroke-opacity:1"
             id="path5220"
             inkscape:connector-curvature="0" />
          <rect
             y="748.5976"
             x="2209.1636"
             height="50.426552"
             width="42.307198"
             id="rect5120"
             style="color:#000000;display:inline;overflow:visible;visibility:visible;opacity:1;fill:#087649;fill-opacity:1;fill-rule:nonzero;stroke:none;stroke-width:20;stroke-linecap:butt;stroke-linejoin:miter;stroke-miterlimit:4;stroke-dasharray:none;stroke-dashoffset:0;stroke-opacity:1;marker:none;enable-background:accumulate" />
        </g>
      </g>
      <g
         id="g5520">
        <g
           id="g5381"
           style="fill:#ffffff"
           transform="matrix(5.2998573,0,0,5.2998573,-8377.6465,-4283.4443)">
          <path
             sodipodi:nodetypes="ccccccccccccccccc"
             inkscape:connector-curvature="0"
             id="path5371"
             d="m 1757.9794,998.73106 c 0.474,-0.58736 0.9246,-1.19481 1.6069,-1.60366 0.7056,0.0886 1.6343,0.0972 2.1009,0.25031 0.4791,0.0478 1.9356,0.76 2.8761,1.3726 l -0.019,-1.13338 c -0.9244,-0.36431 -2.088,-0.50937 -2.683,-1.17556 -0.052,-1.50457 0.7483,-2.4003 1.2952,-3.47702 l -1.1796,0.20434 c -0.097,1.02937 -0.5392,1.60168 -0.8828,2.49386 -0.5061,0.21666 -0.8765,0.11818 -1.1987,-0.0925 -0.2373,-0.71337 -0.4497,-1.4303 -0.4741,-2.17409 l -0.5744,0.40476 c 0.3523,0.64027 0.4077,1.33003 0.3931,2.03145 -0.5216,-0.45721 -0.8353,-0.42942 -0.9867,-0.023 -0.1317,0.48207 0.3184,0.62473 0.9212,0.67835 -0.4057,0.55688 -0.7165,1.18272 -1.4417,1.50721 z"
             style="opacity:1;fill:#ffffff;fill-rule:evenodd;stroke:none;stroke-width:1px;stroke-linecap:butt;stroke-linejoin:miter;stroke-opacity:1" />
          <path
             style="opacity:1;fill:#ffffff;fill-rule:evenodd;stroke:none;stroke-width:1px;stroke-linecap:butt;stroke-linejoin:miter;stroke-opacity:1"
             d="m 1763.1809,991.68829 c 0.7129,0.24785 1.4368,0.4669 2.0521,0.9711 0.1552,0.69405 0.4602,1.57115 0.4736,2.06205 0.1166,0.46712 -0.062,2.07853 -0.3209,3.17064 l 1.0604,-0.40055 c 0.031,-0.99311 -0.2253,-2.13738 0.2006,-2.92234 1.3987,-0.55694 2.5121,-0.1061 3.7102,0.0452 l -0.5906,-1.04135 c -1.0017,0.25625 -1.6897,0.0332 -2.6455,0.011 -0.3748,-0.40323 -0.4072,-0.78513 -0.3176,-1.15955 0.5913,-0.46421 1.1944,-0.90619 1.8863,-1.18028 l -0.5749,-0.40402 c -0.4838,0.54778 -1.1143,0.83282 -1.7794,1.05589 0.2543,-0.64534 0.1222,-0.93124 -0.3115,-0.93653 -0.4982,0.0388 -0.4805,0.51063 -0.3275,1.09613 -0.6611,-0.19385 -1.3552,-0.27509 -1.9055,-0.84816 z"
             id="path5373"
             inkscape:connector-curvature="0"
             sodipodi:nodetypes="ccccccccccccccccc" />
          <path
             sodipodi:nodetypes="ccccccccccccccccc"
             inkscape:connector-curvature="0"
             id="path5375"
             d="m 1771.5738,994.42242 c -0.022,0.75451 -0.012,1.51078 -0.3075,2.24935 -0.6149,0.35714 -1.3594,0.91237 -1.8234,1.07313 -0.4103,0.25189 -2.0005,0.56748 -3.12,0.6496 l 0.7016,0.89039 c 0.9562,-0.26998 1.9701,-0.85902 2.847,-0.68951 0.9525,1.16581 0.8579,2.36342 1.0746,3.55152 l 0.8149,-0.877 c -0.5463,-0.8779 -0.5413,-1.6011 -0.8036,-2.52062 0.2714,-0.47885 0.6258,-0.62485 1.0099,-0.65226 0.6208,0.42389 1.224,0.86568 1.6938,1.44293 l 0.212,-0.67001 c -0.6681,-0.2962 -1.13,-0.81147 -1.5431,-1.37842 0.692,0.0479 0.9248,-0.1642 0.7991,-0.57931 -0.1874,-0.46323 -0.6317,-0.30426 -1.1438,0.0182 -0.015,-0.68881 -0.1462,-1.37508 0.2344,-2.07255 z"
             style="opacity:1;fill:#ffffff;fill-rule:evenodd;stroke:none;stroke-width:1px;stroke-linecap:butt;stroke-linejoin:miter;stroke-opacity:1" />
          <path
             style="opacity:1;fill:#ffffff;fill-rule:evenodd;stroke:none;stroke-width:1px;stroke-linecap:butt;stroke-linejoin:miter;stroke-opacity:1"
             d="m 1771.4838,1003.4592 c -0.7328,0.181 -1.4585,0.3943 -2.2494,0.3079 -0.5091,-0.4964 -1.244,-1.0644 -1.5233,-1.4682 -0.3528,-0.3275 -1.084,-1.7746 -1.4638,-2.83081 l -0.6692,0.91491 c 0.5168,0.8485 1.3566,1.6669 1.4288,2.5572 -0.8672,1.2306 -2.0462,1.4612 -3.1324,1.9889 l 1.0637,0.5495 c 0.6989,-0.762 1.3969,-0.9515 2.2121,-1.4511 0.5342,0.1328 0.77,0.435 0.8996,0.7976 -0.2416,0.7118 -0.5051,1.4115 -0.935,2.0192 l 0.7023,0.024 c 0.1058,-0.7231 0.4782,-1.3064 0.9134,-1.8566 0.1392,0.6795 0.4065,0.8466 0.7726,0.6141 0.3958,-0.3049 0.1235,-0.6902 -0.3246,-1.0969 0.6596,-0.1991 1.2853,-0.5102 2.0593,-0.3308 z"
             id="path5377"
             inkscape:connector-curvature="0"
             sodipodi:nodetypes="ccccccccccccccccc" />
          <path
             sodipodi:nodetypes="ccccccccccccccccc"
             inkscape:connector-curvature="0"
             id="path5379"
             d="m 1763.0404,1005.875 c -0.4012,-0.6394 -0.8308,-1.2619 -0.9963,-2.0401 0.3122,-0.6389 0.6218,-1.5146 0.9179,-1.9062 0.2007,-0.4376 1.3463,-1.5849 2.2307,-2.27609 l -1.0784,-0.34933 c -0.6442,0.75632 -1.1587,1.81012 -1.9817,2.15722 -1.4403,-0.4386 -2.0281,-1.4863 -2.8692,-2.35284 l -0.1886,1.18224 c 0.9425,0.4254 1.3408,1.0291 2.0704,1.647 0.041,0.5489 -0.1725,0.8675 -0.476,1.104 -0.7517,-0.01 -1.4988,-0.038 -2.2105,-0.2558 l 0.197,0.6746 c 0.7198,-0.1257 1.3904,0.045 2.0491,0.2866 -0.6018,0.3447 -0.6769,0.6509 -0.3415,0.9259 0.4134,0.2806 0.6942,-0.099 0.9402,-0.6515 0.3955,0.5641 0.8868,1.0611 0.9585,1.8523 z"
             style="opacity:1;fill:#ffffff;fill-rule:evenodd;stroke:none;stroke-width:1px;stroke-linecap:butt;stroke-linejoin:miter;stroke-opacity:1" />
        </g>
        <g
           style="font-style:normal;font-variant:normal;font-weight:normal;font-stretch:normal;font-size:20px;line-height:125%;font-family:'Noto Sans';-inkscape-font-specification:'Noto Sans, Normal';text-align:start;letter-spacing:1.21000004px;word-spacing:0px;writing-mode:lr-tb;text-anchor:start;fill:#000000;fill-opacity:1;stroke:none;stroke-width:1px;stroke-linecap:butt;stroke-linejoin:miter;stroke-opacity:1"
           id="text5265">
          <path
             d="m 1076.9839,995.56123 q 4.3125,0 7.245,2.0125 2.99,1.955 4.6575,5.63497 l -4.37,2.07 q -1.84,-5.69247 -7.6475,-5.69247 -4.3125,0 -6.785,2.93247 -2.415,2.875 -2.415,7.9925 0,5.1175 2.415,8.05 2.4725,2.875 6.785,2.875 3.335,0 5.3475,-1.495 2.07,-1.5525 2.7025,-4.4275 l 4.255,1.495 q -1.495,4.025 -4.6,6.2675 -3.105,2.185 -7.59,2.185 -6.4975,0 -10.235,-3.9675 -3.68,-3.9675 -3.68,-10.9825 0,-7.015 3.68,-10.98247 3.7375,-3.9675 10.235,-3.9675 z"
             style="font-style:normal;font-variant:normal;font-weight:normal;font-stretch:normal;font-size:57.5px;font-family:'Work Sans';-inkscape-font-specification:'Work Sans';letter-spacing:-2px;fill:#ffffff"
             id="path5484" />
          <path
             d="m 1109.28,995.56123 q 4.8875,0 8.05,2.8175 3.1625,2.81747 3.1625,8.10747 l 0,18.4 -4.6,0 0,-16.79 q 0,-4.485 -1.955,-6.4975 -1.8975,-2.01247 -5.1175,-2.01247 -2.2425,0 -4.3125,1.03497 -2.0125,1.035 -3.335,3.335 -1.265,2.2425 -1.265,5.6925 l 0,15.2375 -4.6,0 0,-41.97497 4.6,0 0,17.53747 q 1.4375,-2.47247 3.8525,-3.67997 2.4725,-1.2075 5.52,-1.2075 z"
             style="font-style:normal;font-variant:normal;font-weight:normal;font-stretch:normal;font-size:57.5px;font-family:'Work Sans';-inkscape-font-specification:'Work Sans';letter-spacing:-2px;fill:#ffffff"
             id="path5486" />
          <path
             d="m 1141.0405,995.56123 q 6.4975,0 10.1775,3.9675 3.7375,3.96747 3.7375,10.98247 0,7.015 -3.7375,10.9825 -3.68,3.9675 -10.1775,3.9675 -6.4975,0 -10.235,-3.9675 -3.68,-3.9675 -3.68,-10.9825 0,-7.015 3.68,-10.98247 3.7375,-3.9675 10.235,-3.9675 z m 0,3.9675 q -4.37,0 -6.8425,2.93247 -2.4725,2.9325 -2.4725,8.05 0,5.1175 2.4725,8.05 2.4725,2.9325 6.8425,2.9325 4.37,0 6.8425,-2.9325 2.4725,-2.9325 2.4725,-8.05 0,-5.1175 -2.4725,-8.05 -2.4725,-2.93247 -6.8425,-2.93247 z"
             style="font-style:normal;font-variant:normal;font-weight:normal;font-stretch:normal;font-size:57.5px;font-family:'Work Sans';-inkscape-font-specification:'Work Sans';letter-spacing:-2px;fill:#ffffff"
             id="path5488" />
          <path
             d="m 1173.9673,995.56123 q 6.4975,0 10.1775,3.9675 3.7375,3.96747 3.7375,10.98247 0,7.015 -3.7375,10.9825 -3.68,3.9675 -10.1775,3.9675 -6.4975,0 -10.235,-3.9675 -3.68,-3.9675 -3.68,-10.9825 0,-7.015 3.68,-10.98247 3.7375,-3.9675 10.235,-3.9675 z m 0,3.9675 q -4.37,0 -6.8425,2.93247 -2.4725,2.9325 -2.4725,8.05 0,5.1175 2.4725,8.05 2.4725,2.9325 6.8425,2.9325 4.37,0 6.8425,-2.9325 2.4725,-2.9325 2.4725,-8.05 0,-5.1175 -2.4725,-8.05 -2.4725,-2.93247 -6.8425,-2.93247 z"
             style="font-style:normal;font-variant:normal;font-weight:normal;font-stretch:normal;font-size:57.5px;font-family:'Work Sans';-inkscape-font-specification:'Work Sans';letter-spacing:-2px;fill:#ffffff"
             id="path5490" />
          <path
             d="m 1204.5366,1025.4612 q -4.14,0 -7.475,-1.61 -3.335,-1.6675 -4.8875,-4.8875 l 3.7375,-2.5875 q 0.9775,2.53 3.3925,3.795 2.415,1.265 5.6925,1.265 3.3925,0 5.175,-1.2075 1.7825,-1.2075 1.7825,-3.0475 0,-1.6675 -1.6675,-2.645 -1.6675,-1.035 -5.865,-1.7825 -4.14,-0.7475 -6.555,-1.7825 -2.415,-1.0925 -3.5075,-2.7025 -1.0925,-1.6675 -1.0925,-4.0825 0,-2.3575 1.38,-4.31247 1.38,-1.955 3.9675,-3.105 2.5875,-1.2075 5.98,-1.2075 4.6,0 7.36,1.725 2.8175,1.6675 4.025,5.17497 l -3.91,2.3 q -0.92,-2.76 -2.8175,-3.9675 -1.84,-1.20747 -4.6575,-1.20747 -2.8175,0 -4.7725,1.26497 -1.955,1.265 -1.955,2.9325 0,1.8975 1.6675,2.9325 1.725,1.035 6.095,1.7825 5.98,0.9775 8.4525,2.9325 2.4725,1.955 2.4725,5.52 0,2.4725 -1.495,4.4275 -1.4375,1.8975 -4.1975,2.99 -2.7025,1.0925 -6.325,1.0925 z"
             style="font-style:normal;font-variant:normal;font-weight:normal;font-stretch:normal;font-size:57.5px;font-family:'Work Sans';-inkscape-font-specification:'Work Sans';letter-spacing:-2px;fill:#ffffff"
             id="path5492" />
          <path
             d="m 1247.7513,1009.0162 q 0,1.61 -0.23,3.22 l -21.6775,0 q 0.4025,4.37 2.875,6.785 2.53,2.415 6.4975,2.415 3.1625,0 5.2325,-1.0925 2.1275,-1.0925 2.875,-3.1625 l 3.8525,2.0125 q -1.725,3.0475 -4.6,4.6575 -2.875,1.61 -7.36,1.61 -6.4975,0 -10.235,-3.9675 -3.68,-3.9675 -3.68,-10.9825 0,-7.015 3.5075,-10.98247 3.565,-3.9675 10.0625,-3.9675 4.025,0 6.9575,1.7825 2.9325,1.7825 4.4275,4.82997 1.495,3.0475 1.495,6.8425 z m -12.88,-9.42997 q -3.795,0 -6.1525,2.24247 -2.3,2.2425 -2.8175,6.325 l 17.4225,0 q -0.46,-4.025 -2.645,-6.2675 -2.185,-2.29997 -5.8075,-2.29997 z"
             style="font-style:normal;font-variant:normal;font-weight:normal;font-stretch:normal;font-size:57.5px;font-family:'Work Sans';-inkscape-font-specification:'Work Sans';letter-spacing:-2px;fill:#ffffff"
             id="path5494" />
          <path
             d="m 1266.5708,995.56123 q 4.3125,0 7.245,2.0125 2.99,1.955 4.6575,5.63497 l -4.37,2.07 q -1.84,-5.69247 -7.6475,-5.69247 -4.3125,0 -6.785,2.93247 -2.415,2.875 -2.415,7.9925 0,5.1175 2.415,8.05 2.4725,2.875 6.785,2.875 3.335,0 5.3475,-1.495 2.07,-1.5525 2.7025,-4.4275 l 4.255,1.495 q -1.495,4.025 -4.6,6.2675 -3.105,2.185 -7.59,2.185 -6.4975,0 -10.235,-3.9675 -3.68,-3.9675 -3.68,-10.9825 0,-7.015 3.68,-10.98247 3.7375,-3.9675 10.235,-3.9675 z"
             style="font-style:normal;font-variant:normal;font-weight:normal;font-stretch:normal;font-size:57.5px;font-family:'Work Sans';-inkscape-font-specification:'Work Sans';letter-spacing:-2px;fill:#ffffff"
             id="path5496" />
          <path
             d="m 1287.1944,990.61623 q -1.5525,0 -2.53,-0.92 -0.92,-0.9775 -0.92,-2.53 0,-1.5525 0.92,-2.4725 0.9775,-0.9775 2.53,-0.9775 1.5525,0 2.4725,0.9775 0.9775,0.92 0.9775,2.4725 0,1.5525 -0.9775,2.53 -0.92,0.92 -2.4725,0.92 z m 2.3,34.26997 -4.6,0 0,-28.74997 4.6,0 0,28.74997 z"
             style="font-style:normal;font-variant:normal;font-weight:normal;font-stretch:normal;font-size:57.5px;font-family:'Work Sans';-inkscape-font-specification:'Work Sans';letter-spacing:-2px;fill:#ffffff"
             id="path5498" />
          <path
             d="m 1322.0303,996.13623 -11.96,28.74997 -4.6,0 -11.96,-28.74997 5.2325,0 9.085,24.09247 9.3725,-24.09247 4.83,0 z"
             style="font-style:normal;font-variant:normal;font-weight:normal;font-stretch:normal;font-size:57.5px;font-family:'Work Sans';-inkscape-font-specification:'Work Sans';letter-spacing:-2px;fill:#ffffff"
             id="path5500" />
          <path
             d="m 1328.3409,990.61623 q -1.5525,0 -2.53,-0.92 -0.92,-0.9775 -0.92,-2.53 0,-1.5525 0.92,-2.4725 0.9775,-0.9775 2.53,-0.9775 1.5525,0 2.4725,0.9775 0.9775,0.92 0.9775,2.4725 0,1.5525 -0.9775,2.53 -0.92,0.92 -2.4725,0.92 z m 2.3,34.26997 -4.6,0 0,-28.74997 4.6,0 0,28.74997 z"
             style="font-style:normal;font-variant:normal;font-weight:normal;font-stretch:normal;font-size:57.5px;font-family:'Work Sans';-inkscape-font-specification:'Work Sans';letter-spacing:-2px;fill:#ffffff"
             id="path5502" />
          <path
             d="m 1343.6843,1017.1812 q 0,2.185 0.6325,3.0475 0.69,0.805 2.4725,0.805 1.2075,0 2.07,-0.1725 0.92,-0.1725 2.1275,-0.6325 l -0.7475,4.4275 q -1.8975,0.805 -4.255,0.805 -3.5075,0 -5.2325,-1.8975 -1.6675,-1.8975 -1.6675,-5.8075 l 0,-34.84497 4.6,0 0,34.26997 z"
             style="font-style:normal;font-variant:normal;font-weight:normal;font-stretch:normal;font-size:57.5px;font-family:'Work Sans';-inkscape-font-specification:'Work Sans';letter-spacing:-2px;fill:#ffffff"
             id="path5504" />
          <path
             d="m 1357.2461,990.61623 q -1.5525,0 -2.53,-0.92 -0.92,-0.9775 -0.92,-2.53 0,-1.5525 0.92,-2.4725 0.9775,-0.9775 2.53,-0.9775 1.5525,0 2.4725,0.9775 0.9775,0.92 0.9775,2.4725 0,1.5525 -0.9775,2.53 -0.92,0.92 -2.4725,0.92 z m 2.3,34.26997 -4.6,0 0,-28.74997 4.6,0 0,28.74997 z"
             style="font-style:normal;font-variant:normal;font-weight:normal;font-stretch:normal;font-size:57.5px;font-family:'Work Sans';-inkscape-font-specification:'Work Sans';letter-spacing:-2px;fill:#ffffff"
             id="path5506" />
          <path
             d="m 1385.8146,1022.8737 q -2.875,2.5875 -7.4175,2.5875 -3.5075,0 -5.75,-1.8975 -2.185,-1.8975 -2.2425,-5.8075 l 0,-17.6525 -5.75,0 0,-3.96747 5.75,0 0,-6.9 4.6,-1.265 0,8.165 10.6375,0 0,3.96747 -10.6375,0 0,16.8475 q 0,2.07 1.15,3.1625 1.2075,1.035 3.1625,1.035 2.76,0 4.8875,-2.1275 l 1.61,3.8525 z"
             style="font-style:normal;font-variant:normal;font-weight:normal;font-stretch:normal;font-size:57.5px;font-family:'Work Sans';-inkscape-font-specification:'Work Sans';letter-spacing:-2px;fill:#ffffff"
             id="path5508" />
          <path
             d="m 1401.2901,1029.7162 q -1.6675,4.14 -3.7375,5.8075 -2.07,1.725 -5.3475,1.725 -2.185,0 -3.68,-0.575 -1.4375,-0.575 -2.645,-1.84 l 1.61,-3.91 q 1.6675,2.3 4.6575,2.3 1.6675,0 2.9325,-1.035 1.3225,-0.9775 2.3,-3.6225 l 1.495,-3.7375 -12.0175,-28.69247 5.2325,0 7.1875,18.74497 1.7825,5.1175 2.07,-5.6925 6.7275,-18.16997 4.945,0 -13.5125,33.57997 z"
             style="font-style:normal;font-variant:normal;font-weight:normal;font-stretch:normal;font-size:57.5px;font-family:'Work Sans';-inkscape-font-specification:'Work Sans';letter-spacing:-2px;fill:#ffffff"
             id="path5510" />
          <path
             d="m 1417.169,1017.9862 q 1.6675,0 2.7025,1.035 1.035,1.035 1.035,2.7025 0,1.6675 -1.035,2.7025 -1.035,1.035 -2.7025,1.035 -1.6675,0 -2.7025,-1.035 -1.035,-1.035 -1.035,-2.7025 0,-1.6675 1.035,-2.7025 1.035,-1.035 2.7025,-1.035 z"
             style="font-style:normal;font-variant:normal;font-weight:normal;font-stretch:normal;font-size:57.5px;font-family:'Work Sans';-inkscape-font-specification:'Work Sans';letter-spacing:-2px;fill:#ffffff"
             id="path5512" />
          <path
             d="m 1439.1519,995.56123 q 6.4975,0 10.1775,3.9675 3.7375,3.96747 3.7375,10.98247 0,7.015 -3.7375,10.9825 -3.68,3.9675 -10.1775,3.9675 -6.4975,0 -10.235,-3.9675 -3.68,-3.9675 -3.68,-10.9825 0,-7.015 3.68,-10.98247 3.7375,-3.9675 10.235,-3.9675 z m 0,3.9675 q -4.37,0 -6.8425,2.93247 -2.4725,2.9325 -2.4725,8.05 0,5.1175 2.4725,8.05 2.4725,2.9325 6.8425,2.9325 4.37,0 6.8425,-2.9325 2.4725,-2.9325 2.4725,-8.05 0,-5.1175 -2.4725,-8.05 -2.4725,-2.93247 -6.8425,-2.93247 z"
             style="font-style:normal;font-variant:normal;font-weight:normal;font-stretch:normal;font-size:57.5px;font-family:'Work Sans';-inkscape-font-specification:'Work Sans';letter-spacing:-2px;fill:#ffffff"
             id="path5514" />
          <path
             d="m 1473.5161,995.56123 q 2.07,0 3.1625,0.575 l -0.92,4.48497 q -1.38,-0.74747 -3.6225,-0.74747 -1.84,0 -3.6225,1.09247 -1.725,1.035 -2.875,3.22 -1.0925,2.1275 -1.0925,5.175 l 0,15.525 -4.6,0 0,-28.74997 3.7375,0 0.6325,4.71497 q 2.415,-5.28997 9.2,-5.28997 z"
             style="font-style:normal;font-variant:normal;font-weight:normal;font-stretch:normal;font-size:57.5px;font-family:'Work Sans';-inkscape-font-specification:'Work Sans';letter-spacing:-2px;fill:#ffffff"
             id="path5516" />
          <path
             d="m 1496.0004,1021.2062 q 4.0825,0 6.3825,1.84 2.3,1.84 2.3,5.0025 0,2.76 -1.8975,4.83 -1.8975,2.1275 -5.175,3.22 -3.22,1.15 -7.13,1.15 -6.555,0 -9.89,-2.1275 -3.335,-2.07 -3.335,-5.4625 0,-1.955 1.3225,-3.45 1.38,-1.495 3.7375,-2.1275 -1.7825,-0.8625 -2.875,-2.185 -1.035,-1.3225 -1.035,-3.105 0,-2.1275 1.15,-3.5075 1.15,-1.4375 3.1625,-2.1275 -2.07,-1.265 -3.1625,-3.2775 -1.035,-2.07 -1.035,-4.6 0,-2.8175 1.495,-5.0025 1.495,-2.24247 4.1975,-3.44997 2.7025,-1.265 6.095,-1.265 3.22,0 5.865,1.15 1.61,-5.865 8.1075,-5.865 l 1.035,4.025 q -5.635,0 -6.8425,3.1625 1.725,1.3225 2.645,3.16247 0.9775,1.84 0.9775,4.0825 0,2.8175 -1.495,5.06 -1.495,2.185 -4.1975,3.45 -2.7025,1.2075 -6.095,1.2075 -2.53,0 -4.4275,-0.5175 -1.725,0.4025 -2.4725,1.265 -0.7475,0.8625 -0.7475,2.3575 0,1.495 1.035,2.3 1.035,0.805 2.76,0.805 l 9.545,0 z m -5.6925,-21.90747 q -2.99,0 -5.0025,1.66747 -2.0125,1.6675 -2.0125,4.3125 0,2.645 2.0125,4.3125 2.0125,1.6675 5.0025,1.6675 2.99,0 5.0025,-1.6675 2.0125,-1.6675 2.0125,-4.3125 0,-2.645 -2.0125,-4.3125 -2.0125,-1.66747 -5.0025,-1.66747 z m 0.69,34.09747 q 4.37,0 6.9,-1.4375 2.53,-1.38 2.53,-3.3925 0,-1.6675 -1.3225,-2.53 -1.265,-0.8625 -4.37,-0.8625 l -7.705,0 q -2.645,0 -4.0825,0.92 -1.4375,0.9775 -1.4375,2.645 0,2.185 2.415,3.3925 2.415,1.265 7.0725,1.265 z"
             style="font-style:normal;font-variant:normal;font-weight:normal;font-stretch:normal;font-size:57.5px;font-family:'Work Sans';-inkscape-font-specification:'Work Sans';letter-spacing:-2px;fill:#ffffff"
             id="path5518" />
        </g>
      </g>
    </g>
  </g>
</svg>
