<?xml version="1.0" encoding="UTF-8" standalone="no"?>
<!-- Created with Inkscape (http://www.inkscape.org/) -->

<svg
   xmlns:dc="http://purl.org/dc/elements/1.1/"
   xmlns:cc="http://creativecommons.org/ns#"
   xmlns:rdf="http://www.w3.org/1999/02/22-rdf-syntax-ns#"
   xmlns:svg="http://www.w3.org/2000/svg"
   xmlns="http://www.w3.org/2000/svg"
   xmlns:sodipodi="http://sodipodi.sourceforge.net/DTD/sodipodi-0.dtd"
   xmlns:inkscape="http://www.inkscape.org/namespaces/inkscape"
   width="2560"
   height="1440"
   viewBox="0 0 2560 1440"
   id="svg2"
   version="1.1"
   inkscape:version="0.91 r13725"
   sodipodi:docname="front-door-sign.svg">
  <defs
     id="defs4" />
  <sodipodi:namedview
     id="base"
     pagecolor="#ffffff"
     bordercolor="#666666"
     borderopacity="1.0"
     inkscape:pageopacity="0.0"
     inkscape:pageshadow="2"
     inkscape:zoom="0.38138853"
     inkscape:cx="1129.9095"
     inkscape:cy="476.02277"
     inkscape:document-units="px"
     inkscape:current-layer="layer4"
     showgrid="false"
     inkscape:window-width="1920"
     inkscape:window-height="1014"
     inkscape:window-x="0"
     inkscape:window-y="27"
     inkscape:window-maximized="1"
     showguides="false"
     inkscape:guide-bbox="true"
     units="px">
    <sodipodi:guide
       position="84.000001,420.00001"
       orientation="1,0"
       id="guide5084" />
    <sodipodi:guide
       position="504,428.00001"
       orientation="1,0"
       id="guide5086" />
  </sodipodi:namedview>
  <metadata
     id="metadata7">
    <rdf:RDF>
      <cc:Work
         rdf:about="">
        <dc:format>image/svg+xml</dc:format>
        <dc:type
           rdf:resource="http://purl.org/dc/dcmitype/StillImage" />
        <dc:title></dc:title>
      </cc:Work>
    </rdf:RDF>
  </metadata>
  <g
     inkscape:label="base white"
     inkscape:groupmode="layer"
     id="layer1"
     style="display:inline"
     transform="translate(0,387.6376)" />
  <g
     id="g4242"
     inkscape:groupmode="layer"
     inkscape:label="blue base"
     style="display:inline"
     transform="translate(0,387.6376)" />
  <g
     inkscape:label="text base"
     inkscape:groupmode="layer"
     id="g4246"
     style="display:inline"
     transform="translate(0,387.6376)" />
  <g
     inkscape:groupmode="layer"
     id="layer3"
     inkscape:label="arrow"
     transform="translate(0,387.6376)" />
  <g
     inkscape:groupmode="layer"
     id="layer4"
     inkscape:label="text"
     transform="translate(0,387.6376)">
    <g
       id="g4312">
      <rect
         rx="183.30347"
         ry="177.40157"
         y="-365.21277"
         x="581.67651"
         height="1395.1504"
         width="1396.647"
         id="rect4136"
         style="color:#000000;display:inline;overflow:visible;visibility:visible;opacity:1;fill:#ffffff;fill-opacity:1;fill-rule:nonzero;stroke:#1d1f1f;stroke-width:4.84964132;stroke-linecap:butt;stroke-linejoin:miter;stroke-miterlimit:4;stroke-dasharray:none;stroke-dashoffset:0;stroke-opacity:1;marker:none;enable-background:accumulate" />
      <rect
         style="color:#000000;display:inline;overflow:visible;visibility:visible;opacity:1;fill:#1d1f1f;fill-opacity:1;fill-rule:nonzero;stroke:none;stroke-width:8;stroke-linecap:butt;stroke-linejoin:miter;stroke-miterlimit:4;stroke-dasharray:none;stroke-dashoffset:0;stroke-opacity:1;marker:none;enable-background:accumulate"
         id="rect4244"
         width="1310.7567"
         height="1309.2937"
         x="623.44458"
         y="-321.12421"
         ry="135.83115"
         rx="133.38107" />
      <rect
         rx="83.244995"
         ry="92.103844"
         y="-276.33179"
         x="667.35901"
         height="1222.1069"
         width="1223.603"
         id="rect4248"
         style="color:#000000;display:inline;overflow:visible;visibility:visible;opacity:1;fill:#ffffff;fill-opacity:1;fill-rule:nonzero;stroke:none;stroke-width:8;stroke-linecap:butt;stroke-linejoin:miter;stroke-miterlimit:4;stroke-dasharray:none;stroke-dashoffset:0;stroke-opacity:1;marker:none;enable-background:accumulate" />
      <g
         transform="matrix(2.4248206,0,0,2.4248206,568.73309,-1472.6527)"
         id="g5080">
        <rect
           style="color:#000000;display:inline;overflow:visible;visibility:visible;opacity:1;fill:#1d1f1f;fill-opacity:1;fill-rule:nonzero;stroke:none;stroke-width:8;stroke-linecap:butt;stroke-linejoin:miter;stroke-miterlimit:4;stroke-dasharray:none;stroke-dashoffset:0;stroke-opacity:1;marker:none;enable-background:accumulate"
           id="rect4251"
           width="228.22694"
           height="28.72345"
           x="153.90071"
           y="897.01459" />
        <path
           transform="matrix(1.4925482,0,0,1.7113751,-210.68156,-651.37523)"
           style="color:#000000;display:inline;overflow:visible;visibility:visible;opacity:1;fill:#1d1f1f;fill-opacity:1;fill-rule:nonzero;stroke:none;stroke-width:8;stroke-linecap:butt;stroke-linejoin:miter;stroke-miterlimit:4;stroke-dasharray:none;stroke-dashoffset:0;stroke-opacity:1;marker:none;enable-background:accumulate"
           inkscape:transform-center-x="-9.987383"
           inkscape:transform-center-y="1.982353"
           d="m 430.74382,913.27865 -47.84036,26.68277 6.77105,-26.80594 -6.62885,-26.80595 z"
           id="path4253"
           inkscape:connector-curvature="0"
           sodipodi:nodetypes="ccccc" />
      </g>
      <rect
         y="-121.1494"
         x="667.93958"
         height="718.461"
         width="1220.3062"
         id="rect4282"
         style="color:#000000;display:inline;overflow:visible;visibility:visible;opacity:0.34000017;fill:none;fill-opacity:1;fill-rule:nonzero;stroke:none;stroke-width:8;stroke-linecap:butt;stroke-linejoin:miter;stroke-miterlimit:4;stroke-dasharray:none;stroke-dashoffset:0;stroke-opacity:1;marker:none;enable-background:accumulate" />
      <g
         id="g4270">
        <g
           style="font-style:normal;font-variant:normal;font-weight:normal;font-stretch:normal;font-size:48.49641037px;line-height:125%;font-family:'Noto Sans';-inkscape-font-specification:'Noto Sans, Normal';text-align:start;letter-spacing:0px;word-spacing:0px;writing-mode:lr-tb;text-anchor:start;fill:#1d1f1f;fill-opacity:1;stroke:none;stroke-width:1px;stroke-linecap:butt;stroke-linejoin:miter;stroke-opacity:1"
           id="flowRoot4292">
          <path
             d="m 818.29913,36.171267 q 18.81054,0 29.71011,9.668972 11.07537,9.668973 11.07537,26.545725 0,16.876752 -11.07537,26.545724 -10.89957,9.493172 -29.71011,9.493172 l -25.84253,0 0,43.77408 -18.81055,0 0,-116.027673 44.65308,0 z m -2.98859,56.25584 q 12.30596,0 18.28314,-4.922386 5.97719,-5.098186 5.97719,-15.118757 0,-20.216943 -24.26033,-20.216943 l -22.85394,0 0,40.258086 22.85394,0 z"
             style="font-style:normal;font-variant:normal;font-weight:500;font-stretch:normal;font-size:109.1169281px;line-height:110.00000238%;font-family:'Work Sans';-inkscape-font-specification:'Work Sans, Medium';text-align:center;letter-spacing:-3.63723087px;writing-mode:lr-tb;text-anchor:middle;fill:#1d1f1f;fill-opacity:1"
             id="path4223" />
          <path
             d="m 963.02844,136.02538 0,16.17356 -82.80157,0 0,-116.027673 18.81055,0 0,99.854113 63.99102,0 z"
             style="font-style:normal;font-variant:normal;font-weight:500;font-stretch:normal;font-size:175.79949951px;line-height:110.00000238%;font-family:'Work Sans';-inkscape-font-specification:'Work Sans, Medium';text-align:center;letter-spacing:-3.63723087px;writing-mode:lr-tb;text-anchor:middle;fill:#1d1f1f;fill-opacity:1"
             id="path4225" />
          <path
             d="m 1068.494,136.02538 0,16.17356 -86.49333,0 0,-116.027673 84.03213,0 0,16.173554 -65.2216,0 0,33.401905 50.9819,0 0,15.821954 -50.9819,0 0,34.4567 67.6828,0 z"
             style="font-style:normal;font-variant:normal;font-weight:500;font-stretch:normal;font-size:175.79949951px;line-height:110.00000238%;font-family:'Work Sans';-inkscape-font-specification:'Work Sans, Medium';text-align:center;letter-spacing:-3.63723087px;writing-mode:lr-tb;text-anchor:middle;fill:#1d1f1f;fill-opacity:1"
             id="path4227" />
          <path
             d="m 1155.8715,121.78562 -48.8723,0 -11.0753,30.41332 -19.338,0 43.7741,-116.027673 22.5023,0 43.7741,116.027673 -19.8653,0 -10.8996,-30.41332 z m -5.6256,-15.29455 -13.3608,-37.269497 -5.2739,-16.700953 -0.5274,0 -4.9224,16.349354 -13.7124,37.621096 37.7969,0 z"
             style="font-style:normal;font-variant:normal;font-weight:500;font-stretch:normal;font-size:175.79949951px;line-height:110.00000238%;font-family:'Work Sans';-inkscape-font-specification:'Work Sans, Medium';text-align:center;letter-spacing:-3.63723087px;writing-mode:lr-tb;text-anchor:middle;fill:#1d1f1f;fill-opacity:1"
             id="path4229" />
          <path
             d="m 1241.5844,34.413272 q 15.9977,0 27.2489,5.801383 11.427,5.801384 19.1621,17.75575 l -14.2397,12.833363 q -4.9224,-10.54797 -12.306,-15.294556 -7.3836,-4.746587 -19.6895,-4.746587 -12.1302,0 -18.8106,4.922386 -6.6804,4.746587 -6.6804,12.305965 0,7.03198 6.5046,11.251168 6.5046,4.043389 23.2056,7.03198 15.6461,2.812792 24.7877,7.20778 9.3174,4.219188 13.5365,10.723766 4.2192,6.32879 4.2192,15.82196 0,10.19637 -5.8014,17.93155 -5.8013,7.73517 -16.3493,11.95436 -10.3722,4.04339 -24.0845,4.04339 -35.3357,0 -49.9271,-23.55713 l 13.185,-13.18496 q 5.6256,10.54797 14.4155,15.47035 8.9658,4.92239 22.1508,4.92239 12.4817,0 19.5137,-4.21919 7.2078,-4.39499 7.2078,-12.30597 0,-6.32878 -6.5046,-10.19637 -6.3288,-3.86758 -22.3265,-6.85618 -15.9978,-2.98859 -25.491,-7.383575 -9.4931,-4.394988 -13.8881,-10.899569 -4.2192,-6.504582 -4.2192,-15.821955 0,-9.844772 5.4498,-17.931549 5.4498,-8.086777 15.6461,-12.833364 10.3722,-4.746586 24.0846,-4.746586 z"
             style="font-style:normal;font-variant:normal;font-weight:500;font-stretch:normal;font-size:175.79949951px;line-height:110.00000238%;font-family:'Work Sans';-inkscape-font-specification:'Work Sans, Medium';text-align:center;letter-spacing:-3.63723087px;writing-mode:lr-tb;text-anchor:middle;fill:#1d1f1f;fill-opacity:1"
             id="path4231" />
          <path
             d="m 1397.8505,136.02538 0,16.17356 -86.4933,0 0,-116.027673 84.0321,0 0,16.173554 -65.2216,0 0,33.401905 50.9819,0 0,15.821954 -50.9819,0 0,34.4567 67.6828,0 z"
             style="font-style:normal;font-variant:normal;font-weight:500;font-stretch:normal;font-size:175.79949951px;line-height:110.00000238%;font-family:'Work Sans';-inkscape-font-specification:'Work Sans, Medium';text-align:center;letter-spacing:-3.63723087px;writing-mode:lr-tb;text-anchor:middle;fill:#1d1f1f;fill-opacity:1"
             id="path4233" />
          <path
             d="m 1566.3645,107.72166 q 0,22.85394 -12.1301,34.6325 -12.1302,11.60277 -35.3357,11.60277 -23.2056,0 -35.3357,-11.60277 -12.1302,-11.77856 -12.1302,-34.6325 l 0,-71.550393 18.9864,0 0,69.265003 q 0,16.52515 6.8561,24.43613 7.032,7.73518 21.6234,7.73518 14.5913,0 21.4475,-7.73518 7.032,-7.91098 7.032,-24.43613 l 0,-69.265003 18.9863,0 0,71.550393 z"
             style="font-style:normal;font-variant:normal;font-weight:500;font-stretch:normal;font-size:175.79949951px;line-height:110.00000238%;font-family:'Work Sans';-inkscape-font-specification:'Work Sans, Medium';text-align:center;letter-spacing:-3.63723087px;writing-mode:lr-tb;text-anchor:middle;fill:#1d1f1f;fill-opacity:1"
             id="path4235" />
          <path
             d="m 1635.2886,34.413272 q 15.9977,0 27.2489,5.801383 11.427,5.801384 19.1622,17.75575 l -14.2398,12.833363 q -4.9224,-10.54797 -12.306,-15.294556 -7.3835,-4.746587 -19.6895,-4.746587 -12.1302,0 -18.8106,4.922386 -6.6803,4.746587 -6.6803,12.305965 0,7.03198 6.5045,11.251168 6.5046,4.043389 23.2056,7.03198 15.6461,2.812792 24.7877,7.20778 9.3174,4.219188 13.5366,10.723766 4.2192,6.32879 4.2192,15.82196 0,10.19637 -5.8014,17.93155 -5.8014,7.73517 -16.3494,11.95436 -10.3722,4.04339 -24.0845,4.04339 -35.3357,0 -49.9271,-23.55713 l 13.185,-13.18496 q 5.6256,10.54797 14.4155,15.47035 8.9658,4.92239 22.1508,4.92239 12.4818,0 19.5137,-4.21919 7.2078,-4.39499 7.2078,-12.30597 0,-6.32878 -6.5046,-10.19637 -6.3288,-3.86758 -22.3265,-6.85618 -15.9978,-2.98859 -25.4909,-7.383575 -9.4932,-4.394988 -13.8882,-10.899569 -4.2192,-6.504582 -4.2192,-15.821955 0,-9.844772 5.4498,-17.931549 5.4498,-8.086777 15.6462,-12.833364 10.3721,-4.746586 24.0845,-4.746586 z"
             style="font-style:normal;font-variant:normal;font-weight:500;font-stretch:normal;font-size:175.79949951px;line-height:110.00000238%;font-family:'Work Sans';-inkscape-font-specification:'Work Sans, Medium';text-align:center;letter-spacing:-3.63723087px;writing-mode:lr-tb;text-anchor:middle;fill:#1d1f1f;fill-opacity:1"
             id="path4237" />
          <path
             d="m 1791.5547,136.02538 0,16.17356 -86.4934,0 0,-116.027673 84.0322,0 0,16.173554 -65.2216,0 0,33.401905 50.9818,0 0,15.821954 -50.9818,0 0,34.4567 67.6828,0 z"
             style="font-style:normal;font-variant:normal;font-weight:500;font-stretch:normal;font-size:175.79949951px;line-height:110.00000238%;font-family:'Work Sans';-inkscape-font-specification:'Work Sans, Medium';text-align:center;letter-spacing:-3.63723087px;writing-mode:lr-tb;text-anchor:middle;fill:#1d1f1f;fill-opacity:1"
             id="path4239" />
          <path
             d="m 1053.2446,227.79273 q 16.701,0 29.0069,7.20778 12.4818,7.20778 19.1622,20.74434 6.6803,13.53656 6.6803,31.81971 0,18.28315 -6.6803,31.81971 -6.6804,13.53656 -19.1622,20.74434 -12.3059,7.20778 -29.0069,7.20778 -16.701,0 -29.0069,-7.20778 -12.306,-7.20778 -18.9864,-20.74434 -6.68035,-13.53656 -6.68035,-31.81971 0,-18.28315 6.68035,-31.81971 6.6804,-13.53656 18.9864,-20.74434 12.3059,-7.20778 29.0069,-7.20778 z m 0,16.34935 q -16.3494,0 -25.6667,11.42697 -9.3174,11.42697 -9.3174,31.99551 0,20.56854 9.3174,31.99551 9.3173,11.42696 25.6667,11.42696 16.5252,0 25.8425,-11.42696 9.3174,-11.42697 9.3174,-31.99551 0,-20.56854 -9.3174,-31.99551 -9.3173,-11.42697 -25.8425,-11.42697 z"
             style="font-style:normal;font-variant:normal;font-weight:500;font-stretch:normal;font-size:175.79949951px;line-height:110.00000238%;font-family:'Work Sans';-inkscape-font-specification:'Work Sans, Medium';text-align:center;letter-spacing:-3.63723087px;writing-mode:lr-tb;text-anchor:middle;fill:#1d1f1f;fill-opacity:1"
             id="path4241" />
          <path
             d="m 1214.4551,245.72428 -39.7307,0 0,99.85411 -18.8105,0 0,-99.85411 -39.7307,0 0,-16.17356 98.2719,0 0,16.17356 z"
             style="font-style:normal;font-variant:normal;font-weight:500;font-stretch:normal;font-size:175.79949951px;line-height:110.00000238%;font-family:'Work Sans';-inkscape-font-specification:'Work Sans, Medium';text-align:center;letter-spacing:-3.63723087px;writing-mode:lr-tb;text-anchor:middle;fill:#1d1f1f;fill-opacity:1"
             id="path4243" />
          <path
             d="m 1328.4525,229.55072 0,116.02767 -18.9864,0 0,-50.63025 -57.3106,0 0,50.63025 -18.8106,0 0,-116.02767 18.8106,0 0,49.22386 57.3106,0 0,-49.22386 18.9864,0 z"
             style="font-style:normal;font-variant:normal;font-weight:500;font-stretch:normal;font-size:175.79949951px;line-height:110.00000238%;font-family:'Work Sans';-inkscape-font-specification:'Work Sans, Medium';text-align:center;letter-spacing:-3.63723087px;writing-mode:lr-tb;text-anchor:middle;fill:#1d1f1f;fill-opacity:1"
             id="path4245" />
          <path
             d="m 1445.6472,329.40484 0,16.17355 -86.4934,0 0,-116.02767 84.0322,0 0,16.17356 -65.2216,0 0,33.4019 50.9818,0 0,15.82196 -50.9818,0 0,34.4567 67.6828,0 z"
             style="font-style:normal;font-variant:normal;font-weight:500;font-stretch:normal;font-size:175.79949951px;line-height:110.00000238%;font-family:'Work Sans';-inkscape-font-specification:'Work Sans, Medium';text-align:center;letter-spacing:-3.63723087px;writing-mode:lr-tb;text-anchor:middle;fill:#1d1f1f;fill-opacity:1"
             id="path4247" />
          <path
             d="m 1511.0497,299.16732 -24.9635,0 0,46.41107 -18.6348,0 0,-116.02767 47.2901,0 q 18.8105,0 29.7101,9.31738 10.8996,9.14157 10.8996,25.49092 0,12.48177 -6.5046,20.92014 -6.3288,8.26258 -18.1074,11.77857 l 31.4681,48.52066 -21.6233,0 -29.5343,-46.41107 z m -24.9635,-15.64615 27.0731,0 q 11.427,0 17.0525,-4.57079 5.6256,-4.74658 5.6256,-14.41556 0,-9.66897 -5.6256,-14.23976 -5.6255,-4.74658 -17.0525,-4.74658 l -27.0731,0 0,37.97269 z"
             style="font-style:normal;font-variant:normal;font-weight:500;font-stretch:normal;font-size:175.79949951px;line-height:110.00000238%;font-family:'Work Sans';-inkscape-font-specification:'Work Sans, Medium';text-align:center;letter-spacing:-3.63723087px;writing-mode:lr-tb;text-anchor:middle;fill:#1d1f1f;fill-opacity:1"
             id="path4249" />
          <path
             d="m 754.00046,439.10373 0,33.57771 50.98186,0 0,16.34935 -50.98186,0 0,49.92706 -18.81055,0 0,-116.02767 83.85637,0 0,16.17355 -65.04582,0 z"
             style="font-style:normal;font-variant:normal;font-weight:500;font-stretch:normal;font-size:175.79949951px;line-height:110.00000238%;font-family:'Work Sans';-inkscape-font-specification:'Work Sans, Medium';text-align:center;letter-spacing:-3.63723087px;writing-mode:lr-tb;text-anchor:middle;fill:#1d1f1f;fill-opacity:1"
             id="path4251" />
          <path
             d="m 882.62214,492.54678 -24.96353,0 0,46.41107 -18.63475,0 0,-116.02767 47.29007,0 q 18.81054,0 29.71011,9.31737 10.89957,9.14158 10.89957,25.49093 0,12.48176 -6.50458,20.92014 -6.32878,8.26258 -18.10735,11.77857 l 31.46811,48.52066 -21.62334,0 -29.53431,-46.41107 z m -24.96353,-15.64616 27.07312,0 q 11.42697,0 17.05255,-4.57078 5.62559,-4.74659 5.62559,-14.41556 0,-9.66897 -5.62559,-14.23976 -5.62558,-4.74659 -17.05255,-4.74659 l -27.07312,0 0,37.97269 z"
             style="font-style:normal;font-variant:normal;font-weight:500;font-stretch:normal;font-size:175.79949951px;line-height:110.00000238%;font-family:'Work Sans';-inkscape-font-specification:'Work Sans, Medium';text-align:center;letter-spacing:-3.63723087px;writing-mode:lr-tb;text-anchor:middle;fill:#1d1f1f;fill-opacity:1"
             id="path4254" />
          <path
             d="m 1000.6409,421.17218 q 16.701,0 29.0069,7.20778 12.4818,7.20778 19.1622,20.74434 6.6803,13.53656 6.6803,31.81971 0,18.28315 -6.6803,31.81971 -6.6804,13.53656 -19.1622,20.74434 -12.3059,7.20778 -29.0069,7.20778 -16.70095,0 -29.00692,-7.20778 -12.30596,-7.20778 -18.98635,-20.74434 -6.68038,-13.53656 -6.68038,-31.81971 0,-18.28315 6.68038,-31.81971 6.68039,-13.53656 18.98635,-20.74434 12.30597,-7.20778 29.00692,-7.20778 z m 0,16.34936 q -16.34936,0 -25.66673,11.42696 -9.31737,11.42697 -9.31737,31.99551 0,20.56854 9.31737,31.99551 9.31737,11.42697 25.66673,11.42697 16.5252,0 25.8425,-11.42697 9.3174,-11.42697 9.3174,-31.99551 0,-20.56854 -9.3174,-31.99551 -9.3173,-11.42696 -25.8425,-11.42696 z"
             style="font-style:normal;font-variant:normal;font-weight:500;font-stretch:normal;font-size:175.79949951px;line-height:110.00000238%;font-family:'Work Sans';-inkscape-font-specification:'Work Sans, Medium';text-align:center;letter-spacing:-3.63723087px;writing-mode:lr-tb;text-anchor:middle;fill:#1d1f1f;fill-opacity:1"
             id="path4256" />
          <path
             d="m 1174.7617,538.95785 -22.3266,0 -44.8288,-73.13259 -11.2512,-21.44754 -0.1758,0 0.7032,19.68954 0,74.89059 -17.2284,0 0,-116.02767 22.1508,0 44.6531,72.95679 11.4269,21.62334 0.1758,0 -0.7032,-19.68955 0,-74.89058 17.4042,0 0,116.02767 z"
             style="font-style:normal;font-variant:normal;font-weight:500;font-stretch:normal;font-size:175.79949951px;line-height:110.00000238%;font-family:'Work Sans';-inkscape-font-specification:'Work Sans, Medium';text-align:center;letter-spacing:-3.63723087px;writing-mode:lr-tb;text-anchor:middle;fill:#1d1f1f;fill-opacity:1"
             id="path4258" />
          <path
             d="m 1291.7806,439.10373 -39.7307,0 0,99.85412 -18.8105,0 0,-99.85412 -39.7307,0 0,-16.17355 98.2719,0 0,16.17355 z"
             style="font-style:normal;font-variant:normal;font-weight:500;font-stretch:normal;font-size:175.79949951px;line-height:110.00000238%;font-family:'Work Sans';-inkscape-font-specification:'Work Sans, Medium';text-align:center;letter-spacing:-3.63723087px;writing-mode:lr-tb;text-anchor:middle;fill:#1d1f1f;fill-opacity:1"
             id="path4260" />
          <path
             d="m 1400.8717,422.93018 q 27.4247,0 42.5434,15.11875 15.1188,15.11876 15.1188,42.89508 0,27.77632 -15.1188,42.89508 -15.1187,15.11876 -42.5434,15.11876 l -40.9613,0 0,-116.02767 40.9613,0 z m 0,100.02991 q 18.2831,0 28.1279,-10.89957 9.8447,-11.07536 9.8447,-31.11651 0,-20.04114 -9.8447,-30.94071 -9.8448,-11.07537 -28.1279,-11.07537 l -22.1508,0 0,84.03216 22.1508,0 z"
             style="font-style:normal;font-variant:normal;font-weight:500;font-stretch:normal;font-size:175.79949951px;line-height:110.00000238%;font-family:'Work Sans';-inkscape-font-specification:'Work Sans, Medium';text-align:center;letter-spacing:-3.63723087px;writing-mode:lr-tb;text-anchor:middle;fill:#1d1f1f;fill-opacity:1"
             id="path4262" />
          <path
             d="m 1531.1414,421.17218 q 16.701,0 29.007,7.20778 12.4817,7.20778 19.1621,20.74434 6.6804,13.53656 6.6804,31.81971 0,18.28315 -6.6804,31.81971 -6.6804,13.53656 -19.1621,20.74434 -12.306,7.20778 -29.007,7.20778 -16.7009,0 -29.0069,-7.20778 -12.3059,-7.20778 -18.9863,-20.74434 -6.6804,-13.53656 -6.6804,-31.81971 0,-18.28315 6.6804,-31.81971 6.6804,-13.53656 18.9863,-20.74434 12.306,-7.20778 29.0069,-7.20778 z m 0,16.34936 q -16.3493,0 -25.6667,11.42696 -9.3174,11.42697 -9.3174,31.99551 0,20.56854 9.3174,31.99551 9.3174,11.42697 25.6667,11.42697 16.5252,0 25.8426,-11.42697 9.3173,-11.42697 9.3173,-31.99551 0,-20.56854 -9.3173,-31.99551 -9.3174,-11.42696 -25.8426,-11.42696 z"
             style="font-style:normal;font-variant:normal;font-weight:500;font-stretch:normal;font-size:175.79949951px;line-height:110.00000238%;font-family:'Work Sans';-inkscape-font-specification:'Work Sans, Medium';text-align:center;letter-spacing:-3.63723087px;writing-mode:lr-tb;text-anchor:middle;fill:#1d1f1f;fill-opacity:1"
             id="path4264" />
          <path
             d="m 1658.3238,421.17218 q 16.701,0 29.0069,7.20778 12.4818,7.20778 19.1622,20.74434 6.6804,13.53656 6.6804,31.81971 0,18.28315 -6.6804,31.81971 -6.6804,13.53656 -19.1622,20.74434 -12.3059,7.20778 -29.0069,7.20778 -16.7009,0 -29.0069,-7.20778 -12.306,-7.20778 -18.9863,-20.74434 -6.6804,-13.53656 -6.6804,-31.81971 0,-18.28315 6.6804,-31.81971 6.6803,-13.53656 18.9863,-20.74434 12.306,-7.20778 29.0069,-7.20778 z m 0,16.34936 q -16.3493,0 -25.6667,11.42696 -9.3174,11.42697 -9.3174,31.99551 0,20.56854 9.3174,31.99551 9.3174,11.42697 25.6667,11.42697 16.5252,0 25.8425,-11.42697 9.3174,-11.42697 9.3174,-31.99551 0,-20.56854 -9.3174,-31.99551 -9.3173,-11.42696 -25.8425,-11.42696 z"
             style="font-style:normal;font-variant:normal;font-weight:500;font-stretch:normal;font-size:175.79949951px;line-height:110.00000238%;font-family:'Work Sans';-inkscape-font-specification:'Work Sans, Medium';text-align:center;letter-spacing:-3.63723087px;writing-mode:lr-tb;text-anchor:middle;fill:#1d1f1f;fill-opacity:1"
             id="path4266" />
          <path
             d="m 1780.9353,492.54678 -24.9635,0 0,46.41107 -18.6347,0 0,-116.02767 47.29,0 q 18.8106,0 29.7102,9.31737 10.8995,9.14158 10.8995,25.49093 0,12.48176 -6.5046,20.92014 -6.3287,8.26258 -18.1073,11.77857 l 31.4681,48.52066 -21.6233,0 -29.5344,-46.41107 z m -24.9635,-15.64616 27.0731,0 q 11.427,0 17.0526,-4.57078 5.6256,-4.74659 5.6256,-14.41556 0,-9.66897 -5.6256,-14.23976 -5.6256,-4.74659 -17.0526,-4.74659 l -27.0731,0 0,37.97269 z"
             style="font-style:normal;font-variant:normal;font-weight:500;font-stretch:normal;font-size:175.79949951px;line-height:110.00000238%;font-family:'Work Sans';-inkscape-font-specification:'Work Sans, Medium';text-align:center;letter-spacing:-3.63723087px;writing-mode:lr-tb;text-anchor:middle;fill:#1d1f1f;fill-opacity:1"
             id="path4268" />
        </g>
        <g
           style="font-style:normal;font-variant:normal;font-weight:normal;font-stretch:normal;font-size:48.49641037px;line-height:125%;font-family:'Noto Sans';-inkscape-font-specification:'Noto Sans, Normal';text-align:start;letter-spacing:-3.75847173px;word-spacing:0px;writing-mode:lr-tb;text-anchor:start;fill:#1d1f1f;fill-opacity:1;stroke:none;stroke-width:1px;stroke-linecap:butt;stroke-linejoin:miter;stroke-opacity:1"
           id="text5076">
          <path
             d="m 820.95816,-50.078717 -30.33451,0 -6.87436,18.877229 -12.00286,0 27.17011,-72.017172 13.96697,0 27.17011,72.017172 -12.33021,0 -6.76525,-18.877229 z m -3.49174,-9.493173 -8.29289,-23.132789 -3.27351,-10.366108 -0.32735,0 -3.05527,10.147875 -8.51112,23.351022 23.46014,0 z"
             style="font-style:normal;font-variant:normal;font-weight:500;font-stretch:normal;font-size:109.1169281px;font-family:'Work Sans';-inkscape-font-specification:'Work Sans Medium';letter-spacing:-3.75847173px"
             id="path4192" />
          <path
             d="m 900.35361,-41.240246 0,10.038758 -51.39408,0 0,-72.017172 11.67552,0 0,61.978414 39.71856,0 z"
             style="font-style:normal;font-variant:normal;font-weight:500;font-stretch:normal;font-size:109.1169281px;font-family:'Work Sans';-inkscape-font-specification:'Work Sans Medium';letter-spacing:-3.75847173px"
             id="path4194" />
          <path
             d="m 962.02267,-41.240246 0,10.038758 -51.39408,0 0,-72.017172 11.67552,0 0,61.978414 39.71856,0 z"
             style="font-style:normal;font-variant:normal;font-weight:500;font-stretch:normal;font-size:109.1169281px;font-family:'Work Sans';-inkscape-font-specification:'Work Sans Medium';letter-spacing:-3.75847173px"
             id="path4196" />
          <path
             d="m 1060.8333,-50.296951 q -3.2735,9.711407 -11.239,14.949019 -7.8564,5.237613 -18.5499,5.237613 -10.3661,0 -18.0043,-4.473794 -7.6382,-4.473794 -11.7846,-12.875798 -4.14644,-8.402003 -4.14644,-19.750164 0,-11.34816 4.14644,-19.750164 4.1464,-8.402003 11.7846,-12.875797 7.6382,-4.473794 17.8952,-4.473794 10.8026,0 18.1134,4.473794 7.42,4.473794 10.6935,13.203148 l -11.0208,4.910262 q -2.1824,-6.437899 -6.3288,-9.384056 -4.1465,-3.055274 -10.8026,-3.055274 -10.1479,0 -16.2584,7.201717 -6.0014,7.092601 -6.0014,19.750164 0,12.766681 5.7832,19.859281 5.7831,7.0926 16.0401,7.0926 6.9835,0 11.6756,-3.491741 4.8011,-3.491742 6.8743,-10.256991 l 11.1299,3.709975 z"
             style="font-style:normal;font-variant:normal;font-weight:500;font-stretch:normal;font-size:109.1169281px;font-family:'Work Sans';-inkscape-font-specification:'Work Sans Medium';letter-spacing:-3.75847173px"
             id="path4198" />
          <path
             d="m 1101.8776,-104.30983 q 10.3661,0 18.0043,4.473794 7.7473,4.473794 11.8937,12.875797 4.1465,8.402004 4.1465,19.750164 0,11.348161 -4.1465,19.750164 -4.1464,8.402004 -11.8937,12.875798 -7.6382,4.473794 -18.0043,4.473794 -10.3661,0 -18.0043,-4.473794 -7.6382,-4.473794 -11.7846,-12.875798 -4.1465,-8.402003 -4.1465,-19.750164 0,-11.34816 4.1465,-19.750164 4.1464,-8.402003 11.7846,-12.875797 7.6382,-4.473794 18.0043,-4.473794 z m 0,10.147874 q -10.1479,0 -15.9311,7.0926 -5.7832,7.092601 -5.7832,19.859281 0,12.766681 5.7832,19.859281 5.7832,7.0926 15.9311,7.0926 10.257,0 16.0402,-7.0926 5.7832,-7.0926 5.7832,-19.859281 0,-12.76668 -5.7832,-19.859281 -5.7832,-7.0926 -16.0402,-7.0926 z"
             style="font-style:normal;font-variant:normal;font-weight:500;font-stretch:normal;font-size:109.1169281px;font-family:'Work Sans';-inkscape-font-specification:'Work Sans Medium';letter-spacing:-3.75847173px"
             id="path4200" />
          <path
             d="m 1208.4517,-31.201488 -13.8579,0 -27.8248,-45.392643 -6.9835,-13.312265 -0.1091,0 0.4365,12.221096 0,46.483812 -10.6935,0 0,-72.017172 13.7488,0 27.7157,45.283524 7.0926,13.421382 0.1091,0 -0.4365,-12.221096 0,-46.48381 10.8026,0 0,72.017172 z"
             style="font-style:normal;font-variant:normal;font-weight:500;font-stretch:normal;font-size:109.1169281px;font-family:'Work Sans';-inkscape-font-specification:'Work Sans Medium';letter-spacing:-3.75847173px"
             id="path4202" />
          <path
             d="m 1279.5833,-93.179904 -24.6605,0 0,61.978416 -11.6755,0 0,-61.978416 -24.6604,0 0,-10.038756 60.9964,0 0,10.038756 z"
             style="font-style:normal;font-variant:normal;font-weight:500;font-stretch:normal;font-size:109.1169281px;font-family:'Work Sans';-inkscape-font-specification:'Work Sans Medium';letter-spacing:-3.75847173px"
             id="path4204" />
          <path
             d="m 1316.8681,-60.008358 -15.4946,0 0,28.80687 -11.5664,0 0,-72.017172 29.3524,0 q 11.6755,0 18.4408,5.783196 6.7652,5.67408 6.7652,15.821955 0,7.747302 -4.0373,12.984914 -3.9282,5.128496 -11.239,7.310834 l 19.5319,30.116273 -13.4214,0 -18.3316,-28.80687 z m -15.4946,-9.711406 16.804,0 q 7.0926,0 10.5843,-2.83704 3.4918,-2.946157 3.4918,-8.947588 0,-6.001431 -3.4918,-8.838472 -3.4917,-2.946157 -10.5843,-2.946157 l -16.804,0 0,23.569257 z"
             style="font-style:normal;font-variant:normal;font-weight:500;font-stretch:normal;font-size:109.1169281px;font-family:'Work Sans';-inkscape-font-specification:'Work Sans Medium';letter-spacing:-3.75847173px"
             id="path4206" />
          <path
             d="m 1371.0371,-31.201488 -11.6756,0 0,-72.017172 11.6756,0 0,72.017172 z"
             style="font-style:normal;font-variant:normal;font-weight:500;font-stretch:normal;font-size:109.1169281px;font-family:'Work Sans';-inkscape-font-specification:'Work Sans Medium';letter-spacing:-3.75847173px"
             id="path4208" />
          <path
             d="m 1388.6365,-103.21866 28.3704,0 q 12.6576,0 18.7681,5.128495 6.2197,5.128495 6.2197,14.621668 0,5.892314 -3.3826,10.256991 -3.3827,4.364677 -9.4932,5.455847 l 0,0.109117 q 6.7652,1.091169 10.6935,5.67408 4.0373,4.582911 4.0373,10.802576 0,9.384055 -6.8744,14.730785 -6.8744,5.237613 -19.5319,5.237613 l -28.8069,0 0,-72.017172 z m 27.4975,30.989207 q 13.7487,0 13.7487,-10.584342 0,-10.584343 -13.7487,-10.584343 l -16.0402,0 0,21.168685 16.0402,0 z m 1.855,31.316558 q 6.7652,0 10.257,-2.727923 3.4917,-2.83704 3.4917,-8.074653 0,-5.237613 -3.4917,-7.965536 -3.4918,-2.83704 -10.257,-2.83704 l -17.8952,0 0,21.605152 17.8952,0 z"
             style="font-style:normal;font-variant:normal;font-weight:500;font-stretch:normal;font-size:109.1169281px;font-family:'Work Sans';-inkscape-font-specification:'Work Sans Medium';letter-spacing:-3.75847173px"
             id="path4210" />
          <path
             d="m 1515.0665,-58.808071 q 0,14.1852 -7.5291,21.496035 -7.529,7.201717 -21.9325,7.201717 -14.4034,0 -21.9325,-7.201717 -7.529,-7.310835 -7.529,-21.496035 l 0,-44.410589 11.7846,0 0,42.992069 q 0,10.256991 4.2555,15.167253 4.3647,4.801144 13.4214,4.801144 9.0567,0 13.3123,-4.801144 4.3647,-4.910262 4.3647,-15.167253 l 0,-42.992069 11.7846,0 0,44.410589 z"
             style="font-style:normal;font-variant:normal;font-weight:500;font-stretch:normal;font-size:109.1169281px;font-family:'Work Sans';-inkscape-font-specification:'Work Sans Medium';letter-spacing:-3.75847173px"
             id="path4212" />
          <path
             d="m 1585.3711,-93.179904 -24.6604,0 0,61.978416 -11.6755,0 0,-61.978416 -24.6604,0 0,-10.038756 60.9963,0 0,10.038756 z"
             style="font-style:normal;font-variant:normal;font-weight:500;font-stretch:normal;font-size:109.1169281px;font-family:'Work Sans';-inkscape-font-specification:'Work Sans Medium';letter-spacing:-3.75847173px"
             id="path4214" />
          <path
             d="m 1622.9356,-104.30983 q 10.3661,0 18.0042,4.473794 7.7473,4.473794 11.8938,12.875797 4.1464,8.402004 4.1464,19.750164 0,11.348161 -4.1464,19.750164 -4.1465,8.402004 -11.8938,12.875798 -7.6381,4.473794 -18.0042,4.473794 -10.3662,0 -18.0043,-4.473794 -7.6382,-4.473794 -11.7847,-12.875798 -4.1464,-8.402003 -4.1464,-19.750164 0,-11.34816 4.1464,-19.750164 4.1465,-8.402003 11.7847,-12.875797 7.6381,-4.473794 18.0043,-4.473794 z m 0,10.147874 q -10.1479,0 -15.9311,7.0926 -5.7832,7.092601 -5.7832,19.859281 0,12.766681 5.7832,19.859281 5.7832,7.0926 15.9311,7.0926 10.2569,0 16.0401,-7.0926 5.7832,-7.0926 5.7832,-19.859281 0,-12.76668 -5.7832,-19.859281 -5.7832,-7.0926 -16.0401,-7.0926 z"
             style="font-style:normal;font-variant:normal;font-weight:500;font-stretch:normal;font-size:109.1169281px;font-family:'Work Sans';-inkscape-font-specification:'Work Sans Medium';letter-spacing:-3.75847173px"
             id="path4216" />
          <path
             d="m 1697.5384,-60.008358 -15.4946,0 0,28.80687 -11.5664,0 0,-72.017172 29.3524,0 q 11.6756,0 18.4408,5.783196 6.7653,5.67408 6.7653,15.821955 0,7.747302 -4.0374,12.984914 -3.9282,5.128496 -11.239,7.310834 l 19.5319,30.116273 -13.4214,0 -18.3316,-28.80687 z m -15.4946,-9.711406 16.804,0 q 7.0926,0 10.5843,-2.83704 3.4918,-2.946157 3.4918,-8.947588 0,-6.001431 -3.4918,-8.838472 -3.4917,-2.946157 -10.5843,-2.946157 l -16.804,0 0,23.569257 z"
             style="font-style:normal;font-variant:normal;font-weight:500;font-stretch:normal;font-size:109.1169281px;font-family:'Work Sans';-inkscape-font-specification:'Work Sans Medium';letter-spacing:-3.75847173px"
             id="path4218" />
          <path
             d="m 1764.5831,-104.30983 q 9.9297,0 16.9132,3.60086 7.0926,3.600857 11.8937,11.020808 l -8.8385,7.965536 q -3.0552,-6.547016 -7.6381,-9.493173 -4.583,-2.946157 -12.2211,-2.946157 -7.5291,0 -11.6755,3.055274 -4.1465,2.946157 -4.1465,7.638185 0,4.364677 4.0373,6.983483 4.0374,2.50969 14.4035,4.364677 9.7114,1.745871 15.3855,4.473795 5.7832,2.618806 8.402,6.656132 2.6188,3.92821 2.6188,9.820524 0,6.328781 -3.6009,11.129926 -3.6009,4.801145 -10.1479,7.419951 -6.4379,2.50969 -14.949,2.50969 -21.9325,0 -30.9892,-14.621669 l 8.1838,-8.183769 q 3.4917,6.547015 8.9476,9.602289 5.5649,3.055274 13.7487,3.055274 7.7473,0 12.112,-2.618806 4.4738,-2.727923 4.4738,-7.638185 0,-3.928209 -4.0374,-6.328782 -3.9282,-2.400572 -13.8578,-4.25556 -9.9296,-1.854988 -15.822,-4.582911 -5.8923,-2.727923 -8.6202,-6.765249 -2.6188,-4.037327 -2.6188,-9.820524 0,-6.110548 3.3826,-11.129927 3.3826,-5.019378 9.7114,-7.965532 6.4379,-2.94616 14.949,-2.94616 z"
             style="font-style:normal;font-variant:normal;font-weight:500;font-stretch:normal;font-size:109.1169281px;font-family:'Work Sans';-inkscape-font-specification:'Work Sans Medium';letter-spacing:-3.75847173px"
             id="path4220" />
        </g>
      </g>
    </g>
  </g>
</svg>
