<?xml version="1.0" encoding="UTF-8" standalone="no"?>
<!-- Created with Inkscape (http://www.inkscape.org/) -->

<svg
   xmlns:dc="http://purl.org/dc/elements/1.1/"
   xmlns:cc="http://creativecommons.org/ns#"
   xmlns:rdf="http://www.w3.org/1999/02/22-rdf-syntax-ns#"
   xmlns:svg="http://www.w3.org/2000/svg"
   xmlns="http://www.w3.org/2000/svg"
   xmlns:xlink="http://www.w3.org/1999/xlink"
   xmlns:sodipodi="http://sodipodi.sourceforge.net/DTD/sodipodi-0.dtd"
   xmlns:inkscape="http://www.inkscape.org/namespaces/inkscape"
   width="2560"
   height="1440"
   viewBox="0 0 2560 1440"
   id="svg4196"
   version="1.1"
   inkscape:version="0.91 r13725"
   sodipodi:docname="lifecycle-background.svg">
  <defs
     id="defs4198">
    <linearGradient
       inkscape:collect="always"
       id="ruby">
      <stop
         style="stop-color:#f31b2e;stop-opacity:1"
         offset="0"
         id="stop4369" />
      <stop
         style="stop-color:#5a0a11;stop-opacity:1"
         offset="1"
         id="stop4371" />
    </linearGradient>
    <linearGradient
       inkscape:collect="always"
       xlink:href="#ruby"
       id="linearGradient4373"
       x1="1777.592"
       y1="196"
       x2="1848.043"
       y2="149.99084"
       gradientUnits="userSpaceOnUse"
       gradientTransform="translate(9.1469688,26.333435)" />
    <linearGradient
       inkscape:collect="always"
       xlink:href="#ruby"
       id="linearGradient4385"
       gradientUnits="userSpaceOnUse"
       x1="1777.592"
       y1="196"
       x2="1848.043"
       y2="149.99084"
       gradientTransform="translate(-120.85296,597.33349)" />
    <linearGradient
       inkscape:collect="always"
       xlink:href="#ruby"
       id="linearGradient4389"
       gradientUnits="userSpaceOnUse"
       gradientTransform="translate(-752.85294,970.33352)"
       x1="1777.592"
       y1="196"
       x2="1848.043"
       y2="149.99084" />
    <linearGradient
       inkscape:collect="always"
       xlink:href="#ruby"
       id="linearGradient4393"
       gradientUnits="userSpaceOnUse"
       gradientTransform="translate(-1428.853,990.33356)"
       x1="1777.592"
       y1="196"
       x2="1848.043"
       y2="149.99084" />
  </defs>
  <sodipodi:namedview
     id="base"
     pagecolor="#ffffff"
     bordercolor="#666666"
     borderopacity="1.0"
     inkscape:pageopacity="0.0"
     inkscape:pageshadow="2"
     inkscape:zoom="0.5"
     inkscape:cx="1194.4827"
     inkscape:cy="702.23109"
     inkscape:document-units="px"
     inkscape:current-layer="layer4"
     showgrid="false"
     units="px"
     inkscape:window-width="1920"
     inkscape:window-height="1014"
     inkscape:window-x="0"
     inkscape:window-y="27"
     inkscape:window-maximized="1">
    <inkscape:grid
       type="xygrid"
       id="grid4855" />
  </sodipodi:namedview>
  <metadata
     id="metadata4201">
    <rdf:RDF>
      <cc:Work
         rdf:about="">
        <dc:format>image/svg+xml</dc:format>
        <dc:type
           rdf:resource="http://purl.org/dc/dcmitype/StillImage" />
        <dc:title></dc:title>
      </cc:Work>
    </rdf:RDF>
  </metadata>
  <g
     inkscape:groupmode="layer"
     id="layer2"
     inkscape:label="graph"
     style="display:inline" />
  <g
     inkscape:groupmode="layer"
     id="layer4"
     inkscape:label="arrow"
     style="display:inline">
    <g
       id="g4266">
      <path
         sodipodi:nodetypes="cccc"
         inkscape:connector-curvature="0"
         id="path4857"
         d="m 389.14697,1186.3335 640.00003,-20 674.9367,-515.82195 84.7532,-433.65978"
         style="fill:none;fill-rule:evenodd;stroke:#363e40;stroke-width:26;stroke-linecap:butt;stroke-linejoin:miter;stroke-miterlimit:4;stroke-dasharray:none;stroke-opacity:1" />
      <circle
         r="60"
         cy="222.33344"
         cx="1791.147"
         id="path4829"
         style="color:#000000;display:inline;overflow:visible;visibility:visible;opacity:1;fill:#363e40;fill-opacity:1;fill-rule:nonzero;stroke:none;stroke-width:8;stroke-linecap:butt;stroke-linejoin:miter;stroke-miterlimit:4;stroke-dasharray:none;stroke-dashoffset:0;stroke-opacity:1;marker:none;enable-background:accumulate" />
      <circle
         style="color:#000000;display:inline;overflow:visible;visibility:visible;opacity:1;fill:url(#linearGradient4373);fill-opacity:1;fill-rule:nonzero;stroke:none;stroke-width:8;stroke-linecap:butt;stroke-linejoin:miter;stroke-miterlimit:4;stroke-dasharray:none;stroke-dashoffset:0;stroke-opacity:1;marker:none;enable-background:accumulate"
         id="circle4831"
         cx="1791.147"
         cy="222.33344"
         r="40" />
      <circle
         r="60"
         cy="1186.3335"
         cx="353.14694"
         id="circle4845"
         style="color:#000000;display:inline;overflow:visible;visibility:visible;opacity:1;fill:#363e40;fill-opacity:1;fill-rule:nonzero;stroke:none;stroke-width:8;stroke-linecap:butt;stroke-linejoin:miter;stroke-miterlimit:4;stroke-dasharray:none;stroke-dashoffset:0;stroke-opacity:1;marker:none;enable-background:accumulate" />
      <circle
         style="color:#000000;display:inline;overflow:visible;visibility:visible;opacity:1;fill:#363e40;fill-opacity:1;fill-rule:nonzero;stroke:none;stroke-width:8;stroke-linecap:butt;stroke-linejoin:miter;stroke-miterlimit:4;stroke-dasharray:none;stroke-dashoffset:0;stroke-opacity:1;marker:none;enable-background:accumulate"
         id="circle4851"
         cx="1029.147"
         cy="1166.3335"
         r="60" />
      <g
         transform="translate(44,-144.00002)"
         id="g4452">
        <circle
           r="60"
           cy="793.33344"
           cx="1661.147"
           id="circle4839"
           style="color:#000000;display:inline;overflow:visible;visibility:visible;opacity:1;fill:#363e40;fill-opacity:1;fill-rule:nonzero;stroke:none;stroke-width:8;stroke-linecap:butt;stroke-linejoin:miter;stroke-miterlimit:4;stroke-dasharray:none;stroke-dashoffset:0;stroke-opacity:1;marker:none;enable-background:accumulate" />
        <circle
           style="color:#000000;display:inline;overflow:visible;visibility:visible;opacity:1;fill:url(#linearGradient4385);fill-opacity:1;fill-rule:nonzero;stroke:none;stroke-width:8;stroke-linecap:butt;stroke-linejoin:miter;stroke-miterlimit:4;stroke-dasharray:none;stroke-dashoffset:0;stroke-opacity:1;marker:none;enable-background:accumulate"
           id="circle4383"
           cx="1661.147"
           cy="793.33344"
           r="40" />
      </g>
      <circle
         style="color:#000000;display:inline;overflow:visible;visibility:visible;opacity:1;fill:url(#linearGradient4389);fill-opacity:1;fill-rule:nonzero;stroke:none;stroke-width:8;stroke-linecap:butt;stroke-linejoin:miter;stroke-miterlimit:4;stroke-dasharray:none;stroke-dashoffset:0;stroke-opacity:1;marker:none;enable-background:accumulate"
         id="circle4387"
         cx="1029.147"
         cy="1166.3335"
         r="40" />
      <circle
         r="40"
         cy="1186.3335"
         cx="353.14694"
         id="circle4391"
         style="color:#000000;display:inline;overflow:visible;visibility:visible;opacity:1;fill:url(#linearGradient4393);fill-opacity:1;fill-rule:nonzero;stroke:none;stroke-width:8;stroke-linecap:butt;stroke-linejoin:miter;stroke-miterlimit:4;stroke-dasharray:none;stroke-dashoffset:0;stroke-opacity:1;marker:none;enable-background:accumulate" />
      <g
         transform="translate(8,17.999977)"
         id="g4456">
        <path
           style="color:#000000;display:inline;overflow:visible;visibility:visible;opacity:1;fill:#363e40;fill-opacity:1;fill-rule:nonzero;stroke:#363e40;stroke-width:20.00000191;stroke-linecap:butt;stroke-linejoin:miter;stroke-miterlimit:4;stroke-dasharray:none;stroke-dashoffset:0;stroke-opacity:1;marker:none;enable-background:accumulate"
           id="path4266"
           d="m 1607.6384,183.10979 c -15.9296,-1.73949 -31.9645,-2.94709 -48.0035,-4.15243 -39.0407,-2.62863 -78.3276,-3.05566 -117.5394,-3.15325 -45.4139,-0.0398 -90.7968,1.38284 -135.9556,4.56685 -28.3596,1.99953 -46.5808,3.8502 -74.9152,6.47763 -67.0363,6.8681 -133.3065,16.79207 -198.4034,29.32638 -13.4046,2.5811 -26.7116,5.37619 -40.06742,8.06431 -52.28951,10.92893 -104.01383,23.33666 -153.61984,38.81507 -30.47663,9.50945 -39.00084,13.05332 -68.22649,23.78952 -41.91932,16.64789 -82.05038,35.2853 -119.65001,55.91655 -23.09292,12.67127 -29.92922,17.26465 -51.733,30.69811 -36.86564,23.84286 -71.30389,49.43093 -101.69801,76.95604 -5.48146,4.96405 -10.64506,10.07605 -15.96758,15.11411 -19.58609,19.47777 -37.0092,39.94496 -51.3383,61.31922 -8.61973,12.85777 -14.09214,22.9538 -21.6585,36.13911 -16.33363,28.53436 -29.71804,57.86338 -38.17224,87.86265 -1.50993,5.35788 -2.6726,10.75544 -4.0089,16.1332 -5.14171,25.73398 -7.76471,51.66808 -9.42215,77.59137 -0.79196,9.31569 -0.68428,18.62626 0.4502,27.92184 0.45283,2.30997 0.72393,4.80774 1.89855,7.02807 0.61314,1.40313 0.2975,0.64962 0.93536,2.2626 4.44907,11.39338 -20.09388,15.52414 -24.54296,4.1307 l 0,0 c -0.48548,-1.26703 -0.2088,-0.57995 -0.84459,-2.05861 -1.30006,-3.39216 -2.25663,-6.87351 -2.4265,-10.37532 -0.63548,-9.93311 -0.31672,-19.86116 0.96117,-29.77243 2.79253,-26.41663 5.88749,-52.85524 11.26512,-79.10464 3.90059,-15.06539 4.54692,-18.88038 9.85041,-33.92764 8.7052,-24.69874 20.48753,-48.88203 34.11137,-72.59017 6.66462,-11.7778 14.30363,-25.76798 21.93125,-37.32216 14.63331,-22.16637 32.8962,-43.27772 53.30719,-63.35094 5.53297,-5.1714 10.90887,-10.41676 16.59891,-15.51419 31.31204,-28.05095 66.67392,-54.14595 104.63574,-78.37293 22.64206,-13.83279 29.13175,-18.18175 53.08702,-31.24826 38.5594,-21.03245 79.59782,-40.11839 122.61667,-57.01412 29.9822,-10.89447 38.70112,-14.47562 69.94004,-24.13736 50.41186,-15.59161 102.90035,-28.14093 155.9525,-39.23672 13.50729,-2.72013 26.96559,-5.54725 40.52189,-8.16044 65.927,-12.70857 132.9903,-22.90483 200.8582,-29.99629 29.0029,-2.75946 46.7978,-4.61393 75.8398,-6.74289 35.2052,-2.58083 70.4396,-4.05037 105.8356,-4.79014 10.6475,-0.22249 21.2991,-0.34847 31.9485,-0.52272 40.0574,-0.35301 80.2424,-0.7851 120.1832,1.64102 15.9283,1.03264 31.8434,2.13589 47.7516,3.27522 17.7868,1.06154 15.5,17.57562 -2.2867,16.51408 z"
           inkscape:connector-curvature="0" />
        <path
           style="color:#000000;display:inline;overflow:visible;visibility:visible;opacity:1;fill:#363e40;fill-opacity:1;fill-rule:nonzero;stroke:#363e40;stroke-width:5.60466337;stroke-linecap:butt;stroke-linejoin:miter;stroke-miterlimit:4;stroke-dasharray:none;stroke-dashoffset:0;stroke-opacity:1;marker:none;enable-background:accumulate"
           d="m 228.60597,624.27019 c 34.14538,39.02596 64.08653,81.96184 87.45072,128.16514 14.87974,32.23122 26.82055,65.72066 38.79775,99.07417 -5.11126,-13.87034 -20.33442,-16.09301 -29.92267,-4.85623 10.80768,-39.53061 27.93304,-77.3343 51.88721,-110.80093 32.47526,-47.9944 74.24554,-89.75156 121.6943,-123.23568 17.27708,-10.54596 35.99957,16.19731 20.21104,28.63132 -47.70768,33.73802 -89.76965,75.82825 -120.96706,125.15365 -18.79381,28.00642 -31.23545,59.69481 -39.13584,92.29451 -1.5669,17.8086 -29.84227,21.69354 -37.0246,6.84229 -12.38023,-37.77571 -25.35358,-75.6827 -43.48327,-111.21525 -21.60697,-38.87611 -47.07102,-75.92771 -77.85878,-108.24183 -12.65829,-15.93796 12.24513,-37.60204 26.64237,-23.35909 l 1.70883,1.54793 0,0 z"
           id="path4356"
           inkscape:connector-curvature="0" />
      </g>
    </g>
  </g>
</svg>
