<?xml version="1.0" encoding="UTF-8" standalone="no"?>
<!-- Created with Inkscape (http://www.inkscape.org/) -->

<svg
   xmlns:dc="http://purl.org/dc/elements/1.1/"
   xmlns:cc="http://creativecommons.org/ns#"
   xmlns:rdf="http://www.w3.org/1999/02/22-rdf-syntax-ns#"
   xmlns:svg="http://www.w3.org/2000/svg"
   xmlns="http://www.w3.org/2000/svg"
   xmlns:xlink="http://www.w3.org/1999/xlink"
   xmlns:sodipodi="http://sodipodi.sourceforge.net/DTD/sodipodi-0.dtd"
   xmlns:inkscape="http://www.inkscape.org/namespaces/inkscape"
   width="2560"
   height="1440"
   viewBox="0 0 2560 1440"
   id="svg4196"
   version="1.1"
   inkscape:version="0.91 r13725"
   sodipodi:docname="lifecycle.svg">
  <defs
     id="defs4198">
    <linearGradient
       inkscape:collect="always"
       id="ruby">
      <stop
         style="stop-color:#f31b2e;stop-opacity:1"
         offset="0"
         id="stop4369" />
      <stop
         style="stop-color:#5a0a11;stop-opacity:1"
         offset="1"
         id="stop4371" />
    </linearGradient>
    <linearGradient
       inkscape:collect="always"
       xlink:href="#ruby"
       id="linearGradient4373"
       x1="1777.592"
       y1="196"
       x2="1848.043"
       y2="149.99084"
       gradientUnits="userSpaceOnUse"
       gradientTransform="translate(9.1469688,26.333435)" />
    <linearGradient
       inkscape:collect="always"
       xlink:href="#ruby"
       id="linearGradient4385"
       gradientUnits="userSpaceOnUse"
       x1="1777.592"
       y1="196"
       x2="1848.043"
       y2="149.99084"
       gradientTransform="translate(-120.85296,597.33349)" />
    <linearGradient
       inkscape:collect="always"
       xlink:href="#ruby"
       id="linearGradient4389"
       gradientUnits="userSpaceOnUse"
       gradientTransform="translate(-752.85294,970.33352)"
       x1="1777.592"
       y1="196"
       x2="1848.043"
       y2="149.99084" />
    <linearGradient
       inkscape:collect="always"
       xlink:href="#ruby"
       id="linearGradient4393"
       gradientUnits="userSpaceOnUse"
       gradientTransform="translate(-1428.853,990.33356)"
       x1="1777.592"
       y1="196"
       x2="1848.043"
       y2="149.99084" />
  </defs>
  <sodipodi:namedview
     id="base"
     pagecolor="#ffffff"
     bordercolor="#666666"
     borderopacity="1.0"
     inkscape:pageopacity="0.0"
     inkscape:pageshadow="2"
     inkscape:zoom="0.53033009"
     inkscape:cx="1203.5833"
     inkscape:cy="706.00233"
     inkscape:document-units="px"
     inkscape:current-layer="layer4"
     showgrid="false"
     units="px"
     inkscape:window-width="1920"
     inkscape:window-height="1014"
     inkscape:window-x="0"
     inkscape:window-y="27"
     inkscape:window-maximized="1">
    <inkscape:grid
       type="xygrid"
       id="grid4855" />
  </sodipodi:namedview>
  <metadata
     id="metadata4201">
    <rdf:RDF>
      <cc:Work
         rdf:about="">
        <dc:format>image/svg+xml</dc:format>
        <dc:type
           rdf:resource="http://purl.org/dc/dcmitype/StillImage" />
        <dc:title></dc:title>
      </cc:Work>
    </rdf:RDF>
  </metadata>
  <g
     inkscape:groupmode="layer"
     id="layer2"
     inkscape:label="graph" />
  <g
     inkscape:groupmode="layer"
     id="layer3"
     inkscape:label="text" />
  <g
     inkscape:groupmode="layer"
     id="layer4"
     inkscape:label="arrow">
    <g
       id="g5052">
      <path
         sodipodi:nodetypes="cccc"
         inkscape:connector-curvature="0"
         id="path4857"
         d="m 389.14697,1186.3335 640.00003,-20 674.9367,-515.82195 84.7532,-433.65978"
         style="fill:none;fill-rule:evenodd;stroke:#363e40;stroke-width:26;stroke-linecap:butt;stroke-linejoin:miter;stroke-miterlimit:4;stroke-dasharray:none;stroke-opacity:1" />
      <circle
         r="60"
         cy="222.33344"
         cx="1791.147"
         id="path4829"
         style="color:#000000;display:inline;overflow:visible;visibility:visible;opacity:1;fill:#363e40;fill-opacity:1;fill-rule:nonzero;stroke:none;stroke-width:8;stroke-linecap:butt;stroke-linejoin:miter;stroke-miterlimit:4;stroke-dasharray:none;stroke-dashoffset:0;stroke-opacity:1;marker:none;enable-background:accumulate" />
      <circle
         style="color:#000000;display:inline;overflow:visible;visibility:visible;opacity:1;fill:url(#linearGradient4373);fill-opacity:1;fill-rule:nonzero;stroke:none;stroke-width:8;stroke-linecap:butt;stroke-linejoin:miter;stroke-miterlimit:4;stroke-dasharray:none;stroke-dashoffset:0;stroke-opacity:1;marker:none;enable-background:accumulate"
         id="circle4831"
         cx="1791.147"
         cy="222.33344"
         r="40" />
      <circle
         r="60"
         cy="1186.3335"
         cx="353.14694"
         id="circle4845"
         style="color:#000000;display:inline;overflow:visible;visibility:visible;opacity:1;fill:#363e40;fill-opacity:1;fill-rule:nonzero;stroke:none;stroke-width:8;stroke-linecap:butt;stroke-linejoin:miter;stroke-miterlimit:4;stroke-dasharray:none;stroke-dashoffset:0;stroke-opacity:1;marker:none;enable-background:accumulate" />
      <circle
         style="color:#000000;display:inline;overflow:visible;visibility:visible;opacity:1;fill:#363e40;fill-opacity:1;fill-rule:nonzero;stroke:none;stroke-width:8;stroke-linecap:butt;stroke-linejoin:miter;stroke-miterlimit:4;stroke-dasharray:none;stroke-dashoffset:0;stroke-opacity:1;marker:none;enable-background:accumulate"
         id="circle4851"
         cx="1029.147"
         cy="1166.3335"
         r="60" />
      <g
         transform="translate(44,-144.00002)"
         id="g4452">
        <circle
           r="60"
           cy="793.33344"
           cx="1661.147"
           id="circle4839"
           style="color:#000000;display:inline;overflow:visible;visibility:visible;opacity:1;fill:#363e40;fill-opacity:1;fill-rule:nonzero;stroke:none;stroke-width:8;stroke-linecap:butt;stroke-linejoin:miter;stroke-miterlimit:4;stroke-dasharray:none;stroke-dashoffset:0;stroke-opacity:1;marker:none;enable-background:accumulate" />
        <circle
           style="color:#000000;display:inline;overflow:visible;visibility:visible;opacity:1;fill:url(#linearGradient4385);fill-opacity:1;fill-rule:nonzero;stroke:none;stroke-width:8;stroke-linecap:butt;stroke-linejoin:miter;stroke-miterlimit:4;stroke-dasharray:none;stroke-dashoffset:0;stroke-opacity:1;marker:none;enable-background:accumulate"
           id="circle4383"
           cx="1661.147"
           cy="793.33344"
           r="40" />
      </g>
      <circle
         style="color:#000000;display:inline;overflow:visible;visibility:visible;opacity:1;fill:url(#linearGradient4389);fill-opacity:1;fill-rule:nonzero;stroke:none;stroke-width:8;stroke-linecap:butt;stroke-linejoin:miter;stroke-miterlimit:4;stroke-dasharray:none;stroke-dashoffset:0;stroke-opacity:1;marker:none;enable-background:accumulate"
         id="circle4387"
         cx="1029.147"
         cy="1166.3335"
         r="40" />
      <circle
         r="40"
         cy="1186.3335"
         cx="353.14694"
         id="circle4391"
         style="color:#000000;display:inline;overflow:visible;visibility:visible;opacity:1;fill:url(#linearGradient4393);fill-opacity:1;fill-rule:nonzero;stroke:none;stroke-width:8;stroke-linecap:butt;stroke-linejoin:miter;stroke-miterlimit:4;stroke-dasharray:none;stroke-dashoffset:0;stroke-opacity:1;marker:none;enable-background:accumulate" />
      <g
         id="text4177"
         style="font-style:normal;font-variant:normal;font-weight:normal;font-stretch:normal;font-size:20px;line-height:125%;font-family:'Noto Sans';-inkscape-font-specification:'Noto Sans, Normal';text-align:start;letter-spacing:1.21000004px;word-spacing:0px;writing-mode:lr-tb;text-anchor:start;fill:#363e40;fill-opacity:1;stroke:none;stroke-width:1px;stroke-linecap:butt;stroke-linejoin:miter;stroke-opacity:1">
        <path
           id="path5038"
           style="font-style:normal;font-variant:normal;font-weight:normal;font-stretch:normal;font-size:106.25px;font-family:'Love Ya Like A Sister Solid';-inkscape-font-specification:'Love Ya Like A Sister Solid';fill:#363e40;fill-opacity:1"
           d="m 1911.079,93.683243 q 32.8918,0.415039 32.8918,1.452637 0,0.415039 -0.9338,0.518798 l 0,0.31128 0.2075,0 q 1.5564,-1.452637 7.2632,-2.178955 l 0.7263,-0.10376 q 0.5188,1.037597 0.5188,1.971435 0,7.989502 0.7263,14.318852 l -2.6977,5.60302 q -1.6602,0.93384 -3.3203,0.93384 -4.5655,0 -4.5655,-2.69775 l 0,-0.41504 q 0.1038,-0.72632 1.4527,-2.17896 -1.4527,-0.62256 -1.4527,-2.49023 0,-2.594 -2.1789,-2.594 l -2.4903,-0.10376 0,0.5188 -1.1413,0.20752 -17.7429,-0.41504 -9.1309,0 q -9.4421,0 -9.1309,0.62256 0.4151,0.62256 1.3489,27.70386 0.8301,0.93384 1.6602,0.93384 l 1.0376,0 7.1594,-0.41504 11.6211,1.34888 q 1.5564,0 1.5564,-4.04663 0,-1.76392 3.5278,-2.49024 l 1.0376,-0.72632 q 1.8677,0 1.8677,14.83765 l 0,5.81055 q 0,1.45263 -0.7263,1.66015 -2.179,-0.93384 -5.4993,-1.66015 -0.6225,0 -1.4526,-4.35791 0,-1.45264 -11.2061,-1.45264 -10.1684,0 -10.1684,0.93384 l -0.2076,2.17895 0.9339,14.73389 q -0.4151,8.19702 -1.3489,17.22412 l 0.6226,0.20752 q 9.7534,-0.62256 15.979,-1.45264 l 0.3112,0 q 7.9895,0 20.5445,1.5564 l 0.3113,0 q 0.9338,0 1.3488,-1.45264 l 0.7264,0 1.4526,1.34888 0.1037,0 0.2076,-0.72632 q 0,-2.59399 -1.0376,-2.59399 l -1.1414,0.41504 q -1.5564,-1.14136 -2.1789,-3.1128 0,-1.55639 5.2917,-2.17895 0.5188,0 3.6316,1.76391 1.6602,0 1.6602,2.90528 0.1037,10.89477 0.7263,16.60156 l -0.4151,1.45264 -0.7263,0 q -1.2451,-0.72632 -7.5744,-1.34888 0,-0.41504 -51.0499,-1.45264 -3.3203,0 -3.3203,-2.69775 -0.5188,-0.41504 -0.5188,-5.08423 l 0.7264,-3.11279 -0.2076,-1.45264 0.6226,-0.72632 0.3113,0 q 1.3488,1.34888 2.1789,1.34888 l 0.4151,0 q 3.009,-0.62256 3.009,-2.17896 l -0.8301,-32.58056 q 0,-1.0376 -1.4526,-3.63159 0.415,0 1.0376,-27.6001 0.5188,-0.83008 0.5188,-2.90528 l 0.415,-3.63159 -5.0842,-0.72632 -3.6316,-1.03759 -1.8677,0.20752 q -2.2827,0 -2.2827,-6.433109 l -0.2075,-0.10376 q 0.3113,-4.565429 3.1128,-4.565429 l 0.1037,0 28.0152,-0.518799 z" />
        <path
           id="path5040"
           style="font-style:normal;font-variant:normal;font-weight:normal;font-stretch:normal;font-size:106.25px;font-family:'Love Ya Like A Sister Solid';-inkscape-font-specification:'Love Ya Like A Sister Solid';fill:#363e40;fill-opacity:1"
           d="m 1979.5253,119.93446 q 1.6602,0.20752 1.6602,0.5188 l -0.6226,0.93384 0,0.31128 0.2075,0 7.4707,-0.20752 q 12.555,0 16.7053,6.22559 2.8016,3.63159 3.6316,5.08422 l 0.5188,0.20752 q 1.2452,0 16.3941,-7.88574 1.9714,-0.83008 3.2165,-0.83008 5.8106,0 12.3474,4.35791 12.1399,9.85718 12.1399,16.49781 1.1414,2.49023 4.5655,29.46777 l 0,4.04663 q 0,1.34888 0.6225,1.45264 l 0.5188,0 q 1.2451,0 4.6692,-1.14136 2.3865,0 2.3865,8.40454 0.2075,3.42407 0.2075,6.53687 -1.1413,0 -1.6601,0 l -0.3113,0 q -6.6406,1.03759 -10.791,1.03759 l -4.4617,-0.51879 -8.4046,0.20751 -1.4526,0 q -0.3113,0 -0.3113,-1.14135 l -1.8676,-1.76392 0,-0.20752 0.415,-1.45263 0,-0.31128 -0.7263,-3.83912 0,-1.86767 q 0,-1.97144 3.009,-1.97144 5.0842,0.72632 4.2542,-3.83911 -0.2076,-11.20605 0.83,-16.91284 l 0,-0.20752 -0.3112,-8.71582 q 0,-2.17895 -3.8392,-5.29175 l -1.2451,-0.31128 -0.9338,0 -1.4526,-0.72632 q -3.2166,-4.25415 -10.6873,-4.25415 -9.2346,0.83008 -11.1023,5.49927 -0.5188,1.5564 -0.7263,6.84815 l 0.3113,3.32031 0,10.37598 -0.1038,4.15039 q 0,6.64062 3.6316,7.4707 1.5564,0.31128 1.5564,1.0376 -1.4526,6.84814 -1.9714,7.9895 l -3.6316,0.72632 -12.3474,-1.0376 -1.4527,0.31128 q -2.3865,0 -2.3865,-7.4707 l 0,-0.5188 q 0,-0.83008 4.358,-2.17896 1.1413,0 1.1413,-1.0376 -0.7263,-3.21655 -0.7263,-8.19702 l 0.2075,-15.77148 q -0.7263,-3.21655 -0.7263,-5.08423 0.1038,-3.63159 0.8301,-3.63159 l 0.2075,0 q 1.4526,-2.69776 -8.5083,-8.61206 -2.8015,-1.0376 -5.0842,-1.0376 -3.9429,0 -9.1309,3.63159 l -0.1038,0.72632 0,11.62109 0.3113,30.29785 0.7263,0.5188 0.5188,0 q 0.4151,0 0.6226,-1.03759 l 0.3113,0 q 3.8391,0 4.5654,1.97143 l 0,1.24512 0.3113,3.32031 q 0.3113,6.01807 -3.1128,6.01807 -1.1414,0.41504 -7.782,0.5188 l -18.6767,-1.24512 q -1.4527,0 -2.6978,-8.61206 l 0,-0.31128 q 0,-1.14136 5.8105,-2.90527 0,-1.14136 5.8106,-1.86768 1.0376,-0.41504 1.0376,-1.45264 l 0.9338,-33.72192 0.2075,-7.9895 q 0,-1.24512 -2.6977,-1.24512 -3.1128,0 -6.7444,0.72632 -2.3865,-1.34888 -2.3865,-2.80151 0.5188,-7.26319 0.3113,-7.67823 -0.1037,-0.41504 0.9339,-2.59399 8.5083,-1.24512 20.7519,-2.17896 z" />
        <path
           id="path5042"
           style="font-style:normal;font-variant:normal;font-weight:normal;font-stretch:normal;font-size:106.25px;font-family:'Love Ya Like A Sister Solid';-inkscape-font-specification:'Love Ya Like A Sister Solid';fill:#363e40;fill-opacity:1"
           d="m 2078.9958,119.8307 0.3113,0 q 4.7729,0 7.6782,2.0752 2.4902,0.31128 2.4902,0.83008 l 0,0.41504 0.5188,1.76391 q 0.3113,0.72632 2.0752,1.14136 l 3.6316,-0.20752 1.5564,0.41504 11.1023,-2.38648 0.4151,0 q 10.8947,2.69776 19.6106,9.64966 9.2346,9.23462 10.4797,13.90381 1.4526,5.08423 1.4526,6.74439 -1.9714,17.22412 -3.424,17.22412 -5.188,8.5083 -6.5369,9.64966 l -1.2451,1.14135 0.3112,0.5188 0,0.20752 q -2.5939,3.11279 -5.2917,3.94287 -1.2451,0.93384 -1.5564,2.69776 -1.9714,2.07519 -6.7444,2.07519 -10.4797,3.42407 -14.3188,3.42407 -1.6602,0 -6.2256,-2.38647 -3.6316,-0.72632 -6.8482,-0.72632 l -0.9338,0.5188 q 0.9338,1.45264 0.9338,7.67822 l 0,1.97144 1.0376,6.53686 0.2076,10.16846 0,1.45264 q 0,3.42407 2.4902,3.42407 l 0.9338,0.93384 0,0.20752 q -0.9338,0 -0.9338,1.03759 2.0752,1.97144 2.0752,5.29175 l 0.8301,2.69776 q -2.179,0.72631 -5.188,0.72631 l -10.0647,-0.72631 q -2.594,2.07519 -3.0091,2.07519 -3.2165,-0.93384 -6.2255,-7.15942 l -0.2076,-0.10376 0.2076,-0.62256 q -0.2076,-2.17896 -0.2076,-2.90527 l 0.2076,-0.5188 1.9714,-1.24512 q 0.9338,-1.45264 3.1128,-1.45264 0.5188,-0.5188 0.5188,-6.9519 l 0,-10.27222 q 0,-3.42407 -0.8301,-13.07373 l 0,-54.47388 -0.2075,-4.56543 -3.6316,0 -0.5188,-0.51879 -0.2075,-7.98951 q 0,-3.63159 3.6316,-3.63159 0.9338,-0.5188 4.5654,-0.62256 z m 18.8843,19.50684 -2.9053,1.45264 0,0.31128 0.7263,0 0.1038,-0.20752 0.2075,0 0.2075,0.20752 0,0.20752 q -6.2256,2.90527 -7.4707,5.29174 -0.5188,0 -1.2451,26.87378 l -0.2075,1.97144 q 0,0.5188 6.3293,5.29175 l 6.0181,2.69775 q 0.3113,0.83008 0.7263,0.93384 l 0.5188,0 q 4.3579,0 9.8572,-3.1128 2.0752,-1.97143 6.3293,-3.42407 7.4707,-6.01806 7.4707,-11.30981 l 0,-2.17896 -0.415,-1.97143 0,-0.20752 1.1414,-1.45264 0,-0.5188 q -1.2452,-0.5188 -1.2452,-3.42407 0,-5.08423 -2.9052,-8.19702 -1.4527,-3.73535 -4.9805,-6.32935 -1.0376,-1.76391 -7.5745,-3.32031 l -1.2451,0 -6.7444,0.5188 -0.415,0 q -1.2451,0 -2.2827,-0.10376 z" />
        <path
           id="path5044"
           style="font-style:normal;font-variant:normal;font-weight:normal;font-stretch:normal;font-size:106.25px;font-family:'Love Ya Like A Sister Solid';-inkscape-font-specification:'Love Ya Like A Sister Solid';fill:#363e40;fill-opacity:1"
           d="m 2187.9084,126.36757 1.2452,0 q 7.6782,3.63159 15.2527,9.75342 7.2631,6.22558 7.2631,9.44214 l -0.2075,0 0.7263,2.59399 0.2076,0 q 0.3112,0.10376 1.0375,4.15039 l 1.1414,2.90527 -0.2075,1.86768 0.415,5.18799 q -0.7263,2.28271 -1.8676,9.44214 -0.6226,2.80151 -13.3851,20.54443 -5.603,5.39551 -11.3098,5.39551 -5.603,0.72632 -11.4135,0.72632 l -2.6978,0 q -2.594,0 -12.8662,-4.15039 -13.0737,-11.82862 -13.0737,-17.95044 -1.8677,-4.04663 -3.1128,-7.26319 0,-1.66015 3.9428,-12.34741 0,-6.64062 3.1128,-9.23462 6.6407,-14.63013 17.1204,-18.88428 8.9233,-3.32031 14.6301,-3.32031 l 4.0466,1.14136 z m -29.9865,44.0979 0,0.93384 q 1.6601,3.42407 4.3579,8.30078 0,1.45264 5.4993,4.15039 2.5939,2.90527 9.7534,4.56543 l 2.594,0.31128 q 6.018,-1.24512 9.4421,-2.69776 l 5.188,-4.35791 q 7.9895,-8.61206 7.782,-14.4226 l 0,-1.34888 q -0.8301,-2.38647 -0.8301,-7.57446 0,-3.73535 0.5188,-6.32935 0,-0.83008 -5.4993,-5.08423 -4.1504,-5.60302 -8.5083,-6.9519 l -1.6601,0 q -16.8091,0.62256 -16.8091,2.69775 -3.7354,3.73535 -5.2918,7.47071 -4.5654,4.66918 -4.5654,6.32934 -1.2451,5.29175 -1.9714,14.00757 z" />
        <path
           id="path5046"
           style="font-style:normal;font-variant:normal;font-weight:normal;font-stretch:normal;font-size:106.25px;font-family:'Love Ya Like A Sister Solid';-inkscape-font-specification:'Love Ya Like A Sister Solid';fill:#363e40;fill-opacity:1"
           d="m 2288.6241,114.22768 q 21.2707,0.20752 21.2707,2.80151 l 0.6226,4.66919 q -1.0376,1.86768 -1.4527,6.22559 l -0.9338,0.51879 -6.2256,-0.93383 -0.415,0 q -0.6226,0 -3.2166,10.47973 -1.9714,12.34741 -4.8767,24.90235 -1.1414,14.73388 -3.1128,17.84668 -1.2451,3.94287 -3.4241,15.77148 l -0.6225,0.20752 q -0.4151,-0.41504 -1.5564,-0.41504 l 0,-0.20752 -2.179,0.20752 -6.4331,0 q -4.1504,-0.20752 -4.4616,-1.0376 l 0,-0.20752 q 0,-0.5188 -0.9339,-1.24511 -1.7639,-2.0752 -2.6977,-6.95191 -2.8016,-8.5083 -2.8016,-14.11133 -0.5188,0 -1.7639,-5.81054 0,-3.83911 -3.1128,-14.73389 0,-0.5188 -0.3112,-0.5188 -0.5188,0.10376 -3.8392,11.41358 -5.603,17.63916 -7.6782,22.82714 -0.8301,1.14136 -2.9052,2.38648 l 0,0.41504 q 2.1789,1.34888 2.1789,2.49023 -0.5188,1.14136 -5.0842,1.45264 -8.8196,1.66016 -9.961,-0.31128 -0.7263,-1.14136 -0.7263,-4.56543 l 0.2075,-1.66016 q 0,-10.99853 -3.424,-26.14746 -0.7263,-5.60302 -1.8677,-8.19702 l 0.415,-4.87671 0,-0.20752 q 0,-18.26172 -1.1413,-18.26172 0,-0.31128 -10.1685,-0.62255 -2.2827,0 -3.8391,-4.87671 l 0,-0.31128 q 0.6226,-2.594 3.1128,-5.70679 l 3.6316,0.20752 1.6601,0 q 6.8482,0 11.5174,0.62256 4.7729,0.62256 4.7729,1.0376 l 0,1.03759 q 1.3489,2.38648 1.3489,11.51734 1.0376,17.63916 1.0376,24.07226 l 0,12.55493 q 0,10.16846 1.8677,11.82862 2.6977,0 4.4617,-11.1023 6.018,-15.77148 10.791,-27.18506 l 2.4902,-3.11279 -0.9338,-1.14136 0,-0.10376 q 0,-0.83007 4.0466,-1.34887 7.4707,-0.62256 8.4045,4.04663 0.9339,4.66919 1.3489,10.47973 2.8015,18.67676 4.3579,33.30689 0.5188,1.14136 1.1414,1.45264 l 0.9338,0 q 2.4903,0 2.4903,-3.52784 1.1413,-2.59399 2.3864,-11.41357 3.2166,-15.46021 5.0843,-55.92651 l 0.5188,0 z" />
        <path
           id="path5048"
           style="font-style:normal;font-variant:normal;font-weight:normal;font-stretch:normal;font-size:106.25px;font-family:'Love Ya Like A Sister Solid';-inkscape-font-specification:'Love Ya Like A Sister Solid';fill:#363e40;fill-opacity:1"
           d="m 2344.6192,121.07582 q 6.0181,0 14.7339,5.08423 7.3669,5.49927 7.3669,7.57446 5.7068,12.45117 5.7068,14.52637 l 0.1038,1.14136 q -2.179,4.98047 -2.179,6.84814 l -0.8301,0.20752 -12.3474,0 q -1.7639,0 -4.0466,0.5188 -20.8557,-1.66016 -29.0527,-1.66016 l -3.1128,0 q -1.7639,2.594 -1.7639,3.52784 1.0376,1.86767 1.0376,5.08422 0,5.60303 1.6601,6.53687 l 0.2075,0.72632 0,0.10376 -0.9338,-0.31128 0,0.31128 1.4526,1.45263 q 0,2.0752 2.594,4.77295 4.6692,8.40454 10.2722,10.37598 4.4617,1.5564 10.8948,1.5564 0.9339,0 4.0466,-1.76392 2.8016,-0.83008 10.8948,-9.44214 l 0,-0.41504 q 0,-0.31128 -1.8677,-0.5188 l -0.3112,-0.72631 q 3.3203,-6.43311 7.9895,-8.30079 0.5188,0.62256 5.2917,3.94288 3.2166,5.08422 8.5083,11.62109 l 0,0.5188 q -4.6692,6.01806 -6.7444,6.01806 l -0.5188,0 q 0,-3.21655 -3.8391,-3.63159 -0.8301,0 -6.3293,4.77295 -3.0091,2.38648 -11.4136,4.87671 -9.6497,1.97144 -13.2812,1.97144 l -8.1971,-2.90528 q -6.8481,0 -12.6587,-7.4707 -2.4902,-2.49023 -4.0466,-6.32935 0,-0.93383 -3.2165,-11.93237 -0.9339,-4.66919 -0.9339,-7.9895 l 0,-0.20752 q 0,-19.40308 11.4136,-33.61816 1.6602,-3.52784 6.7444,-5.29175 3.009,-0.83008 8.3008,-1.5564 1.2451,-0.5188 8.4045,0 z m -23.8647,24.48731 26.9775,0.20752 1.4526,0.51879 1.7639,-0.20752 q 6.1219,1.97144 7.782,1.97144 0,0.41504 0.9339,0.62256 0.9338,-1.14136 0.9338,-2.38648 l 0,-2.69775 q 0,-1.97144 -7.2632,-8.40454 -3.1128,-3.21655 -7.4707,-3.83911 l -4.8767,-0.72632 q -11.9324,2.28271 -15.6677,5.81055 -1.4527,2.69775 -4.5654,9.13086 z" />
        <path
           id="path5050"
           style="font-style:normal;font-variant:normal;font-weight:normal;font-stretch:normal;font-size:106.25px;font-family:'Love Ya Like A Sister Solid';-inkscape-font-specification:'Love Ya Like A Sister Solid';fill:#363e40;fill-opacity:1"
           d="m 2439.6281,126.16005 q 5.603,0 9.4421,7.9895 0.8301,0 2.0752,1.86768 l 1.9714,10.68725 q -1.2451,1.66016 -7.6782,1.66016 l -1.4526,0 q -5.3955,-0.72632 -5.3955,-3.63159 0,-2.0752 -3.3204,-5.49927 -0.415,-0.72632 -6.1218,-0.72632 -5.7068,0 -13.2812,2.90527 -5.188,5.29175 -7.2632,8.92334 1.0376,26.14747 0.7263,30.92041 0,1.24512 1.7639,1.24512 l 3.5278,0 q 2.2828,0.10376 2.2828,0.72632 l 0,0.20752 0.5188,1.97144 -0.3113,7.9895 -0.8301,1.14135 -6.7444,0.62256 -0.6225,0 -2.9053,0.93384 q -16.4978,-0.5188 -16.4978,-1.24512 -2.9053,0 -2.9053,-2.59399 -0.3113,-1.97144 -0.3113,-5.39551 0,-2.69775 5.6031,-3.63159 0,-1.14136 3.8391,-1.14136 l 0.5188,-0.10376 0,-0.20752 -0.9339,-39.42871 q 0,-3.63159 -1.7639,-3.63159 l -0.9338,0 q -1.7639,0 -5.8106,1.45264 l -0.2075,-0.20752 0,-0.31128 q 0,-0.31128 1.1414,-0.72632 l 0,-0.20752 q -1.4527,0 -1.4527,-8.19702 -0.2075,0 -0.415,-2.49023 5.9143,-4.56543 12.0361,-4.56543 l 3.6316,0 q 1.8677,0 7.2632,1.45263 l 0.2075,0.5188 q -1.3489,1.76392 -1.3489,2.90527 l 0,0.93384 q 11.6211,-5.29175 31.9581,-3.11279 z" />
      </g>
      <g
         id="text4181"
         style="font-style:normal;font-variant:normal;font-weight:normal;font-stretch:normal;font-size:20px;line-height:125%;font-family:'Noto Sans';-inkscape-font-specification:'Noto Sans, Normal';text-align:start;letter-spacing:1.21000004px;word-spacing:0px;writing-mode:lr-tb;text-anchor:start;fill:#363e40;fill-opacity:1;stroke:none;stroke-width:1px;stroke-linecap:butt;stroke-linejoin:miter;stroke-opacity:1">
        <path
           id="path5019"
           style="font-style:normal;font-variant:normal;font-weight:normal;font-stretch:normal;font-size:93.75px;font-family:'Love Ya Like A Sister Solid';-inkscape-font-specification:'Love Ya Like A Sister Solid';fill:#363e40;fill-opacity:1"
           d="m 1043.3714,504.39191 q 29.0222,0.36621 29.0222,1.28174 0,0.36621 -0.824,0.45776 l 0,0.27466 0.1831,0 q 1.3733,-1.28174 6.4087,-1.92261 l 0.6409,-0.0915 q 0.4578,0.91552 0.4578,1.7395 0,7.04956 0.6408,12.63428 l -2.3803,4.94384 q -1.4649,0.82398 -2.9297,0.82398 -4.0283,0 -4.0283,-2.38037 l 0,-0.36621 q 0.091,-0.64087 1.2817,-1.92261 -1.2817,-0.54932 -1.2817,-2.19727 0,-2.28882 -1.9226,-2.28882 l -2.1973,-0.0915 0,0.45777 -1.0071,0.1831 -15.6555,-0.36621 -8.0567,0 q -8.3312,0 -8.0566,0.54932 0.3662,0.54931 1.1902,24.44458 0.7324,0.82397 1.4648,0.82397 l 0.9156,0 6.3171,-0.36621 10.2539,1.19019 q 1.3733,0 1.3733,-3.57056 0,-1.5564 3.1128,-2.19727 l 0.9155,-0.64087 q 1.648,0 1.648,13.09205 l 0,5.12695 q 0,1.28174 -0.6409,1.46484 -1.9226,-0.82397 -4.8523,-1.46484 -0.5493,0 -1.2817,-3.84522 0,-1.28173 -9.8877,-1.28173 -8.9722,0 -8.9722,0.82397 l -0.1831,1.92261 0.824,13.00049 q -0.3662,7.23266 -1.1902,15.19775 l 0.5493,0.18311 q 8.606,-0.54932 14.0991,-1.28174 l 0.2747,0 q 7.0495,0 18.1274,1.37329 l 0.2747,0 q 0.824,0 1.1902,-1.28174 l 0.6408,0 1.2818,1.19019 0.091,0 0.1831,-0.64087 q 0,-2.28882 -0.9155,-2.28882 l -1.0071,0.36621 q -1.3733,-1.00708 -1.9226,-2.74658 0,-1.37329 4.6692,-1.92261 0.4578,0 3.2044,1.5564 1.4648,0 1.4648,2.56347 0.092,9.61304 0.6409,14.64844 l -0.3662,1.28174 -0.6409,0 q -1.0986,-0.64087 -6.6834,-1.19019 0,-0.36621 -45.0439,-1.28174 -2.9297,0 -2.9297,-2.38037 -0.4578,-0.36621 -0.4578,-4.48608 l 0.6409,-2.74658 -0.1831,-1.28174 0.5493,-0.64087 0.2747,0 q 1.1902,1.19019 1.9226,1.19019 l 0.3662,0 q 2.655,-0.54932 2.655,-1.92261 l -0.7324,-28.74756 q 0,-0.91553 -1.2817,-3.20435 0.3662,0 0.9155,-24.35302 0.4578,-0.73243 0.4578,-2.56348 l 0.3662,-3.20435 -4.4861,-0.64087 -3.2044,-0.91552 -1.6479,0.1831 q -2.0142,0 -2.0142,-5.67627 l -0.1831,-0.0915 q 0.2747,-4.02832 2.7466,-4.02832 l 0.092,0 24.7192,-0.45776 z" />
        <path
           id="path5021"
           style="font-style:normal;font-variant:normal;font-weight:normal;font-stretch:normal;font-size:93.75px;font-family:'Love Ya Like A Sister Solid';-inkscape-font-specification:'Love Ya Like A Sister Solid';fill:#363e40;fill-opacity:1"
           d="m 1083.6744,528.01251 q 3.2044,0.45777 6.0425,0.45777 l 10.437,0 0.2747,0.36621 q -0.6409,2.38037 -0.6409,3.66211 l 0,2.19726 q 0.4578,3.57056 1.9226,3.57056 0.824,-1.37329 5.127,-2.74658 10.1623,-4.48609 16.8457,-4.48609 4.3029,0 9.3383,3.84522 3.6621,1.46484 7.0496,5.95093 5.127,8.14819 5.127,19.50073 l 0,1.00708 -0.824,9.15527 0.824,6.68335 -1.2818,5.95093 0,0.1831 0.092,1.09864 4.8523,0.1831 2.1057,0 q 2.1057,0 2.655,0.45777 -0.7324,9.24682 -2.0142,9.24682 -2.3803,1.46485 -5.4931,1.46485 l -2.5635,0 q -5.8594,0 -12.8174,1.64794 -4.4861,-0.54931 -4.4861,-4.48608 l -0.1831,-4.39453 q 0,-4.30298 2.1057,-6.22559 1.0987,-6.04248 2.7466,-11.35254 l 0.824,-11.26098 q 0.2747,0 0.2747,-2.83814 0,-3.29589 -5.4017,-9.79614 -4.0283,-1.7395 -4.8522,-1.7395 -7.2327,0 -13.2752,6.22558 -0.4578,0 -6.134,6.22559 -1.9226,1.46484 -1.9226,8.51441 0.2746,12.81738 1.007,12.81738 4.9439,0.91553 4.9439,1.92261 l 0,0.64086 0.1831,1.64795 q 0.824,0.91553 0.824,3.02124 l 0,0.18311 q 0,2.92969 -1.2818,6.40869 l -14.74,0.27466 q -2.3803,0 -3.2043,-2.19727 -0.6409,-2.56347 -1.1902,-9.33838 0,-0.73242 3.8452,-1.55639 l 0.6409,-0.82398 0,-0.1831 q 0,-0.64087 -1.0986,-2.10571 l 0.1831,-3.93677 0,-7.23267 0.4577,-11.71875 q 0,-11.99341 -1.0986,-11.99341 l -0.6409,0 -5.9509,0.82398 q -0.9155,0 -2.3804,-1.64795 l 0,-0.45776 q 0.6409,-0.82398 0.6409,-2.10572 l -0.1831,-4.66919 1.9226,-5.76782 0.3662,-0.27466 z" />
        <path
           id="path5023"
           style="font-style:normal;font-variant:normal;font-weight:normal;font-stretch:normal;font-size:93.75px;font-family:'Love Ya Like A Sister Solid';-inkscape-font-specification:'Love Ya Like A Sister Solid';fill:#363e40;fill-opacity:1"
           d="m 1190.994,521.78693 q 1.4649,1.19018 5.127,1.83105 2.5635,0 10.6201,5.85938 l 1.7395,0.54931 0.6409,0 2.2888,1.09864 q 3.3874,2.56347 3.8452,3.84521 l 0,0.18311 q 0,0.73242 -1.4648,1.9226 -0.3662,2.01416 -5.3101,8.3313 l 0,0.45777 0.1831,1.28173 q -1.7395,0.18311 -3.6621,0.91553 -0.824,0 -1.4648,-1.7395 -3.5706,-2.19727 -3.5706,-3.66211 l 1.4648,-4.02832 q 0,-2.47192 -8.3313,-3.479 l -8.3313,-0.54932 q -4.3029,0 -11.7187,3.38745 -4.1199,2.19727 -6.4087,8.97217 -1.9226,6.22558 -3.0212,7.23266 l -0.4578,1.09864 q 0.3662,0 0.4578,0.82397 l -0.824,5.76782 q 0.5493,0.27466 2.4719,7.59888 l -0.4577,0.82398 0,0.45776 q 0.6408,0.64087 1.007,4.21142 1.0987,3.75367 7.3243,6.86646 l 6.7749,4.94385 q 11.1694,0 19.8669,-4.94385 8.606,-7.41577 8.606,-9.8877 l -0.4578,-1.9226 0,-0.18311 q 0.091,-0.54931 5.5847,-6.13403 0.3662,0 2.1057,1.92261 l 0,0.36621 -0.6408,0.1831 q 3.6621,0.73242 3.6621,2.83814 2.1057,2.83813 4.3029,8.14819 0.6409,0 1.1902,2.92969 1.648,0.73242 1.9226,1.46484 0,1.09863 -1.6479,1.28174 -3.0213,1.09863 -5.4016,4.11987 -4.3946,-4.48608 -4.6692,-4.48608 l -7.0496,4.48608 q -3.479,1.83106 -6.4087,4.21143 l -13.1836,4.30298 -2.0141,0.1831 q -4.2115,0 -12.085,-2.47192 -8.6059,-3.66211 -9.4299,-5.76782 -10.7117,-12.72583 -10.7117,-19.86695 l -0.3662,-4.30298 q 1.0986,-4.48608 1.0986,-10.98632 l 3.3875,-8.1482 q 0,-3.57055 4.7607,-9.15527 2.6551,-5.85937 13.916,-10.89478 4.5777,-1.46484 14.74,-2.10571 l 0,-0.1831 z" />
        <path
           id="path5025"
           style="font-style:normal;font-variant:normal;font-weight:normal;font-stretch:normal;font-size:93.75px;font-family:'Love Ya Like A Sister Solid';-inkscape-font-specification:'Love Ya Like A Sister Solid';fill:#363e40;fill-opacity:1"
           d="m 1267.5519,533.23102 1.0987,0 q 6.7749,3.20434 13.4582,8.60596 6.4087,5.49316 6.4087,8.33129 l -0.1831,0 0.6409,2.28882 0.1831,0 q 0.2746,0.0916 0.9155,3.66211 l 1.0071,2.56348 -0.1831,1.64795 0.3662,4.57763 q -0.6409,2.01416 -1.648,8.3313 -0.5493,2.47193 -11.8103,18.12744 -4.9438,4.76075 -9.9792,4.76075 -4.9438,0.64087 -10.0708,0.64087 l -2.3804,0 q -2.2888,0 -11.3525,-3.66211 -11.5357,-10.43702 -11.5357,-15.83863 -1.6479,-3.57055 -2.7465,-6.40869 0,-1.46484 3.479,-10.89477 0,-5.85938 2.7465,-8.1482 5.8594,-12.90893 15.1062,-16.66259 7.8736,-2.92969 12.909,-2.92969 l 3.5705,1.00708 z m -26.4587,38.90991 0,0.82397 q 1.4648,3.02125 3.8452,7.32422 0,1.28174 4.8523,3.66211 2.2888,2.56348 8.606,4.02832 l 2.2888,0.27466 q 5.31,-1.09863 8.3313,-2.38037 l 4.5776,-3.84521 q 7.0496,-7.59888 6.8665,-12.72583 l 0,-1.19019 q -0.7324,-2.10571 -0.7324,-6.68335 0,-3.2959 0.4577,-5.58472 0,-0.73242 -4.8523,-4.48608 -3.6621,-4.94385 -7.5073,-6.13403 l -1.4648,0 q -14.8316,0.54931 -14.8316,2.38037 -3.2959,3.2959 -4.6692,6.59179 -4.0283,4.11988 -4.0283,5.58472 -1.0986,4.66919 -1.7395,12.35962 z" />
        <path
           id="path5027"
           style="font-style:normal;font-variant:normal;font-weight:normal;font-stretch:normal;font-size:93.75px;font-family:'Love Ya Like A Sister Solid';-inkscape-font-specification:'Love Ya Like A Sister Solid';fill:#363e40;fill-opacity:1"
           d="m 1305.6577,529.29425 8.6975,2.83814 q 0.2747,2.10571 1.5564,4.21142 l 0.1831,1.28174 q -1.0986,7.78198 -0.5493,33.87451 0,3.75366 2.9297,4.8523 l 0.9155,2.10571 q 0,0.82397 8.5144,1.37329 l 0.4578,0 q 2.5634,0 6.5918,-5.76782 3.2043,-3.20435 4.0283,-4.76074 l 0.6408,0 0,-0.82398 -0.1831,-0.64087 q 0.6409,-1.09863 1.0987,-3.38745 l 0.1831,-0.0915 0,-1.19019 2.2888,-24.16992 0,-2.19727 -0.3662,-1.28173 0,-0.18311 q 1.4648,-1.00708 1.4648,-3.20434 0,-1.19019 0.9156,-1.46485 l 2.9296,1.46485 2.8382,0 q 5.0354,0 7.2326,2.19726 l 0,0.54932 q 0.3663,1.55639 0.6409,1.55639 0.4578,0.64087 0.6409,2.10572 l -1.2818,15.83862 0.1832,0.18311 0,0.1831 q -0.824,2.47192 -1.7395,15.38086 l 0,3.66211 q 0,8.3313 0.7324,8.3313 l 0.5493,0 q 2.5635,0 7.3242,-1.09863 0.7324,0.0915 2.2888,1.55639 -0.4577,11.35254 -1.4648,11.35254 l -1.4649,-1.09863 -3.8452,0.36621 -14.0991,-0.36621 q -1.0986,0 -2.1973,-5.12695 -0.8239,-0.73243 -0.8239,-1.5564 l 0.1831,-1.19019 -0.3662,0 q -1.0071,0 -7.5074,3.38745 -0.3662,0.82398 -8.789,3.84522 -2.1057,1.09863 -5.127,1.92261 -1.9226,-1.09864 -6.134,-2.19727 -7.9651,-7.87353 -9.7962,-14.00757 -3.2043,-4.57763 -3.2043,-19.95849 l 1.3733,-14.9231 0,-0.27466 q 0,-0.45776 -8.6975,-1.7395 -0.824,-1.19019 -0.824,-6.31714 0,-3.479 1.2817,-3.479 0,-1.46485 9.7962,-1.92261 z" />
        <path
           id="path5029"
           style="font-style:normal;font-variant:normal;font-weight:normal;font-stretch:normal;font-size:93.75px;font-family:'Love Ya Like A Sister Solid';-inkscape-font-specification:'Love Ya Like A Sister Solid';fill:#363e40;fill-opacity:1"
           d="m 1419.8438,533.04791 q 4.9438,0 8.3312,7.04956 0.7325,0 1.8311,1.64795 l 1.7395,9.42993 q -1.0986,1.46485 -6.7749,1.46485 l -1.2817,0 q -4.7608,-0.64087 -4.7608,-3.20435 0,-1.83105 -2.9297,-4.85229 -0.3662,-0.64087 -5.4016,-0.64087 -5.0354,0 -11.7187,2.56347 -4.5777,4.66919 -6.4087,7.87354 0.9155,23.07129 0.6409,27.28271 0,1.09864 1.5563,1.09864 l 3.1128,0 q 2.0142,0.0916 2.0142,0.64087 l 0,0.1831 0.4578,1.7395 -0.2747,7.04956 -0.7324,1.00708 -5.9509,0.54932 -0.5494,0 -2.5634,0.82398 q -14.5569,-0.45777 -14.5569,-1.09864 -2.5635,0 -2.5635,-2.28882 -0.2747,-1.7395 -0.2747,-4.76074 0,-2.38037 4.9439,-3.20434 0,-1.00708 3.3874,-1.00708 l 0.4578,-0.0916 0,-0.1831 -0.824,-34.79004 q 0,-3.20435 -1.5564,-3.20435 l -0.8239,0 q -1.5564,0 -5.127,1.28174 l -0.1831,-0.1831 0,-0.27466 q 0,-0.27466 1.0071,-0.64087 l 0,-0.18311 q -1.2818,0 -1.2818,-7.23266 -0.1831,0 -0.3662,-2.19727 5.2185,-4.02832 10.6202,-4.02832 l 3.2043,0 q 1.6479,0 6.4087,1.28174 l 0.1831,0.45776 q -1.1902,1.5564 -1.1902,2.56348 l 0,0.82397 q 10.2539,-4.66918 28.1983,-2.74658 z" />
        <path
           id="path5031"
           style="font-style:normal;font-variant:normal;font-weight:normal;font-stretch:normal;font-size:93.75px;font-family:'Love Ya Like A Sister Solid';-inkscape-font-specification:'Love Ya Like A Sister Solid';fill:#363e40;fill-opacity:1"
           d="m 1468.3865,523.06866 q 2.1973,0 8.5144,1.83106 7.4158,7.04956 8.6975,10.89477 2.6551,2.74659 4.4861,11.6272 2.0142,1.92261 2.0142,9.06372 l 0.1831,3.02124 -0.4578,12.63428 q 0,3.66211 4.6692,9.52148 4.2115,4.11988 5.5847,4.11988 l 0,0.1831 q 0,1.5564 -4.486,4.94385 -3.2959,3.20435 -4.2115,3.20435 l -0.091,0 q -1.9226,-0.0916 -10.2539,-7.50733 -7.4158,2.74658 -15.1062,6.04248 -5.0354,1.46485 -11.1695,1.46485 l -0.6408,0 q -6.958,-1.19019 -11.7188,-5.31006 -0.824,-0.82398 -3.6621,-6.40869 -2.2888,-2.74659 -2.2888,-6.86646 l 0,-3.66211 q 0,-3.479 1.9226,-6.59179 1.7395,-5.03541 5.7678,-9.8877 2.0142,-2.47192 4.0283,-3.11279 6.6834,-3.47901 13.0921,-3.47901 l 5.7678,-0.1831 0.6409,0 q 5.0354,0 6.958,1.46484 l 0.7324,0 q 0.5493,0 0.5493,-0.64087 -1.2817,-5.76782 -4.4861,-11.44409 -2.7465,-4.66919 -10.437,-4.66919 l -5.1269,-0.64087 q -6.7749,1.28174 -6.7749,2.74658 -2.5635,3.2959 -3.2044,8.51441 -0.2746,0.64087 -4.5776,0.64087 l -0.824,0.1831 q -0.4578,0 -1.2817,2.19727 -3.5706,-0.54932 -3.5706,-1.46485 0.4578,-1.09863 1.0071,-9.24682 2.0142,-5.76782 9.613,-10.71167 3.6621,-2.10571 4.303,-2.10571 l 15.8386,-0.36622 z m -20.1416,45.1355 q 0.824,7.69043 2.1057,7.69043 l 1.2818,1.5564 0,0.1831 -1.1902,-0.1831 0,0.36621 q 2.655,3.20435 9.9792,6.22559 1.0071,0.45776 2.5635,0.64086 2.5635,0 17.5781,-7.41577 1.0071,-0.54931 1.0071,-1.46484 l 0,-0.64087 q -1.0986,-5.12695 -1.9226,-12.17651 l -0.1831,-0.0916 q 0,-1.37329 -2.8381,-2.28881 -9.3384,-2.65503 -12.8174,-2.65503 -9.5215,2.19726 -13.3667,6.40869 -2.1973,2.38037 -2.1973,3.84521 z" />
        <path
           id="path5033"
           style="font-style:normal;font-variant:normal;font-weight:normal;font-stretch:normal;font-size:93.75px;font-family:'Love Ya Like A Sister Solid';-inkscape-font-specification:'Love Ya Like A Sister Solid';fill:#363e40;fill-opacity:1"
           d="m 1532.4017,525.9068 4.2114,0 q 3.0213,0 9.8877,2.56348 2.4719,0 8.0567,3.29589 l 0.6408,0 q 1.3733,0 6.0425,-5.12695 1.0986,0 3.8452,3.57056 1.3733,0.64087 2.9297,2.38037 l 0,0.36621 q -7.2326,7.87354 -7.2326,8.78906 -3.3875,11.44409 -4.4861,12.81739 -2.1973,2.56347 -6.8665,4.48608 -5.5847,5.58472 -9.9792,5.58472 l -3.9368,0.1831 -8.2398,-0.82397 -1.5563,0 q -0.9156,0 -2.7466,8.3313 l 1.0071,0.36621 0.4577,0 q 1.8311,0 4.303,-1.64795 l 3.0212,-0.18311 5.127,0 q 12.1765,0 20.05,2.28882 0.824,0.73242 5.5848,2.83814 l 4.3945,3.11279 q 4.9438,4.21142 6.2256,7.78198 4.6692,9.06372 4.6692,15.1062 0,4.66919 -7.4158,11.8103 l -7.6904,5.49317 q -6.1341,3.84521 -14.5569,3.84521 l -3.5706,0.45777 q -22.6135,0 -30.5786,-9.15528 -5.9509,-3.66211 -5.9509,-9.24682 -2.1973,-3.84522 -2.1973,-10.62012 l -0.3662,-2.83813 0.3662,-1.64795 0.4578,0 q 0.3662,-2.10572 0,-1.5564 -0.2747,0.45776 -0.4578,-1.00708 0.3662,-2.47192 4.7608,-8.78906 4.8522,-4.66919 4.8522,-5.31006 1.2818,-10.71167 1.9227,-13.09204 -3.2044,-6.22559 -3.2044,-10.43701 l -0.1831,-2.10572 q 0,-2.10571 1.648,-7.96509 1.1901,-1.19018 5.4016,-6.86645 6.6833,-7.04956 11.3525,-7.04956 z m -9.0637,18.85986 0,0.64087 q 1.9226,9.61304 2.8381,9.61304 3.0213,2.92969 5.2185,3.38745 10.7117,-0.91553 18.3106,-10.89478 1.007,-1.7395 1.007,-2.74658 l 0,-1.9226 q 0,-2.19727 -3.0212,-6.22559 -6.8664,-2.92969 -9.5215,-2.92969 -6.2256,0 -11.5356,5.12695 -3.2959,4.11988 -3.2959,5.95093 z m 13.4582,36.71265 0.092,0.1831 0,0.27466 -2.0142,0.36621 -2.7466,-0.36621 -9.4299,0.18311 q -5.7678,5.31006 -5.7678,7.50732 l -0.824,0.82398 0,0.1831 q 1.0071,13.09204 2.5635,15.83863 0.1831,0.64086 4.6692,3.84521 0,1.00708 7.5073,3.02124 11.5357,1.7395 18.5852,1.7395 9.5215,-1.7395 13.0005,-5.40161 6.2256,-6.50024 6.2256,-10.43701 l 0,-0.64087 q 0,-2.38037 -4.9439,-8.5144 -0.7324,-1.64795 -3.8452,-3.47901 l -11.261,-4.48608 -7.9651,-0.18311 0.092,-0.82397 -0.092,-0.0915 -1.4648,0 q -1.6479,0 -2.3804,0.45776 z" />
        <path
           id="path5035"
           style="font-style:normal;font-variant:normal;font-weight:normal;font-stretch:normal;font-size:93.75px;font-family:'Love Ya Like A Sister Solid';-inkscape-font-specification:'Love Ya Like A Sister Solid';fill:#363e40;fill-opacity:1"
           d="m 1606.3961,528.56183 q 5.3101,0 13.0005,4.48608 6.5003,4.8523 6.5003,6.68335 5.0354,10.98633 5.0354,12.81739 l 0.091,1.00708 q -1.9226,4.39453 -1.9226,6.04248 l -0.7324,0.1831 -10.8948,0 q -1.5564,0 -3.5706,0.45776 -18.4021,-1.46484 -25.6347,-1.46484 l -2.7466,0 q -1.5564,2.28882 -1.5564,3.11279 0.9155,1.64795 0.9155,4.48609 0,4.94385 1.4649,5.76782 l 0.1831,0.64087 0,0.0915 -0.824,-0.27466 0,0.27466 1.2817,1.28174 q 0,1.83106 2.2889,4.21143 4.1198,7.41577 9.0637,9.15527 3.9367,1.37329 9.613,1.37329 0.824,0 3.5706,-1.5564 2.4719,-0.73242 9.613,-8.33129 l 0,-0.36622 q 0,-0.27465 -1.6479,-0.45776 l -0.2747,-0.64087 q 2.9297,-5.67627 7.0496,-7.32422 0.4577,0.54932 4.6692,3.47901 2.8381,4.48608 7.5073,10.2539 l 0,0.45777 q -4.1199,5.31006 -5.951,5.31006 l -0.4577,0 q 0,-2.83814 -3.3875,-3.20435 -0.7324,0 -5.5847,4.21143 -2.655,2.10571 -10.0708,4.30297 -8.5144,1.73951 -11.7187,1.73951 l -7.2327,-2.56348 q -6.0425,0 -11.1694,-6.5918 -2.1973,-2.19726 -3.5706,-5.58471 0,-0.82398 -2.8381,-10.52857 -0.824,-4.11987 -0.824,-7.04956 l 0,-0.1831 q 0,-17.12037 10.0708,-29.66309 1.4648,-3.11279 5.9509,-4.66919 2.6551,-0.73242 7.3242,-1.37329 1.0987,-0.45777 7.4158,0 z m -21.0571,21.60644 23.8037,0.18311 1.2817,0.45776 1.5564,-0.1831 q 5.4016,1.7395 6.8665,1.7395 0,0.36621 0.824,0.54932 0.8239,-1.00708 0.8239,-2.10572 l 0,-2.38037 q 0,-1.7395 -6.4087,-7.41577 -2.7465,-2.83813 -6.5917,-3.38745 l -4.303,-0.64087 q -10.5286,2.01416 -13.8245,5.12695 -1.2817,2.38037 -4.0283,8.05664 z" />
      </g>
      <g
         id="text4185"
         style="font-style:normal;font-variant:normal;font-weight:normal;font-stretch:normal;font-size:20px;line-height:125%;font-family:'Noto Sans';-inkscape-font-specification:'Noto Sans, Normal';text-align:start;letter-spacing:1.21000004px;word-spacing:0px;writing-mode:lr-tb;text-anchor:start;fill:#363e40;fill-opacity:1;stroke:none;stroke-width:1px;stroke-linecap:butt;stroke-linejoin:miter;stroke-opacity:1">
        <path
           id="path5000"
           style="font-style:normal;font-variant:normal;font-weight:normal;font-stretch:normal;font-size:93.75px;font-family:'Love Ya Like A Sister Solid';-inkscape-font-specification:'Love Ya Like A Sister Solid';fill:#363e40;fill-opacity:1"
           d="m 1121.4985,1227.1151 0.3662,0 q 2.2889,0 9.6131,1.4649 9.7046,0 25.177,5.2185 6.6833,5.1269 10.3454,12.5427 1.1902,4.2114 1.1902,7.8735 l 0,0.2747 q 0,5.5847 -4.6692,12.6343 -2.8381,3.5705 -8.0566,6.4086 -1.9226,1.648 -6.2256,4.0284 -2.1057,1.7395 -2.1057,2.2888 10.6201,15.1977 14.74,20.5994 3.7537,6.134 6.5918,6.134 9.613,0.5493 9.613,2.7466 0.2747,0 1.0071,6.0424 -0.091,0.6409 -0.9155,0.6409 l -1.0071,0 -7.1411,1.5564 q -0.824,-1.2817 -7.8736,-1.2817 -6.8664,0 -6.8664,-0.824 -0.3662,-2.0142 -1.2817,-5.127 l -0.092,-0.9155 0,-0.4577 q 0,-1.0987 -3.5706,-6.0425 -0.4577,-2.5635 -1.2817,-3.1128 -3.2043,-4.7608 -8.7891,-16.4795 -1.1901,-1.4649 -2.1972,-1.4649 l -7.8736,1.9227 q -5.4931,0 -5.4931,3.2043 l 0,2.1057 q 0,16.2048 2.4719,16.2048 l 1.5564,0.1832 1.4648,0 3.0213,-0.6409 q 0.824,1.6479 0.824,5.4016 l -0.4578,1.2817 0.091,2.2889 q 0,1.1901 -8.9721,2.3803 l -0.4578,-0.1831 -9.7961,-0.1831 -7.1411,0 q -1.2818,0 -1.2818,-3.2043 l 0,-2.1973 q 0,-4.8523 2.1973,-4.8523 l 5.7678,-1.2817 0.3662,-1.9226 q -1.0071,-27.7405 -1.9226,-36.3465 -0.1831,-27.832 -0.824,-27.832 l -0.4577,-0.1831 -8.6975,1.5564 -0.4578,-0.092 0.1831,-1.1902 -1.4648,0 0,-0.2746 -0.1831,0 0.1831,-1.648 0,-0.7324 q 0,-0.824 -1.0071,-2.5635 l 1.0071,-1.9226 0,-0.1831 q 0,-0.8239 11.0778,-2.3803 l 9.7046,-1.4649 z m 2.1057,10.5286 0,1.0071 1.0071,8.1482 q -0.7324,13.092 -1.1902,14.2822 l -0.7324,0.824 0,1.5563 0.9155,6.5918 q 0,4.4861 1.2818,4.4861 l 0.1831,0 q 9.7961,-1.3733 9.7961,-2.2888 6.0425,-2.1973 9.0638,-3.9368 5.7678,0 13.4582,-7.8735 2.1057,-4.2114 2.1057,-8.0566 l 0,-1.3733 q 0,-1.1902 -3.479,-6.7749 -6.5918,-7.3242 -12.3596,-7.3242 l -4.303,-0.3663 q -9.5215,1.0987 -15.7471,1.0987 z" />
        <path
           id="path5002"
           style="font-style:normal;font-variant:normal;font-weight:normal;font-stretch:normal;font-size:93.75px;font-family:'Love Ya Like A Sister Solid';-inkscape-font-specification:'Love Ya Like A Sister Solid';fill:#363e40;fill-opacity:1"
           d="m 1212.3387,1251.285 q 5.31,0 13.0004,4.4861 6.5003,4.8523 6.5003,6.6834 5.0354,10.9863 5.0354,12.8174 l 0.091,1.007 q -1.9226,4.3946 -1.9226,6.0425 l -0.7324,0.1831 -10.8948,0 q -1.5564,0 -3.5705,0.4578 -18.4021,-1.4649 -25.6348,-1.4649 l -2.7466,0 q -1.5564,2.2889 -1.5564,3.1128 0.9156,1.648 0.9156,4.4861 0,4.9439 1.4648,5.7678 l 0.1831,0.6409 0,0.092 -0.824,-0.2747 0,0.2747 1.2818,1.2817 q 0,1.8311 2.2888,4.2114 4.1199,7.4158 9.0637,9.1553 3.9368,1.3733 9.6131,1.3733 0.8239,0 3.5705,-1.5564 2.4719,-0.7324 9.6131,-8.3313 l 0,-0.3662 q 0,-0.2747 -1.648,-0.4578 l -0.2747,-0.6409 q 2.9297,-5.6762 7.0496,-7.3242 0.4578,0.5493 4.6692,3.479 2.8381,4.4861 7.5073,10.2539 l 0,0.4578 q -4.1199,5.3101 -5.9509,5.3101 l -0.4578,0 q 0,-2.8382 -3.3874,-3.2044 -0.7324,0 -5.5847,4.2114 -2.6551,2.1058 -10.0708,4.303 -8.5144,1.7395 -11.7188,1.7395 l -7.2327,-2.5635 q -6.0424,0 -11.1694,-6.5918 -2.1973,-2.1972 -3.5705,-5.5847 0,-0.8239 -2.8382,-10.5285 -0.824,-4.1199 -0.824,-7.0496 l 0,-0.1831 q 0,-17.1204 10.0708,-29.6631 1.4649,-3.1128 5.951,-4.6692 2.655,-0.7324 7.3242,-1.3733 1.0986,-0.4577 7.4158,0 z m -21.0572,21.6065 23.8037,0.1831 1.2818,0.4577 1.5564,-0.1831 q 5.4016,1.7395 6.8664,1.7395 0,0.3663 0.824,0.5494 0.824,-1.0071 0.824,-2.1058 l 0,-2.3803 q 0,-1.7395 -6.4087,-7.4158 -2.7466,-2.8381 -6.5918,-3.3874 l -4.303,-0.6409 q -10.5285,2.0141 -13.8244,5.1269 -1.2818,2.3804 -4.0284,8.0567 z" />
        <path
           id="path5004"
           style="font-style:normal;font-variant:normal;font-weight:normal;font-stretch:normal;font-size:93.75px;font-family:'Love Ya Like A Sister Solid';-inkscape-font-specification:'Love Ya Like A Sister Solid';fill:#363e40;fill-opacity:1"
           d="m 1287.1571,1244.5101 q 1.4648,1.1902 5.1269,1.8311 2.5635,0 10.6201,5.8594 l 1.7395,0.5493 0.6409,0 2.2888,1.0986 q 3.3875,2.5635 3.8452,3.8452 l 0,0.1831 q 0,0.7325 -1.4648,1.9226 -0.3662,2.0142 -5.3101,8.3313 l 0,0.4578 0.1831,1.2817 q -1.7395,0.1831 -3.6621,0.9156 -0.8239,0 -1.4648,-1.7395 -3.5706,-2.1973 -3.5706,-3.6621 l 1.4649,-4.0284 q 0,-2.4719 -8.3313,-3.479 l -8.3313,-0.5493 q -4.303,0 -11.7188,3.3875 -4.1199,2.1972 -6.4087,8.9721 -1.9226,6.2256 -3.0212,7.2327 l -0.4578,1.0986 q 0.3662,0 0.4578,0.824 l -0.824,5.7678 q 0.5493,0.2747 2.4719,7.5989 l -0.4577,0.824 0,0.4577 q 0.6408,0.6409 1.0071,4.2115 1.0986,3.7536 7.3242,6.8664 l 6.7749,4.9439 q 11.1694,0 19.8669,-4.9439 8.606,-7.4157 8.606,-9.8877 l -0.4578,-1.9226 0,-0.1831 q 0.092,-0.5493 5.5847,-6.134 0.3662,0 2.1057,1.9226 l 0,0.3662 -0.6408,0.1831 q 3.6621,0.7324 3.6621,2.8381 2.1057,2.8382 4.303,8.1482 0.6408,0 1.1901,2.9297 1.648,0.7324 1.9227,1.4649 0,1.0986 -1.648,1.2817 -3.0212,1.0986 -5.4016,4.1199 -4.3945,-4.4861 -4.6692,-4.4861 l -7.0496,4.4861 q -3.479,1.831 -6.4086,4.2114 l -13.1836,4.303 -2.0142,0.1831 q -4.2114,0 -12.085,-2.4719 -8.6059,-3.6621 -9.4299,-5.7679 -10.7117,-12.7258 -10.7117,-19.8669 l -0.3662,-4.303 q 1.0987,-4.4861 1.0987,-10.9863 l 3.3874,-8.1482 q 0,-3.5706 4.7608,-9.1553 2.655,-5.8593 13.916,-10.8947 4.5776,-1.4649 14.74,-2.1058 l 0,-0.1831 z" />
        <path
           id="path5006"
           style="font-style:normal;font-variant:normal;font-weight:normal;font-stretch:normal;font-size:93.75px;font-family:'Love Ya Like A Sister Solid';-inkscape-font-specification:'Love Ya Like A Sister Solid';fill:#363e40;fill-opacity:1"
           d="m 1363.715,1255.9542 1.0986,0 q 6.7749,3.2044 13.4583,8.606 6.4086,5.4931 6.4086,8.3313 l -0.1831,0 0.6409,2.2888 0.1831,0 q 0.2747,0.092 0.9155,3.6621 l 1.0071,2.5635 -0.1831,1.6479 0.3662,4.5777 q -0.6408,2.0141 -1.6479,8.3313 -0.5493,2.4719 -11.8103,18.1274 -4.9439,4.7608 -9.9793,4.7608 -4.9438,0.6408 -10.0708,0.6408 l -2.3803,0 q -2.2889,0 -11.3526,-3.6621 -11.5356,-10.437 -11.5356,-15.8386 -1.648,-3.5706 -2.7466,-6.4087 0,-1.4648 3.479,-10.8948 0,-5.8594 2.7466,-8.1482 5.8593,-12.9089 15.1062,-16.6626 7.8735,-2.9297 12.9089,-2.9297 l 3.5706,1.0071 z m -26.4588,38.9099 0,0.824 q 1.4649,3.0213 3.8452,7.3242 0,1.2818 4.8523,3.6621 2.2889,2.5635 8.606,4.0284 l 2.2888,0.2746 q 5.3101,-1.0986 8.3313,-2.3804 l 4.5776,-3.8452 q 7.0496,-7.5988 6.8665,-12.7258 l 0,-1.1902 q -0.7324,-2.1057 -0.7324,-6.6833 0,-3.2959 0.4577,-5.5848 0,-0.7324 -4.8523,-4.486 -3.6621,-4.9439 -7.5073,-6.1341 l -1.4648,0 q -14.8316,0.5493 -14.8316,2.3804 -3.2959,3.2959 -4.6692,6.5918 -4.0283,4.1199 -4.0283,5.5847 -1.0986,4.6692 -1.7395,12.3596 z" />
        <path
           id="path5008"
           style="font-style:normal;font-variant:normal;font-weight:normal;font-stretch:normal;font-size:93.75px;font-family:'Love Ya Like A Sister Solid';-inkscape-font-specification:'Love Ya Like A Sister Solid';fill:#363e40;fill-opacity:1"
           d="m 1414.5465,1248.63 4.2115,0 q 3.0212,0 9.8877,2.5635 2.4719,0 8.0566,3.2959 l 0.6409,0 q 1.3733,0 6.0425,-5.127 1.0986,0 3.8452,3.5706 1.3733,0.6409 2.9297,2.3804 l 0,0.3662 q -7.2327,7.8735 -7.2327,8.789 -3.3875,11.4441 -4.4861,12.8174 -2.1973,2.5635 -6.8665,4.4861 -5.5847,5.5847 -9.9792,5.5847 l -3.9368,0.1831 -8.2397,-0.824 -1.5564,0 q -0.9155,0 -2.7466,8.3313 l 1.0071,0.3663 0.4578,0 q 1.831,0 4.3029,-1.648 l 3.0213,-0.1831 5.1269,0 q 12.1765,0 20.0501,2.2888 0.8239,0.7324 5.5847,2.8382 l 4.3945,3.1127 q 4.9439,4.2115 6.2256,7.782 4.6692,9.0637 4.6692,15.1062 0,4.6692 -7.4158,11.8103 l -7.6904,5.4932 q -6.134,3.8452 -14.5569,3.8452 l -3.5705,0.4578 q -22.6136,0 -30.5787,-9.1553 -5.9509,-3.6621 -5.9509,-9.2468 -2.1973,-3.8452 -2.1973,-10.6201 l -0.3662,-2.8382 0.3662,-1.6479 0.4578,0 q 0.3662,-2.1057 0,-1.5564 -0.2746,0.4577 -0.4578,-1.0071 0.3663,-2.4719 4.7608,-8.7891 4.8523,-4.6692 4.8523,-5.31 1.2817,-10.7117 1.9226,-13.0921 -3.2044,-6.2256 -3.2044,-10.437 l -0.1831,-2.1057 q 0,-2.1057 1.648,-7.9651 1.1902,-1.1902 5.4016,-6.8664 6.6833,-7.0496 11.3525,-7.0496 z m -9.0637,18.8599 0,0.6408 q 1.9226,9.6131 2.8382,9.6131 3.0212,2.9297 5.2185,3.3874 10.7116,-0.9155 18.3105,-10.8947 1.0071,-1.7396 1.0071,-2.7466 l 0,-1.9226 q 0,-2.1973 -3.0213,-6.2256 -6.8664,-2.9297 -9.5214,-2.9297 -6.2256,0 -11.5357,5.1269 -3.2959,4.1199 -3.2959,5.951 z m 13.4583,36.7126 0.091,0.1831 0,0.2747 -2.0141,0.3662 -2.7466,-0.3662 -9.43,0.1831 q -5.7678,5.31 -5.7678,7.5073 l -0.8239,0.824 0,0.1831 q 1.007,13.092 2.5634,15.8386 0.1831,0.6409 4.6692,3.8452 0,1.0071 7.5073,3.0213 11.5357,1.7395 18.5852,1.7395 9.5215,-1.7395 13.0005,-5.4016 6.2256,-6.5003 6.2256,-10.4371 l 0,-0.6408 q 0,-2.3804 -4.9438,-8.5144 -0.7324,-1.648 -3.8452,-3.479 l -11.261,-4.4861 -7.9651,-0.1831 0.091,-0.824 -0.091,-0.091 -1.4649,0 q -1.6479,0 -2.3803,0.4577 z" />
        <path
           id="path5010"
           style="font-style:normal;font-variant:normal;font-weight:normal;font-stretch:normal;font-size:93.75px;font-family:'Love Ya Like A Sister Solid';-inkscape-font-specification:'Love Ya Like A Sister Solid';fill:#363e40;fill-opacity:1"
           d="m 1463.5471,1250.7357 q 3.2043,0.4578 6.0424,0.4578 l 10.4371,0 0.2746,0.3662 q -0.6409,2.3804 -0.6409,3.6621 l 0,2.1973 q 0.4578,3.5705 1.9226,3.5705 0.824,-1.3733 5.127,-2.7466 10.1624,-4.486 16.8457,-4.486 4.303,0 9.3384,3.8452 3.6621,1.4648 7.0495,5.9509 5.127,8.1482 5.127,19.5007 l 0,1.0071 -0.824,9.1553 0.824,6.6833 -1.2817,5.951 0,0.1831 0.091,1.0986 4.8523,0.1831 2.1057,0 q 2.1057,0 2.655,0.4578 -0.7324,9.2468 -2.0141,9.2468 -2.3804,1.4648 -5.4932,1.4648 l -2.5635,0 q -5.8593,0 -12.8173,1.648 -4.4861,-0.5493 -4.4861,-4.4861 l -0.1831,-4.3945 q 0,-4.303 2.1057,-6.2256 1.0986,-6.0425 2.7466,-11.3525 l 0.8239,-11.261 q 0.2747,0 0.2747,-2.8382 0,-3.2959 -5.4016,-9.7961 -4.0283,-1.7395 -4.8523,-1.7395 -7.2327,0 -13.2752,6.2256 -0.4577,0 -6.134,6.2256 -1.9226,1.4648 -1.9226,8.5144 0.2747,12.8173 1.0071,12.8173 4.9438,0.9156 4.9438,1.9227 l 0,0.6408 0.1831,1.648 q 0.824,0.9155 0.824,3.0212 l 0,0.1831 q 0,2.9297 -1.2817,6.4087 l -14.74,0.2747 q -2.3804,0 -3.2044,-2.1973 -0.6408,-2.5635 -1.1901,-9.3384 0,-0.7324 3.8452,-1.5564 l 0.6408,-0.824 0,-0.1831 q 0,-0.6408 -1.0986,-2.1057 l 0.1831,-3.9367 0,-7.2327 0.4578,-11.7188 q 0,-11.9934 -1.0987,-11.9934 l -0.6408,0 -5.951,0.824 q -0.9155,0 -2.3803,-1.6479 l 0,-0.4578 q 0.6408,-0.824 0.6408,-2.1057 l -0.1831,-4.6692 1.9226,-5.7678 0.3663,-0.2747 z" />
        <path
           id="path5012"
           style="font-style:normal;font-variant:normal;font-weight:normal;font-stretch:normal;font-size:93.75px;font-family:'Love Ya Like A Sister Solid';-inkscape-font-specification:'Love Ya Like A Sister Solid';fill:#363e40;fill-opacity:1"
           d="m 1559.9719,1224.7347 q 4.3946,0 7.0496,4.4861 l 0.824,4.2115 q -0.1831,2.1057 -2.7466,6.2255 -1.7395,1.648 -5.127,1.648 -7.9651,0 -9.9792,-2.4719 -1.9226,-2.472 -1.7395,-7.0496 -0.4578,0 -0.4578,-0.2747 l 0,-0.1831 q 3.7537,-5.9509 7.8735,-5.9509 1.0071,-0.3662 4.303,-0.6409 z m -17.1203,24.9024 q 1.0986,0.824 2.5634,0.824 l 1.5564,-0.7325 q 17.3035,0 17.3035,1.0071 l 0.1831,0.824 0,2.1973 q 1.0071,2.3803 1.0071,4.9438 l 0,1.9226 q -1.2818,17.6697 -1.9226,33.6914 -0.4578,0.7324 -0.5493,2.5635 0.2746,0.6409 1.1901,0.6409 l 0.4578,0 q 6.8665,0 6.8665,1.5564 l -0.1831,0.1831 0,0.8239 q 1.4648,3.0213 1.4648,9.6131 l 0.4578,5.1269 -0.2747,0.2747 -5.5847,0.1831 -12.7258,0 q -14.3738,0 -14.3738,-2.1973 0,-1.3733 -0.6409,-2.7466 0.3662,-1.007 1.2818,-1.4648 l 0.2746,0 q -0.6409,-1.0986 -0.6409,-2.1057 l -0.091,-1.0986 0,-1.4649 -0.3662,-3.2043 q 0,-1.3733 9.613,-1.3733 1.2818,0 1.2818,-5.6763 l 1.4648,-33.4167 -0.1831,0 q -4.7607,0 -3.2959,-0.9156 -7.5989,0 -7.5989,-1.7395 -0.4577,-0.1831 -0.4577,-1.007 l 0.6408,-1.5564 q 0,-0.4578 -0.824,-1.2818 l 0,-0.1831 q 1.0987,-0.7324 1.4649,-4.0283 l 0.1831,-0.1831 0.4578,0 z" />
        <path
           id="path5014"
           style="font-style:normal;font-variant:normal;font-weight:normal;font-stretch:normal;font-size:93.75px;font-family:'Love Ya Like A Sister Solid';-inkscape-font-specification:'Love Ya Like A Sister Solid';fill:#363e40;fill-opacity:1"
           d="m 1632.2268,1249.8202 q 0,0.6409 3.6621,0.9155 0.6409,3.0213 0.6409,8.3313 0,0.7324 -1.5564,2.5635 -2.7466,2.7466 -5.4931,6.958 -11.8103,11.261 -34.7901,33.5083 -1.0071,1.8311 -1.0071,2.4719 l 0.3662,0.2747 10.8948,0.3662 13.0921,0 10.1623,-0.6409 0.092,-2.3803 0.6408,-5.8594 q 7.9651,-1.0987 9.43,0 2.5634,0 2.2888,11.7187 1.5564,7.782 -8.606,7.2327 l 0,-0.3662 1.0987,0 q -1.9226,-0.6409 -10.6202,-0.092 -6.4086,0.7325 -18.0358,0.7325 -17.5782,0 -21.9727,-2.0142 -2.2888,0 -2.2888,-3.2044 -0.3662,-1.2817 -0.9155,-10.8032 l 12.8173,-10.7116 q 19.4092,-12.909 24.9024,-20.2332 l 3.9368,-4.6692 0,-0.6409 q -17.7613,-1.2817 -21.6065,-1.2817 l -7.3242,0 0,0.9155 q 0,0.6409 -1.0071,2.5635 l -0.4578,1.9226 0,0.1831 0.1831,3.5706 -0.6408,0.2746 -4.6692,0.3662 q -6.4087,-1.1901 -6.4087,-2.2888 0.824,0 1.9226,-13.4582 0.1831,-3.479 0.6409,-4.7608 l 0.1831,0 4.7607,0.9156 q 7.9651,-0.7325 42.7551,-1.5564 l 2.9297,-0.824 z" />
        <path
           id="path5016"
           style="font-style:normal;font-variant:normal;font-weight:normal;font-stretch:normal;font-size:93.75px;font-family:'Love Ya Like A Sister Solid';-inkscape-font-specification:'Love Ya Like A Sister Solid';fill:#363e40;fill-opacity:1"
           d="m 1676.9244,1251.285 q 5.31,0 13.0005,4.4861 6.5002,4.8523 6.5002,6.6834 5.0354,10.9863 5.0354,12.8174 l 0.092,1.007 q -1.9226,4.3946 -1.9226,6.0425 l -0.7325,0.1831 -10.8947,0 q -1.5564,0 -3.5706,0.4578 -18.4021,-1.4649 -25.6348,-1.4649 l -2.7465,0 q -1.5564,2.2889 -1.5564,3.1128 0.9155,1.648 0.9155,4.4861 0,4.9439 1.4648,5.7678 l 0.1831,0.6409 0,0.092 -0.8239,-0.2747 0,0.2747 1.2817,1.2817 q 0,1.8311 2.2888,4.2114 4.1199,7.4158 9.0637,9.1553 3.9368,1.3733 9.6131,1.3733 0.8239,0 3.5705,-1.5564 2.472,-0.7324 9.6131,-8.3313 l 0,-0.3662 q 0,-0.2747 -1.648,-0.4578 l -0.2746,-0.6409 q 2.9296,-5.6762 7.0495,-7.3242 0.4578,0.5493 4.6692,3.479 2.8381,4.4861 7.5073,10.2539 l 0,0.4578 q -4.1198,5.3101 -5.9509,5.3101 l -0.4578,0 q 0,-2.8382 -3.3874,-3.2044 -0.7324,0 -5.5847,4.2114 -2.6551,2.1058 -10.0708,4.303 -8.5144,1.7395 -11.7188,1.7395 l -7.2326,-2.5635 q -6.0425,0 -11.1695,-6.5918 -2.1972,-2.1972 -3.5705,-5.5847 0,-0.8239 -2.8382,-10.5285 -0.8239,-4.1199 -0.8239,-7.0496 l 0,-0.1831 q 0,-17.1204 10.0708,-29.6631 1.4648,-3.1128 5.9509,-4.6692 2.655,-0.7324 7.3242,-1.3733 1.0986,-0.4577 7.4158,0 z m -21.0572,21.6065 23.8038,0.1831 1.2817,0.4577 1.5564,-0.1831 q 5.4016,1.7395 6.8664,1.7395 0,0.3663 0.824,0.5494 0.824,-1.0071 0.824,-2.1058 l 0,-2.3803 q 0,-1.7395 -6.4087,-7.4158 -2.7466,-2.8381 -6.5918,-3.3874 l -4.303,-0.6409 q -10.5285,2.0141 -13.8244,5.1269 -1.2818,2.3804 -4.0284,8.0567 z" />
      </g>
      <g
         id="text4189"
         style="font-style:normal;font-variant:normal;font-weight:normal;font-stretch:normal;font-size:20px;line-height:125%;font-family:'Noto Sans';-inkscape-font-specification:'Noto Sans, Normal';text-align:start;letter-spacing:1.21000004px;word-spacing:0px;writing-mode:lr-tb;text-anchor:start;fill:#363e40;fill-opacity:1;stroke:none;stroke-width:1px;stroke-linecap:butt;stroke-linejoin:miter;stroke-opacity:1">
        <path
           id="path4985"
           style="font-style:normal;font-variant:normal;font-weight:normal;font-stretch:normal;font-size:106.25px;font-family:'Love Ya Like A Sister Solid';-inkscape-font-specification:'Love Ya Like A Sister Solid';fill:#363e40;fill-opacity:1"
           d="m 131.578,989.13354 0.41504,0 q 2.594,0 10.89478,1.66016 10.99853,0 28.53393,5.91431 7.57447,5.81059 11.72486,14.21509 1.34887,4.7729 1.34887,8.9233 l 0,0.3113 q 0,6.3294 -5.29174,14.3189 -3.21656,4.0466 -9.13086,7.2631 -2.17896,1.8677 -7.05567,4.5655 -2.38647,1.9714 -2.38647,2.594 12.03613,17.2241 16.70532,23.3459 4.25415,6.9519 7.4707,6.9519 10.89478,0.6226 10.89478,3.1128 0.31128,0 1.14136,6.8482 -0.10376,0.7263 -1.0376,0.7263 l -1.14136,0 -8.09326,1.7639 q -0.93384,-1.4526 -8.92334,-1.4526 -7.78198,0 -7.78198,-0.9339 -0.41504,-2.2827 -1.45264,-5.8105 l -0.10376,-1.0376 0,-0.5188 q 0,-1.2451 -4.04663,-6.8482 -0.5188,-2.9052 -1.45264,-3.5278 -3.63159,-5.3955 -9.96094,-18.6768 -1.34887,-1.6601 -2.49023,-1.6601 l -8.92334,2.1789 q -6.22559,0 -6.22559,3.6316 l 0,2.3865 q 0,18.3655 2.80152,18.3655 l 1.76391,0.2075 1.66016,0 3.42407,-0.7263 q 0.93384,1.8677 0.93384,6.1218 l -0.5188,1.4526 0.10376,2.594 q 0,1.3489 -10.16846,2.6978 l -0.51879,-0.2075 -11.1023,-0.2075 -8.09326,0 q -1.45264,0 -1.45264,-3.6316 l 0,-2.4903 q 0,-5.4992 2.49024,-5.4992 l 6.53686,-1.4527 0.41504,-2.1789 q -1.14136,-31.4392 -2.17895,-41.1927 -0.20752,-31.5429 -0.93384,-31.5429 l -0.5188,-0.2075 -9.85718,1.7639 -0.5188,-0.1038 0.20752,-1.3489 -1.66015,0 0,-0.3112 -0.20752,0 0.20752,-1.86772 0,-0.83008 q 0,-0.93383 -1.14136,-2.90527 l 1.14136,-2.17896 0,-0.20751 q 0,-0.93384 12.55493,-2.69776 l 10.99853,-1.66016 z m 2.38648,11.93236 0,1.1414 1.14135,9.2346 q -0.83007,14.8376 -1.34887,16.1865 l -0.83008,0.9339 0,1.7639 1.0376,7.4707 q 0,5.0842 1.45263,5.0842 l 0.20752,0 q 11.1023,-1.5564 11.1023,-2.594 6.84814,-2.4902 10.27222,-4.4617 6.53686,0 15.25268,-8.9233 2.38648,-4.7729 2.38648,-9.1309 l 0,-1.5564 q 0,-1.3488 -3.94288,-7.6782 -7.4707,-8.3008 -14.00756,-8.3008 l -4.87671,-0.415 q -10.79102,1.2451 -17.84668,1.2451 z" />
        <path
           id="path4987"
           style="font-style:normal;font-variant:normal;font-weight:normal;font-stretch:normal;font-size:106.25px;font-family:'Love Ya Like A Sister Solid';-inkscape-font-specification:'Love Ya Like A Sister Solid';fill:#363e40;fill-opacity:1"
           d="m 234.36881,1016.5261 q 6.01807,0 14.73389,5.0843 7.36694,5.4992 7.36694,7.5744 5.70679,12.4512 5.70679,14.5264 l 0.10376,1.1413 q -2.17896,4.9805 -2.17896,6.8482 l -0.83007,0.2075 -12.34742,0 q -1.76391,0 -4.04663,0.5188 -20.85571,-1.6602 -29.05273,-1.6602 l -3.11279,0 q -1.76392,2.594 -1.76392,3.5279 1.0376,1.8677 1.0376,5.0842 0,5.603 1.66015,6.5369 l 0.20752,0.7263 0,0.1037 -0.93383,-0.3112 0,0.3112 1.45263,1.4527 q 0,2.0752 2.594,4.7729 4.66919,8.4046 10.27221,10.376 4.46167,1.5564 10.89478,1.5564 0.93384,0 4.04663,-1.7639 2.80151,-0.8301 10.89477,-9.4421 l 0,-0.4151 q 0,-0.3113 -1.86767,-0.5188 l -0.31128,-0.7263 q 3.32031,-6.4331 7.9895,-8.3008 0.5188,0.6226 5.29175,3.9429 3.21655,5.0842 8.5083,11.6211 l 0,0.5188 q -4.66919,6.018 -6.74438,6.018 l -0.5188,0 q 0,-3.2165 -3.83911,-3.6315 -0.83008,0 -6.32935,4.7729 -3.00903,2.3865 -11.41357,4.8767 -9.64966,1.9714 -13.28125,1.9714 l -8.19703,-2.9052 q -6.84814,0 -12.65869,-7.4707 -2.49023,-2.4903 -4.04663,-6.3294 0,-0.9338 -3.21655,-11.9323 -0.93384,-4.6692 -0.93384,-7.9895 l 0,-0.2076 q 0,-19.403 11.41358,-33.6181 1.66015,-3.5279 6.74438,-5.2918 3.00903,-0.8301 8.30078,-1.5564 1.24512,-0.5188 8.40454,0 z m -23.86474,24.4873 26.97754,0.2075 1.45263,0.5188 1.76392,-0.2075 q 6.12182,1.9715 7.78198,1.9715 0,0.415 0.93384,0.6225 0.93384,-1.1413 0.93384,-2.3865 l 0,-2.6977 q 0,-1.9714 -7.26319,-8.4045 -3.11279,-3.2166 -7.4707,-3.8392 l -4.87671,-0.7263 q -11.93237,2.2827 -15.66772,5.8106 -1.45264,2.6977 -4.56543,9.1308 z" />
        <path
           id="path4989"
           style="font-style:normal;font-variant:normal;font-weight:normal;font-stretch:normal;font-size:106.25px;font-family:'Love Ya Like A Sister Solid';-inkscape-font-specification:'Love Ya Like A Sister Solid';fill:#363e40;fill-opacity:1"
           d="m 319.00166,1008.8479 q 1.66016,1.3489 5.81055,2.0752 2.90527,0 12.03613,6.6406 l 1.97144,0.6226 0.72632,0 2.59399,1.2451 q 3.83911,2.9053 4.35791,4.3579 l 0,0.2075 q 0,0.8301 -1.66016,2.179 -0.41503,2.2827 -6.01806,9.4421 l 0,0.5188 0.20752,1.4527 q -1.97144,0.2075 -4.15039,1.0376 -0.93384,0 -1.66016,-1.9715 -4.04663,-2.4902 -4.04663,-4.1504 l 1.66016,-4.5654 q 0,-2.8015 -9.44214,-3.9429 l -9.44214,-0.6225 q -4.87671,0 -13.28125,3.8391 -4.66919,2.4902 -7.26318,10.1684 -2.17896,7.0557 -3.42408,8.1971 l -0.5188,1.2451 q 0.41504,0 0.5188,0.9338 l -0.93383,6.5369 q 0.62255,0.3113 2.80151,8.612 l -0.5188,0.9339 0,0.5188 q 0.72632,0.7263 1.14136,4.7729 1.24511,4.2542 8.30078,7.782 l 7.67822,5.603 q 12.65869,0 22.51587,-5.603 9.75342,-8.4045 9.75342,-11.206 l -0.5188,-2.179 0,-0.2075 q 0.10376,-0.6226 6.32935,-6.9519 0.41503,0 2.38647,2.1789 l 0,0.4151 -0.72632,0.2075 q 4.15039,0.8301 4.15039,3.2165 2.38648,3.2166 4.87671,9.2347 0.72632,0 1.34888,3.3203 1.86767,0.83 2.17895,1.6601 0,1.2451 -1.86767,1.4527 -3.42407,1.2451 -6.12183,4.6692 -4.98047,-5.0843 -5.29175,-5.0843 l -7.9895,5.0843 q -3.94287,2.0751 -7.26318,4.7729 l -14.94141,4.8767 -2.28271,0.2075 q -4.77295,0 -13.69629,-2.8015 -9.75342,-4.1504 -10.68726,-6.5368 -12.13989,-14.4227 -12.13989,-22.5159 l -0.41504,-4.8767 q 1.24512,-5.0843 1.24512,-12.4512 l 3.83911,-9.2346 q 0,-4.0466 5.39551,-10.376 3.00903,-6.6406 15.77148,-12.3474 5.18799,-1.6602 16.70532,-2.3865 l 0,-0.2075 z" />
        <path
           id="path4991"
           style="font-style:normal;font-variant:normal;font-weight:normal;font-stretch:normal;font-size:106.25px;font-family:'Love Ya Like A Sister Solid';-inkscape-font-specification:'Love Ya Like A Sister Solid';fill:#363e40;fill-opacity:1"
           d="m 417.74585,1021.6104 q 5.60303,0 9.44214,7.9895 0.83008,0 2.07519,1.8676 l 1.97144,10.6873 q -1.24512,1.6601 -7.67822,1.6601 l -1.45264,0 q -5.39551,-0.7263 -5.39551,-3.6316 0,-2.0751 -3.32031,-5.4992 -0.41504,-0.7263 -6.12183,-0.7263 -5.70678,0 -13.28125,2.9052 -5.18799,5.2918 -7.26318,8.9234 1.0376,26.1474 0.72632,30.9204 0,1.2451 1.76391,1.2451 l 3.52784,0 q 2.28271,0.1038 2.28271,0.7263 l 0,0.2075 0.5188,1.9715 -0.31128,7.9895 -0.83008,1.1413 -6.74438,0.6226 -0.62256,0 -2.90527,0.9338 q -16.49781,-0.5188 -16.49781,-1.2451 -2.90527,0 -2.90527,-2.594 -0.31128,-1.9714 -0.31128,-5.3955 0,-2.6977 5.60303,-3.6316 0,-1.1413 3.83911,-1.1413 l 0.5188,-0.1038 0,-0.2075 -0.93384,-39.4287 q 0,-3.6316 -1.76392,-3.6316 l -0.93383,0 q -1.76392,0 -5.81055,1.4526 l -0.20752,-0.2075 0,-0.3113 q 0,-0.3113 1.14136,-0.7263 l 0,-0.2075 q -1.45264,0 -1.45264,-8.197 -0.20752,0 -0.41504,-2.4903 5.91431,-4.5654 12.03613,-4.5654 l 3.6316,0 q 1.86767,0 7.26318,1.4526 l 0.20752,0.5188 q -1.34888,1.7639 -1.34888,2.9053 l 0,0.9338 q 11.6211,-5.2917 31.95801,-3.1127 z" />
        <path
           id="path4993"
           style="font-style:normal;font-variant:normal;font-weight:normal;font-stretch:normal;font-size:106.25px;font-family:'Love Ya Like A Sister Solid';-inkscape-font-specification:'Love Ya Like A Sister Solid';fill:#363e40;fill-opacity:1"
           d="m 448.00858,1017.3562 9.85717,3.2166 q 0.31128,2.3864 1.76392,4.7729 l 0.20752,1.4526 q -1.24512,8.8196 -0.62256,38.3912 0,4.2541 3.32031,5.4992 l 1.0376,2.3865 q 0,0.9338 9.64966,1.5564 l 0.5188,0 q 2.90527,0 7.4707,-6.5369 3.63159,-3.6316 4.56543,-5.3955 l 0.72632,0 0,-0.9338 -0.20752,-0.7263 q 0.72632,-1.2452 1.24512,-3.8391 l 0.20752,-0.1038 0,-1.3489 2.59399,-27.3926 0,-2.4902 -0.41504,-1.4526 0,-0.2076 q 1.66016,-1.1413 1.66016,-3.6315 0,-1.3489 1.03759,-1.6602 l 3.32032,1.6602 3.21655,0 q 5.70679,0 8.19702,2.4902 l 0,0.6225 q 0.41504,1.764 0.72632,1.764 0.5188,0.7263 0.72632,2.3864 l -1.45264,17.9505 0.20752,0.2075 0,0.2075 q -0.93384,2.8015 -1.97143,17.4317 l 0,4.1503 q 0,9.4422 0.83007,9.4422 l 0.62256,0 q 2.90528,0 8.30078,-1.2451 0.83008,0.1037 2.594,1.7639 -0.5188,12.8662 -1.66016,12.8662 l -1.66016,-1.2451 -4.35791,0.415 -15.979,-0.415 q -1.24512,0 -2.49023,-5.8106 -0.93384,-0.83 -0.93384,-1.7639 l 0.20752,-1.3489 -0.41504,0 q -1.14136,0 -8.5083,3.8392 -0.41504,0.9338 -9.96094,4.3579 -2.38647,1.2451 -5.81055,2.1789 -2.17895,-1.2451 -6.9519,-2.4902 -9.0271,-8.9234 -11.1023,-15.8753 -3.63159,-5.188 -3.63159,-22.6196 l 1.5564,-16.9128 0,-0.3113 q 0,-0.5188 -9.85718,-1.9714 -0.93384,-1.3489 -0.93384,-7.1595 0,-3.9428 1.45264,-3.9428 0,-1.6602 11.1023,-2.179 z" />
        <path
           id="path4995"
           style="font-style:normal;font-variant:normal;font-weight:normal;font-stretch:normal;font-size:106.25px;font-family:'Love Ya Like A Sister Solid';-inkscape-font-specification:'Love Ya Like A Sister Solid';fill:#363e40;fill-opacity:1"
           d="m 547.8941,986.43579 q 4.98047,0 7.98951,5.08423 l 0.93383,4.77295 q -0.20752,2.38647 -3.11279,7.05563 -1.97143,1.8677 -5.81055,1.8677 -9.0271,0 -11.30981,-2.8015 -2.17896,-2.80152 -1.97144,-7.98951 -0.51879,0 -0.51879,-0.31128 l 0,-0.20752 q 4.25415,-6.74438 8.92334,-6.74438 1.14135,-0.41504 4.8767,-0.72632 z m -19.40307,28.22261 q 1.24512,0.9339 2.90527,0.9339 l 1.76392,-0.8301 q 19.61059,0 19.61059,1.1414 l 0.20752,0.9338 0,2.4902 q 1.14136,2.6978 1.14136,5.6031 l 0,2.1789 q -1.45264,20.0257 -2.17896,38.1836 -0.51879,0.8301 -0.62255,2.9053 0.31128,0.7263 1.34887,0.7263 l 0.5188,0 q 7.78198,0 7.78198,1.7639 l -0.20752,0.2075 0,0.9339 q 1.66016,3.4241 1.66016,10.8948 l 0.5188,5.8105 -0.31128,0.3113 -6.32934,0.2075 -14.42261,0 q -16.29029,0 -16.29029,-2.4902 0,-1.5564 -0.72631,-3.1128 0.41504,-1.1414 1.45263,-1.6602 l 0.31128,0 q -0.72632,-1.2451 -0.72632,-2.3865 l -0.10376,-1.2451 0,-1.6601 -0.41504,-3.6316 q 0,-1.5564 10.89478,-1.5564 1.45264,0 1.45264,-6.4331 l 1.66015,-37.8723 -0.20752,0 q -5.3955,0 -3.73535,-1.0376 -8.61206,0 -8.61206,-1.9715 -0.5188,-0.2075 -0.5188,-1.1413 l 0.72632,-1.7639 q 0,-0.5188 -0.93384,-1.4527 l 0,-0.2075 q 1.24512,-0.8301 1.66016,-4.5654 l 0.20752,-0.2076 0.5188,0 z" />
        <path
           id="path4997"
           style="font-style:normal;font-variant:normal;font-weight:normal;font-stretch:normal;font-size:106.25px;font-family:'Love Ya Like A Sister Solid';-inkscape-font-specification:'Love Ya Like A Sister Solid';fill:#363e40;fill-opacity:1"
           d="m 600.56897,973.05078 q 3.32031,0 5.29175,1.66016 -1.66016,4.15039 -2.38648,14.52636 l -1.24511,13.1775 q 0,1.1414 5.60302,1.1414 17.12036,0 17.12036,1.4526 0.5188,0 1.76392,0.9338 -1.45264,2.0752 -1.45264,2.6978 l 0,0.5188 1.24512,2.6977 q 0.20752,7.782 -0.62256,9.4422 l 0,0.2075 -4.98047,-0.5188 0,-0.415 -0.5188,-0.1038 -9.64965,0.1038 -8.09326,-0.1038 q -0.62256,0 -1.45264,8.0933 l -0.20752,0 -0.41504,1.8676 0.41504,-0.9338 0.20752,0.5188 -1.14136,13.6963 q 1.86768,29.8828 3.11279,29.8828 0.5188,4.5654 3.6316,4.5654 1.76391,0.9339 3.94287,0.9339 l 2.59399,0 8.5083,-0.4151 q 0.62256,0 1.14136,7.6782 0.62256,4.5655 -5.08423,4.5655 l -11.10229,0.3113 q -9.33838,0 -15.25269,-5.0843 -4.04663,-1.5564 -4.04663,-8.7158 -0.5188,-5.7068 -1.0376,-23.0347 l 1.76392,-19.6106 0.41504,-8.5083 0,-1.1413 q -0.93384,-6.0181 -3.42408,-6.0181 l -4.25415,-0.1037 -5.08422,0 q -2.0752,0 -4.46167,1.0376 -1.45264,-0.2076 -3.52784,-3.8392 l 2.90528,-12.8662 q 0,-0.5188 17.43164,-0.7263 0,-1.9714 2.07519,-4.66918 0.5188,-22.4121 1.45264,-22.4121 l 0,-0.5188 q 0,-0.31128 -0.62256,-0.31128 l 0,-0.41504 q 0,-0.5188 9.44214,-1.24512 z" />
      </g>
      <g
         transform="translate(8,17.999977)"
         id="g4456">
        <path
           style="color:#000000;display:inline;overflow:visible;visibility:visible;opacity:1;fill:#363e40;fill-opacity:1;fill-rule:nonzero;stroke:#363e40;stroke-width:20.00000191;stroke-linecap:butt;stroke-linejoin:miter;stroke-miterlimit:4;stroke-dasharray:none;stroke-dashoffset:0;stroke-opacity:1;marker:none;enable-background:accumulate"
           id="path4266"
           d="m 1607.6384,183.10979 c -15.9296,-1.73949 -31.9645,-2.94709 -48.0035,-4.15243 -39.0407,-2.62863 -78.3276,-3.05566 -117.5394,-3.15325 -45.4139,-0.0398 -90.7968,1.38284 -135.9556,4.56685 -28.3596,1.99953 -46.5808,3.8502 -74.9152,6.47763 -67.0363,6.8681 -133.3065,16.79207 -198.4034,29.32638 -13.4046,2.5811 -26.7116,5.37619 -40.06742,8.06431 -52.28951,10.92893 -104.01383,23.33666 -153.61984,38.81507 -30.47663,9.50945 -39.00084,13.05332 -68.22649,23.78952 -41.91932,16.64789 -82.05038,35.2853 -119.65001,55.91655 -23.09292,12.67127 -29.92922,17.26465 -51.733,30.69811 -36.86564,23.84286 -71.30389,49.43093 -101.69801,76.95604 -5.48146,4.96405 -10.64506,10.07605 -15.96758,15.11411 -19.58609,19.47777 -37.0092,39.94496 -51.3383,61.31922 -8.61973,12.85777 -14.09214,22.9538 -21.6585,36.13911 -16.33363,28.53436 -29.71804,57.86338 -38.17224,87.86265 -1.50993,5.35788 -2.6726,10.75544 -4.0089,16.1332 -5.14171,25.73398 -7.76471,51.66808 -9.42215,77.59137 -0.79196,9.31569 -0.68428,18.62626 0.4502,27.92184 0.45283,2.30997 0.72393,4.80774 1.89855,7.02807 0.61314,1.40313 0.2975,0.64962 0.93536,2.2626 4.44907,11.39338 -20.09388,15.52414 -24.54296,4.1307 l 0,0 c -0.48548,-1.26703 -0.2088,-0.57995 -0.84459,-2.05861 -1.30006,-3.39216 -2.25663,-6.87351 -2.4265,-10.37532 -0.63548,-9.93311 -0.31672,-19.86116 0.96117,-29.77243 2.79253,-26.41663 5.88749,-52.85524 11.26512,-79.10464 3.90059,-15.06539 4.54692,-18.88038 9.85041,-33.92764 8.7052,-24.69874 20.48753,-48.88203 34.11137,-72.59017 6.66462,-11.7778 14.30363,-25.76798 21.93125,-37.32216 14.63331,-22.16637 32.8962,-43.27772 53.30719,-63.35094 5.53297,-5.1714 10.90887,-10.41676 16.59891,-15.51419 31.31204,-28.05095 66.67392,-54.14595 104.63574,-78.37293 22.64206,-13.83279 29.13175,-18.18175 53.08702,-31.24826 38.5594,-21.03245 79.59782,-40.11839 122.61667,-57.01412 29.9822,-10.89447 38.70112,-14.47562 69.94004,-24.13736 50.41186,-15.59161 102.90035,-28.14093 155.9525,-39.23672 13.50729,-2.72013 26.96559,-5.54725 40.52189,-8.16044 65.927,-12.70857 132.9903,-22.90483 200.8582,-29.99629 29.0029,-2.75946 46.7978,-4.61393 75.8398,-6.74289 35.2052,-2.58083 70.4396,-4.05037 105.8356,-4.79014 10.6475,-0.22249 21.2991,-0.34847 31.9485,-0.52272 40.0574,-0.35301 80.2424,-0.7851 120.1832,1.64102 15.9283,1.03264 31.8434,2.13589 47.7516,3.27522 17.7868,1.06154 15.5,17.57562 -2.2867,16.51408 z"
           inkscape:connector-curvature="0" />
        <path
           style="color:#000000;display:inline;overflow:visible;visibility:visible;opacity:1;fill:#363e40;fill-opacity:1;fill-rule:nonzero;stroke:#363e40;stroke-width:5.60466337;stroke-linecap:butt;stroke-linejoin:miter;stroke-miterlimit:4;stroke-dasharray:none;stroke-dashoffset:0;stroke-opacity:1;marker:none;enable-background:accumulate"
           d="m 228.60597,624.27019 c 34.14538,39.02596 64.08653,81.96184 87.45072,128.16514 14.87974,32.23122 26.82055,65.72066 38.79775,99.07417 -5.11126,-13.87034 -20.33442,-16.09301 -29.92267,-4.85623 10.80768,-39.53061 27.93304,-77.3343 51.88721,-110.80093 32.47526,-47.9944 74.24554,-89.75156 121.6943,-123.23568 17.27708,-10.54596 35.99957,16.19731 20.21104,28.63132 -47.70768,33.73802 -89.76965,75.82825 -120.96706,125.15365 -18.79381,28.00642 -31.23545,59.69481 -39.13584,92.29451 -1.5669,17.8086 -29.84227,21.69354 -37.0246,6.84229 -12.38023,-37.77571 -25.35358,-75.6827 -43.48327,-111.21525 -21.60697,-38.87611 -47.07102,-75.92771 -77.85878,-108.24183 -12.65829,-15.93796 12.24513,-37.60204 26.64237,-23.35909 l 1.70883,1.54793 0,0 z"
           id="path4356"
           inkscape:connector-curvature="0" />
      </g>
    </g>
  </g>
  <g
     inkscape:groupmode="layer"
     id="layer5"
     inkscape:label="arrow 1">
    <flowRoot
       xml:space="preserve"
       id="flowRoot4319"
       style="fill:black;stroke:none;stroke-opacity:1;stroke-width:1px;stroke-linejoin:miter;stroke-linecap:butt;fill-opacity:1;font-family:'Noto Sans';font-style:normal;font-weight:normal;font-size:20px;line-height:125%;letter-spacing:1.21000004px;word-spacing:0px;-inkscape-font-specification:'Noto Sans, Normal';font-stretch:normal;font-variant:normal;text-anchor:start;text-align:start;writing-mode:lr"><flowRegion
         id="flowRegion4321"><rect
           id="rect4323"
           width="178.52167"
           height="250.96524"
           x="-543.32678"
           y="632.77161" /></flowRegion><flowPara
         id="flowPara4325" /></flowRoot>  </g>
</svg>
